<svg version="1.2" xmlns="http://www.w3.org/2000/svg" viewBox="0 0 2000 2001" width="2000" height="2001">
	<title>5891</title>
	<style>
		.s0 { fill: #f4a640 } 
		.s1 { fill: #adcfd8 } 
		.s2 { fill: #55769f } 
		.s3 { fill: #daeef7 } 
		.s4 { fill: #feb546 } 
		.s5 { fill: #ff5b7e } 
		.s6 { fill: #e03268 } 
		.s7 { fill: #07085b } 
		.s8 { fill: #02ccc0 } 
		.s9 { fill: #06bfad } 
		.s10 { fill: #c4dfe8 } 
		.s11 { fill: #ffc0bb } 
		.s12 { fill: #fc8d84 } 
		.s13 { fill: #050645 } 
		.s14 { fill: #ffffff } 
		.s15 { fill: #f99893 } 
		.s16 { fill: #333333 } 
		.s17 { fill: #6f747a } 
		.s18 { mix-blend-mode: multiply;fill: #cdd6e0 } 
		.s19 { mix-blend-mode: multiply;fill: #d9d9d9 } 
	</style>
	<g id="Layer 1">
		<g id="&lt;Group&gt;">
			<g id="&lt;Group&gt;">
				<g id="&lt;Group&gt;">
					<g id="&lt;Group&gt;">
						<path id="&lt;Path&gt;" class="s0" d="m1019.5 1505.9l206.3 82.9 255.3-635.8-174.3-70c-17.7-7.1-37.7 1.5-44.8 19.1z"/>
					</g>
					<g id="&lt;Group&gt;">
						<g id="&lt;Group&gt;">
							<path id="&lt;Path&gt;" class="s1" d="m995.3 1482.3l394.9 70 98.4-555.3-394.9-70z"/>
						</g>
						<g id="&lt;Group&gt;">
							<path id="&lt;Path&gt;" class="s2" d="m1192.7 1005.5l176.4 31.3 0.7-4-176.4-31.3z"/>
						</g>
						<g id="&lt;Group&gt;">
							<path id="&lt;Path&gt;" class="s2" d="m1157.5 988.9l250.4 44.4 0.7-4-250.4-44.4z"/>
						</g>
						<g id="&lt;Group&gt;">
							<path id="&lt;Path&gt;" class="s2" d="m1121.6 1035.8l303.9 53.8 0.7-3.9-303.9-53.9z"/>
						</g>
						<g id="&lt;Group&gt;">
							<path id="&lt;Path&gt;" class="s2" d="m1118.3 1054.8l303.8 53.9 0.7-4-303.8-53.8z"/>
						</g>
						<g id="&lt;Group&gt;">
							<path id="&lt;Path&gt;" class="s2" d="m1111.5 1092.9l303.9 53.9 0.7-4-303.9-53.9z"/>
						</g>
						<g id="&lt;Group&gt;">
							<path id="&lt;Path&gt;" class="s2" d="m1108.1 1111.9l303.9 53.9 0.7-4-303.9-53.8z"/>
						</g>
						<g id="&lt;Group&gt;">
							<path id="&lt;Path&gt;" class="s2" d="m1104.7 1131l303.9 53.8 0.7-3.9-303.9-53.9z"/>
						</g>
						<g id="&lt;Group&gt;">
							<path id="&lt;Path&gt;" class="s2" d="m1089.9 1214.7l303.9 53.9 0.7-4-303.9-53.8z"/>
						</g>
						<g id="&lt;Group&gt;">
							<path id="&lt;Path&gt;" class="s2" d="m1086.4 1234.5l303.9 53.8 0.7-3.9-303.9-53.9z"/>
						</g>
						<g id="&lt;Group&gt;">
							<path id="&lt;Path&gt;" class="s2" d="m1082.9 1254.2l303.9 53.9 0.7-4-303.9-53.8z"/>
						</g>
						<g id="&lt;Group&gt;">
							<path id="&lt;Path&gt;" class="s2" d="m1079.4 1274l303.9 53.8 0.7-3.9-303.9-53.9z"/>
						</g>
						<g id="&lt;Group&gt;">
							<path id="&lt;Path&gt;" class="s2" d="m1075.9 1293.7l303.8 53.9 0.8-4-303.9-53.8z"/>
						</g>
						<g id="&lt;Group&gt;">
							<path id="&lt;Path&gt;" class="s2" d="m1072.4 1313.5l303.8 53.8 0.8-3.9-303.9-53.9z"/>
						</g>
						<g id="&lt;Group&gt;">
							<path id="&lt;Path&gt;" class="s2" d="m1068.9 1333.2l303.8 53.9 0.8-4-303.9-53.8z"/>
						</g>
					</g>
					<g id="&lt;Group&gt;">
						<g id="&lt;Group&gt;">
							<path id="&lt;Path&gt;" class="s3" d="m1007.1 1458.5l387.9 102.1 143.5-545.4-387.9-102z"/>
						</g>
						<g id="&lt;Group&gt;">
							<path id="&lt;Path&gt;" class="s2" d="m1242.9 999.5l173.2 45.6 1-3.9-173.2-45.6z"/>
						</g>
						<g id="&lt;Group&gt;">
							<path id="&lt;Path&gt;" class="s2" d="m1209.1 980l246 64.8 1-3.9-246-64.8z"/>
						</g>
						<g id="&lt;Group&gt;">
							<path id="&lt;Path&gt;" class="s2" d="m1169.6 1023.8l298.4 78.6 1-3.9-298.4-78.6z"/>
						</g>
						<g id="&lt;Group&gt;">
							<path id="&lt;Path&gt;" class="s2" d="m1164.6 1042.5l298.5 78.6 1-3.9-298.4-78.6z"/>
						</g>
						<g id="&lt;Group&gt;">
							<path id="&lt;Path&gt;" class="s2" d="m1154.8 1079.9l298.4 78.6 1-3.9-298.4-78.6z"/>
						</g>
						<g id="&lt;Group&gt;">
							<path id="&lt;Path&gt;" class="s2" d="m1149.9 1098.6l298.4 78.6 1-3.9-298.4-78.6z"/>
						</g>
						<g id="&lt;Group&gt;">
							<path id="&lt;Path&gt;" class="s2" d="m1144.9 1117.3l298.5 78.6 1-3.9-298.4-78.6z"/>
						</g>
						<g id="&lt;Group&gt;">
							<path id="&lt;Path&gt;" class="s2" d="m1123.3 1199.6l298.4 78.5 1-3.9-298.4-78.5z"/>
						</g>
						<g id="&lt;Group&gt;">
							<path id="&lt;Path&gt;" class="s2" d="m1118.2 1219l298.4 78.5 1-3.9-298.4-78.5z"/>
						</g>
						<g id="&lt;Group&gt;">
							<path id="&lt;Path&gt;" class="s2" d="m1113.1 1238.4l298.4 78.5 1-3.9-298.4-78.5z"/>
						</g>
						<g id="&lt;Group&gt;">
							<path id="&lt;Path&gt;" class="s2" d="m1108 1257.8l298.4 78.5 1-3.9-298.4-78.5z"/>
						</g>
						<g id="&lt;Group&gt;">
							<path id="&lt;Path&gt;" class="s2" d="m1102.9 1277.2l298.4 78.5 1-3.9-298.4-78.5z"/>
						</g>
						<g id="&lt;Group&gt;">
							<path id="&lt;Path&gt;" class="s2" d="m1097.8 1296.6l298.4 78.5 1-3.9-298.4-78.5z"/>
						</g>
						<g id="&lt;Group&gt;">
							<path id="&lt;Path&gt;" class="s2" d="m1092.7 1316l298.4 78.5 1-3.9-298.4-78.5z"/>
						</g>
					</g>
					<g id="&lt;Group&gt;">
						<path id="&lt;Path&gt;" class="s4" d="m1097.8 1537.4l415.2 166.7 242.2-603-348.9-215.3c-19.6-12.1-45.4-3.6-54 17.8z"/>
					</g>
				</g>
				<g id="&lt;Group&gt;">
					<g id="&lt;Group&gt;">
						<path id="&lt;Path&gt;" class="s5" d="m1597.6 1474.1l75.2-22.1c13.2-54.7 21.2-101.3 21.2-101.3-90.8 3.6-160.6 31.4-214.4 70.9l-11.1 89.4-24-59.9c-126.8 120.9-141.7 307.7-141.7 307.7 0 0 255.3-99.9 304-141.1 18.8-15.9 36.1-59.3 50.2-106.7-25.4-13.6-59.4-36.9-59.4-36.9z"/>
					</g>
					<g id="&lt;Group&gt;">
						<path id="&lt;Path&gt;" class="s6" d="m1694 1350.7c0 0-298.8 234.3-391.2 408.1 0 0 255.3-99.9 304-141.1 18.8-15.9 36.1-59.3 50.2-106.7-25.4-13.6-59.4-36.9-59.4-36.9l75.2-22.1c13.2-54.7 21.2-101.3 21.2-101.3z"/>
					</g>
					<g id="&lt;Group&gt;">
						<path id="&lt;Path&gt;" class="s5" d="m1745.3 1580.7c-53-15.3-102.9-17.5-149-11.3-8.5 19.7-19.3 43.1-19.3 43.1l-12.1-37.5c-172.4 38.8-282.3 191.5-282.3 191.5 115.6 35.2 204.5 29.4 271.9 5 0.4-14.4 0.8-35.8 0.8-35.8l20.5 27.1c31.6-14.1 58-32.4 79.7-51.9-10.8-14-22.5-30.2-22.5-30.2l42.4 10.8c51.2-54.5 69.9-110.8 69.9-110.8z"/>
					</g>
					<g id="&lt;Group&gt;">
						<path id="&lt;Path&gt;" class="s6" d="m1554.5 1771.5c0.4-14.4 0.8-35.8 0.8-35.8l20.5 27.1c31.6-14.1 58-32.4 79.7-51.9-10.8-14-22.5-30.2-22.5-30.2l42.4 10.8c51.2-54.5 69.9-110.8 69.9-110.8-204.7 31.3-462.7 185.8-462.7 185.8 115.6 35.2 204.5 29.4 271.9 5z"/>
					</g>
				</g>
				<g id="&lt;Group&gt;">
					<g id="&lt;Group&gt;">
						<path id="&lt;Path&gt;" class="s6" d="m440.8 1123.3h-28.4c4.6-3.1 10.5-5 16.8-5h711.3c37.2 0 67.4 26.7 67.4 59.7v37.9c0 33-30.2 59.8-67.4 59.8l-703.4-0.2z"/>
					</g>
					<g id="&lt;Group&gt;">
						<path id="&lt;Path&gt;" class="s4" d="m1148.2 1215.9v-37.9c0-33-30.1-59.7-67.3-59.7h15.2c37.2 0 67.4 26.7 67.4 59.7v37.9c0 33-30.2 59.8-67.4 59.8h-15c37.1-0.1 67.1-26.8 67.1-59.8z"/>
					</g>
					<g id="&lt;Group&gt;">
						<path id="&lt;Path&gt;" class="s4" d="m981.6 1215.9v-37.9c0-33-30.1-59.7-67.3-59.7h15.2c37.2 0 67.4 26.7 67.4 59.7v37.9c0 33-30.2 59.8-67.4 59.8h-15c37.1-0.1 67.1-26.8 67.1-59.8z"/>
					</g>
					<g id="&lt;Group&gt;">
						<path id="&lt;Path&gt;" class="s5" d="m844.6 1118.4c35.6 0 64.5 25.6 64.5 57.1v42.9c0 31.6-28.9 57.1-64.5 57.1h-442.8v-9.5h1.8l112.6-9.5 22.8-79.1c0 0-44-43.8-46.8-44.9-2.9-1.1-88.6-4.5-88.6-4.5l-1.8-0.1v-9.5z"/>
					</g>
					<g id="&lt;Group&gt;">
						<path id="&lt;Path&gt;" class="s3" d="m430.5 1196.7c0-46.3-26.9-68.7-26.9-68.7h432c32.7 0 59.2 23.5 59.2 52.5v33c0 29-26.5 52.5-59.2 52.5h-432c0 0 26.9-11.1 26.9-69.3z"/>
					</g>
					<g id="&lt;Group&gt;" style="mix-blend-mode: multiply">
						<path id="&lt;Path&gt;" class="s3" d="m894.8 1180.5v33c0 4.3-0.6 8.5-1.8 12.6-14.5-31.6-42.5-62.1-95.6-71.9-124.1-22.8-393.8-26.2-393.8-26.2h432c32.7 0 59.2 23.5 59.2 52.5z"/>
					</g>
				</g>
				<g id="&lt;Group&gt;">
					<g id="&lt;Group&gt;">
						<path id="&lt;Path&gt;" class="s7" d="m452.5 1438h-32.1c5.2-4 11.8-6.4 19-6.4h805.1c42.1 0 76.2 33.5 76.2 74.8v47.5c0 41.3-34.1 74.8-76.2 74.8l-796.1-0.3z"/>
					</g>
					<g id="&lt;Group&gt;">
						<path id="&lt;Path&gt;" class="s2" d="m909.6 1431.8c40.3 0 72.9 32 72.9 71.5v53.7c0 39.5-32.6 71.5-72.9 71.5h-501.2v-12h2.1l127.4-11.9 25.7-99c0 0-49.7-54.7-52.9-56.1-3.3-1.5-100.2-5.7-100.2-5.7l-2.1-0.1v-11.9z"/>
					</g>
					<g id="&lt;Group&gt;">
						<path id="&lt;Path&gt;" class="s3" d="m440.9 1529.8c0-57.9-30.5-86-30.5-86h488.9c37 0 67 29.4 67 65.7v41.3c0 36.3-30 65.7-67 65.7h-488.9c0 0 30.5-13.8 30.5-86.7z"/>
					</g>
					<g id="&lt;Group&gt;" style="mix-blend-mode: multiply">
						<path id="&lt;Path&gt;" class="s3" d="m966.3 1509.5v41.3c0 5.4-0.7 10.7-1.9 15.8-16.5-39.6-48.1-77.7-108.3-90-140.5-28.6-445.7-32.8-445.7-32.8h488.9c37 0 67 29.4 67 65.7z"/>
					</g>
				</g>
				<g id="&lt;Group&gt;">
					<g id="&lt;Group&gt;">
						<path id="&lt;Path&gt;" class="s8" d="m1347.3 1280.3h32.1c-5.2-3.1-11.8-5-19-5h-805.4c-42.1 0-76.3 26.5-76.3 59.3v37.7c0 32.8 34.2 59.3 76.3 59.3l796.4-0.2z"/>
					</g>
					<g id="&lt;Group&gt;">
						<path id="&lt;Path&gt;" class="s9" d="m890 1275.4c-40.3 0-73 25.4-73 56.8v42.5c0 31.4 32.7 56.8 73 56.8h501.4v-9.5h-2.1l-127.4-9.4-25.8-78.6c0 0 49.7-43.4 53-44.6 3.2-1.1 100.2-4.5 100.2-4.5h2.1v-9.5z"/>
					</g>
					<g id="&lt;Group&gt;">
						<path id="&lt;Path&gt;" class="s3" d="m1358.9 1353.2c0-46 30.5-68.3 30.5-68.3h-489.1c-37 0-67 23.4-67 52.2v32.7c0 28.8 30 52.2 67 52.2h489.1c0 0-30.5-11-30.5-68.8z"/>
					</g>
					<g id="&lt;Group&gt;" style="mix-blend-mode: multiply">
						<path id="&lt;Path&gt;" class="s3" d="m833.3 1337.1v32.7c0 4.4 0.6 8.5 1.9 12.5 16.5-31.3 48.1-61.6 108.3-71.3 140.6-22.7 445.9-26.1 445.9-26.1h-489.1c-37 0-67 23.4-67 52.2z"/>
					</g>
					<g id="&lt;Group&gt;" style="opacity: .5">
						<path id="&lt;Path&gt;" class="s2" d="m626.2 1372.3v-37.7c0-32.8 34.2-59.3 76.3-59.3h-76.4c-42.2 0-76.3 26.5-76.3 59.3v37.7c0 32.8 34.1 59.3 76.3 59.3h75.4c-41.6-0.4-75.3-26.8-75.3-59.3z"/>
					</g>
				</g>
				<g id="&lt;Group&gt;">
					<path id="&lt;Path&gt;" class="s4" d="m1400.3 1634.7h40.3c-6.6-3.5-14.8-5.6-23.8-5.6h-1009.7c-52.9 0-95.7 29.6-95.7 66.2v42.2c0 36.6 42.8 66.2 95.7 66.2l998.4-0.2z"/>
				</g>
				<g id="&lt;Group&gt;">
					<path id="&lt;Path&gt;" class="s0" d="m827.1 1629.2c-50.5 0-91.5 28.4-91.5 63.4v47.6c0 35 41 63.4 91.5 63.4h628.6v-10.7h-2.6l-159.8-10.4-32.3-87.9c0 0 62.3-48.5 66.4-49.7 4-1.3 125.7-5.1 125.7-5.1h2.6v-10.6z"/>
				</g>
				<g id="&lt;Group&gt;">
					<path id="&lt;Path&gt;" class="s3" d="m1414.9 1716.1c0-51.3 38.3-76.2 38.3-76.2h-613.3c-46.4 0-84 26-84 58.2v36.6c0 32.2 37.6 58.2 84 58.2h613.3c0 0-38.3-12.2-38.3-76.8z"/>
				</g>
				<g id="&lt;Group&gt;" style="mix-blend-mode: multiply">
					<path id="&lt;Path&gt;" class="s3" d="m755.9 1698.1v36.6c0 4.8 0.9 9.5 2.5 14 20.7-35.1 60.3-68.9 135.8-79.7 176.1-25.4 559-29.1 559-29.1h-613.3c-46.4 0-84 26-84 58.2z"/>
				</g>
				<g id="&lt;Group&gt;">
					<path id="&lt;Path&gt;" class="s10" d="m200.5 1821.8h1464.3c4.4 0 7.9-3.5 7.9-7.8v-3.6c0-4.4-3.5-7.9-7.9-7.9h-1464.3c-4.4 0-7.9 3.5-7.9 7.9v3.6c0 4.3 3.5 7.8 7.9 7.8z"/>
				</g>
				<g id="&lt;Group&gt;">
					<path id="&lt;Path&gt;" class="s0" d="m1681.6 1167.7l-282.7-161.7-38.2 75.7 289.3 153z"/>
				</g>
				<g id="&lt;Group&gt;">
					<path id="&lt;Path&gt;" class="s8" d="m1449.3 583.2c0 0 2.2 22 19.6 23.5-17.4 1.6-19.6 23.5-19.6 23.5 0 0-2.2-21.9-19.6-23.5 17.4-1.5 19.6-23.5 19.6-23.5z"/>
				</g>
				<g id="&lt;Group&gt;">
					<path id="&lt;Path&gt;" class="s5" d="m1755.2 1224.2c0 0 3.4 33 29.4 35.2-26 2.3-29.4 35.3-29.4 35.3 0 0-3.3-33-29.4-35.3 26.1-2.2 29.4-35.2 29.4-35.2z"/>
				</g>
				<g id="&lt;Group&gt;">
					<path id="&lt;Path&gt;" class="s4" d="m1673.6 403.4c0 0 3 29.3 26.1 31.3-23.1 2.1-26.1 31.4-26.1 31.4 0 0-3-29.3-26.1-31.4 23.1-2 26.1-31.3 26.1-31.3z"/>
				</g>
				<g id="&lt;Group&gt;">
					<path id="&lt;Path&gt;" class="s4" d="m298 1354c0 0 2 19.7 17.5 21.1-15.5 1.4-17.5 21.1-17.5 21.1 0 0-2-19.7-17.6-21.1 15.6-1.4 17.6-21.1 17.6-21.1z"/>
				</g>
				<g id="&lt;Group&gt;">
					<path id="&lt;Path&gt;" class="s5" d="m1569.8 800.1c0 0 1.9 19.7 17.5 21-15.6 1.4-17.5 21.1-17.5 21.1 0 0-2-19.7-17.6-21.1 15.6-1.3 17.6-21 17.6-21z"/>
				</g>
				<g id="&lt;Group&gt;">
					<path id="&lt;Path&gt;" class="s5" d="m1299.6 283.9c0 0 2 19.7 17.5 21.1-15.5 1.3-17.5 21-17.5 21 0 0-2-19.7-17.5-21 15.5-1.4 17.5-21.1 17.5-21.1z"/>
				</g>
				<g id="&lt;Group&gt;">
					<path id="&lt;Path&gt;" class="s5" d="m486.1 534.3c0 0 2.6 25.7 22.9 27.5-20.3 1.8-22.9 27.5-22.9 27.5 0 0-2.6-25.7-22.9-27.5 20.3-1.8 22.9-27.5 22.9-27.5z"/>
				</g>
				<g id="&lt;Group&gt;">
					<path id="&lt;Path&gt;" class="s5" d="m311.4 980c0 0 3.8 37.7 33.6 40.3-29.8 2.6-33.6 40.3-33.6 40.3 0 0-3.8-37.7-33.6-40.3 29.8-2.6 33.6-40.3 33.6-40.3z"/>
				</g>
				<g id="&lt;Group&gt;">
					<path id="&lt;Path&gt;" class="s5" d="m1221.2 637.5c0 0 2.9 29.3 26.1 31.3-23.2 2-26.1 31.3-26.1 31.3 0 0-3-29.3-26.1-31.3 23.1-2 26.1-31.3 26.1-31.3z"/>
				</g>
				<g id="&lt;Group&gt;">
					<path id="&lt;Path&gt;" class="s8" d="m1781.3 953.6c0 0 3 29.3 26.1 31.3-23.1 2.1-26.1 31.3-26.1 31.3 0 0-3-29.2-26.1-31.3 23.1-2 26.1-31.3 26.1-31.3z"/>
				</g>
				<g id="&lt;Group&gt;">
					<path id="&lt;Path&gt;" class="s8" d="m330 352.7c0 0 2.1 20.8 18.6 22.3-16.5 1.4-18.6 22.3-18.6 22.3 0 0-2.1-20.9-18.6-22.3 16.5-1.5 18.6-22.3 18.6-22.3z"/>
				</g>
				<g id="&lt;Group&gt;">
					<path id="&lt;Path&gt;" class="s8" d="m549.8 868.4c0 0 3.4 33.4 29.7 35.7-26.3 2.3-29.7 35.7-29.7 35.7 0 0-3.4-33.4-29.8-35.7 26.4-2.3 29.8-35.7 29.8-35.7z"/>
				</g>
				<g id="&lt;Group&gt;">
					<path id="&lt;Path&gt;" class="s4" d="m257.3 650.8c0 0 2.3 26.5 20.3 28.4-18 1.8-20.3 28.3-20.3 28.3 0 0-2.4-26.5-20.4-28.3 18-1.9 20.4-28.4 20.4-28.4z"/>
				</g>
				<g id="&lt;Group&gt;">
					<path id="&lt;Path&gt;" class="s4" d="m688.3 227.1c0 0 2.4 26.6 20.4 28.4-18 1.9-20.4 28.4-20.4 28.4 0 0-2.3-26.5-20.3-28.4 18-1.8 20.3-28.4 20.3-28.4z"/>
				</g>
				<g id="&lt;Group&gt;">
					<g id="&lt;Group&gt;">
						<g id="&lt;Group&gt;" style="mix-blend-mode: multiply">
							<path id="&lt;Path&gt;" class="s3" d="m973.9 760.6l45.6 3.7-14.7 36.9-23-1.9-9.6 30.8c-2.3-1.1-4-1.9-4.4-2.1-0.7-0.5-3.2-15.8-5.5-30.2z"/>
						</g>
						<g id="&lt;Group&gt;">
							<path id="&lt;Path&gt;" class="s6" d="m1000 1099.9v16.1c0 1.3 1 2.4 2.4 2.4h37.5c2.7 0 3.8-3.5 1.5-5l-21.1-13.5c0 0-8.3 6.1-20.3 0z"/>
						</g>
						<path id="&lt;Path&gt;" class="s11" d="m926.3 418.3c-0.6 0.3-1.2-0.2-1-0.8 0.9-4.5 3.8-18.5 2.7-19-1.3-0.6-4.2 11.9-5.5 12-1.3 0.2 1.8-11.9 0.4-12.3-1.5-0.5-4 10.7-4.7 10.7-0.7 0.1 0.6-10.9-0.2-11.6-0.7-0.8-3.4 10.7-4.2 11-0.8 0.3-1.6-8.3-2.3-8.3-0.8 0-1.3-0.1-5.1 19.7 0 0-0.2 7.2-1.5 8.9l2.9 5.9 8.8 0.2c0 0 19.3-17.4 19.1-18.4-0.1-1-1-1.3-9.4 2z"/>
						<path id="&lt;Path&gt;" class="s11" d="m1017.4 422.7c0.4 0.5 1.1 0.3 1.3-0.3 1.2-4.4 5.1-18.2 6.2-18.1 1.5 0-1.7 12.5-0.6 13.2 1.1 0.7 3.9-11.5 5.4-11.2 1.5 0.3-1.4 11.4-0.8 11.7 0.5 0.4 4.4-9.9 5.4-10.3 1-0.3-1.8 11.2-1.2 11.8 0.6 0.6 5.2-6.7 5.8-6.3 0.7 0.3 1.2 0.4-4.4 19.7 0 0-3.1 6.6-2.8 8.7l-5.2 3.9-8-3.8c0 0-9.2-24.2-8.5-25.1 0.6-0.8 1.4-0.7 7.4 6.1z"/>
						<g id="&lt;Group&gt;">
							<path id="&lt;Path&gt;" class="s11" d="m947 581.3l0.2 33.8-32.9-5 5.5-38.1z"/>
						</g>
						<g id="&lt;Group&gt;" style="opacity: .6">
							<path id="&lt;Path&gt;" class="s12" d="m917.3 589.5l2.5-17.5 27.3 12.5v6.7c-6.6 1.6-18.9 3-29.8-1.7z"/>
						</g>
						<g id="&lt;Group&gt;">
							<path id="&lt;Path&gt;" class="s6" d="m887.6 1098.1v17.7c0 1.4-1.2 2.6-2.6 2.6h-41.3c-3 0-4.1-3.9-1.6-5.5l23.2-14.8c0 0 9 6.7 22.3 0z"/>
						</g>
						<g id="&lt;Group&gt;">
							<g id="&lt;Group&gt;">
								<g id="&lt;Group&gt;">
									<path id="&lt;Path&gt;" class="s7" d="m849.9 798.5c0.1-3.8-9.7 7.3-9.5 4.3 3.8-62.6 126.2-10.1 126.2-10.1l29.8 21.9 33.8 290.3c0 0-18.3 5.3-30.4 0.9l-74.7-248.7-9.1-3.5c0 0-40.9-28.5-66.1-55.1z"/>
								</g>
							</g>
						</g>
						<g id="&lt;Group&gt;">
							<g id="&lt;Group&gt;">
								<g id="&lt;Group&gt;">
									<path id="&lt;Path&gt;" class="s9" d="m840.2 805.4q0 1.1-0.1 2.2 0.1-1.1 0.1-2.2z"/>
								</g>
								<g id="&lt;Group&gt;">
									<path id="&lt;Path&gt;" class="s9" d="m840.1 807.7q0 1.2-0.1 2.4 0.1-1.2 0.1-2.4z"/>
								</g>
								<g id="&lt;Group&gt;">
									<path id="&lt;Path&gt;" class="s9" d="m840 810.4q0 1.3 0 2.6 0-1.3 0-2.6z"/>
								</g>
								<g id="&lt;Group&gt;">
									<path id="&lt;Path&gt;" class="s9" d="m840.4 802.8q-0.1 1.1-0.2 2.1 0.1-1 0.2-2.1z"/>
								</g>
								<g id="&lt;Group&gt;">
									<path id="&lt;Path&gt;" class="s7" d="m840.4 788.6c25.2 26.6 75.6 65 75.6 65l9.1 3.5-9.1-3.5-28.4 251.3c0 0-20.3 3.8-31.8-2.4 0 0-17.1-239.2-15.4-313.9z"/>
								</g>
								<g id="&lt;Group&gt;">
									<path id="&lt;Path&gt;" class="s9" d="m1030.2 1104.9c0 0-7.9 2.3-16.7 2.6 8.8-0.3 16.7-2.6 16.7-2.6z"/>
								</g>
								<g id="&lt;Group&gt;">
									<path id="&lt;Path&gt;" class="s9" d="m1003.3 1106.8q1.3 0.3 2.5 0.4-1.2-0.1-2.5-0.4z"/>
								</g>
								<g id="&lt;Group&gt;">
									<path id="&lt;Path&gt;" class="s9" d="m1013.5 1107.5c-2.1 0.1-4.3 0.1-6.4-0.1 2.1 0.2 4.3 0.2 6.4 0.1z"/>
								</g>
							</g>
						</g>
						<g id="&lt;Group&gt;">
							<path id="&lt;Path&gt;" class="s13" d="m996.4 814.6l4.9 41.5c-12.8 4.9-43.8 10.2-67.2-41-7.4-16.1-9.3-27.8-7.9-36.1 22.4 6 40.4 13.7 40.4 13.7z"/>
						</g>
						<g id="&lt;Group&gt;">
							<path id="&lt;Path&gt;" class="s3" d="m884.2 645.6c1.4 0 22.6-48.1 22.6-48.1 18.1 12.7 42.7 3.9 42.7 3.9 0 0 99 181.2 32.6 209.5-66.4 28.2-129-6.2-129-6.2 0 0-14.1-36.7-14.1-38.1 0-1.4 43.8-121 45.2-121z"/>
						</g>
						<g id="&lt;Group&gt;">
							<path id="&lt;Path&gt;" class="s2" d="m1013.2 442.1c0 0 4.3 86-3.8 101.7-26.7 52.3-59.9 57.6-59.9 57.6 0 0-11.4 182.9-2 226.6 0 0 31.3 9.7 77.5-12 0 0-35.3-141.7-33.5-159.6 0 0 56.6-50.4 58.4-109.7 1.9-59.4-13.6-112.1-13.6-112.1z"/>
						</g>
						<g id="&lt;Group&gt;">
							<path id="&lt;Path&gt;" class="s2" d="m860.9 821.5c0 0 3.5-68.1 19-132.6 15.6-64.5 26.9-91.4 26.9-91.4-20.9-22.9-17.4-43.7-15.6-70.6 2.2-31.1 32.5-93.3 32.5-93.3l-20.5-13.4c-98.1 118-43.8 211.9-43.8 211.9 0 0-36.7 130-41.6 169.6 0 0 19.5 11.3 43.1 19.8z"/>
						</g>
						<path id="&lt;Path&gt;" class="s14" d="m990.6 656.2c-1.2-0.8-2.6-2.1-4-3.8-4.1-5-6.3-10.6-7.8-17 0.9 2.7 3.3 10.6 8.4 16.5 2.3 2.6 3.5 3.5 4.6 4.2q-0.2 0.3-0.3 0.3 0 0.2 0 0.4c-1.3 0.2-3.6 0.3-7.5-1.8-2.3-1.2-4.3-2.8-6.2-4.5 1.3 0.9 3.9 2.9 6.5 4.1 1.7 0.8 4.3 1.7 6.3 1.6z"/>
						<path id="&lt;Path&gt;" class="s14" d="m860.2 631.7c1.7-1.1 3.1-2.6 4.5-4.1 4.1-4.9 6.4-10.7 8.4-16.5-1.5 6.3-3.6 11.9-7.8 17-1.4 1.6-2.8 2.9-4 3.7 0.9 0.1 2.1-0.1 2.8-0.3q1.8-0.5 3.5-1.3c2.4-1.1 4.7-2.8 6.5-4.1-1.7 1.5-3.7 3.2-6.2 4.5q-1.7 1-3.6 1.6c-1.3 0.3-2.6 0.5-4.1 0.2l-0.7-0.2z"/>
						<path id="&lt;Path&gt;" class="s7" d="m899.9 512.2l-2 23.2 3.7 2.3 6.7-28.2z"/>
						<g id="&lt;Group&gt;">
							<path id="&lt;Path&gt;" class="s15" d="m904.8 533c1 5.3-1.6 10.2-5.8 11-4.2 0.8-8.4-2.8-9.4-8-1-5.3 1.5-10.2 5.8-11 4.2-0.8 8.4 2.8 9.4 8z"/>
						</g>
						<g id="&lt;Group&gt;">
							<path id="&lt;Path&gt;" class="s11" d="m898.8 554.5c-1.1-6.7-0.9-13.6-0.3-19.5q0.1-1.9 0.2-3.8c0.1-5.2 1.2-10.4 3.4-15.6 7.3-16.7 24.9-26.8 43-24.6 24.3 3 40.3 25.9 35.6 49.3 2.9-0.9 5.8-0.7 8.1 1 4.4 3.1 4.8 10.1 0.9 15.6-3.9 5.4-10.6 7.4-15 4.2q-0.9-0.6-1.6-1.5c-6 19.5-25.4 31.6-44.9 27.4-14.8-3.2-27-15.5-29.4-32.5z"/>
						</g>
						<path id="&lt;Path&gt;" class="s16" d="m943.7 535.9c-0.9 2.4 0.8 5 3.4 5 1.5 0 2.8-0.9 3.3-2.2 1-2.4-0.7-5-3.4-5-1.4 0-2.7 0.9-3.3 2.2z"/>
						<path id="&lt;Path&gt;" class="s16" d="m912.9 531.3c-0.9 2.4 0.8 5 3.5 5 1.4 0 2.7-0.9 3.2-2.3 1-2.4-0.7-5-3.4-4.9-1.4 0-2.7 0.9-3.3 2.2z"/>
						<path id="&lt;Path&gt;" class="s15" d="m938.9 561.2c-1.9 1-4 1.7-5.8 2-2 0.4-4 0.5-6 0.3-2-0.3-4-1-5.7-2-1.8-1.1-3.3-2.4-4.8-3.9 1.5 2 2.8 3.2 4.5 4.3 1.7 1.2 3.6 1.9 5.9 2.3 2.1 0.3 4.2 0.1 6.2-0.4 2.1-0.6 4-1.4 5.7-2.6z"/>
						<path id="&lt;Path&gt;" class="s7" d="m940.8 528.6c1.9-0.4 3.7-0.6 5.4-0.6q2.6 0 5 0.6c1.6 0.5 3.2 1.1 4.7 2 1.9 1.1 3.4 2.5 4.4 3.2-0.7-1.7-1.7-3.7-3.2-4.8-1.4-1.4-3.2-2.4-5.2-2.9-1.9-0.6-4-0.6-5.9-0.1-2 0.4-3.8 1.3-5.2 2.6z"/>
						<path id="&lt;Path&gt;" class="s7" d="m926.4 526.2c-0.9-1.7-2.4-3.1-4-4.1-1.7-1-3.7-1.7-5.7-1.8-2-0.1-4.1 0.2-5.9 1.1-1.7 0.6-3.4 2.1-4.5 3.5 1.3-0.3 2.9-1.1 5.2-1.6 1.7-0.4 3.4-0.5 5-0.4q2.5 0.1 5 1c1.6 0.6 3.2 1.4 4.9 2.3z"/>
						<path id="&lt;Path&gt;" class="s15" d="m932.7 530.8c-1.7 1.6-3.3 3.3-4.7 5.1-1.5 1.8-2.9 3.7-4.1 5.7-0.7 1.2-1.5 2.8-1.8 4.2-0.1 0.7 0 1.5 1.3 2.7 0.8 0.9 1.7 1.6 2.7 2.3 1 0.6 2 1.2 3 1.7-1.7-1.5-3.5-3-4.9-4.7-0.2-0.3-0.7-0.9-0.8-1.3-0.1-0.2 0.1-0.8 0.2-1.2 0.4-1 1-2 1.5-3 1.2-1.9 2.5-3.8 3.8-5.8 1.3-1.9 2.6-3.8 3.8-5.7z"/>
						<path id="&lt;Path&gt;" class="s7" d="m904.2 487.4c0 0-12.2-2.4 2.8-9.7 15.1-7.4 51.9-11.7 71.2 4.8 0 0 6.4-8.3 12.3-4.6 5.8 3.6-6.1 7.7-6.1 7.7 0 0 8.1 1.5 9.7 6 1.2 3.4-3.8 2.4-6.5 1.6 4.4 1.9 17.4 14.1 0.6 47.7-3-1.4-22.4-29-22.4-29 0 0-38.8 12.8-31.7 2.2 0 0-45.3 11.4-34.3-9.1 0 0-16.7-2.5 4.4-17.6z"/>
						<path id="&lt;Path&gt;" class="s7" d="m988.2 540.9c0 0-3-2.3-7.5-0.6-4.4 1.7-7.3 11.7-7.3 11.7 0 0-14.6 12-7.5-40.3 7-51.4 16.8 8.6 16.8 8.6z"/>
					</g>
				</g>
				<g id="&lt;Group&gt;">
					<g id="&lt;Group&gt;">
						<path id="&lt;Path&gt;" class="s4" d="m1009.5 380l-67-4.8c-3.4-0.2-5.9-3.1-5.7-6.5 0.3-3.4 3.2-6 6.6-5.7l67 4.7c3.4 0.3 6 3.2 5.7 6.6-0.2 3.4-3.2 6-6.6 5.7z"/>
					</g>
					<g id="&lt;Group&gt;">
						<path id="&lt;Path&gt;" class="s4" d="m990.2 178.2l23.5 57.4 60.5 13.3-47.3 40 6.1 61.7-52.7-32.7-56.8 24.9 14.8-60.2-41.2-46.4 61.8-4.5z"/>
					</g>
					<g id="&lt;Group&gt;">
						<g id="&lt;Group&gt;">
							<path id="&lt;Path&gt;" class="s0" d="m990.2 178.2l-6 84.2 29.5-26.8z"/>
							<path id="&lt;Path&gt;" class="s0" d="m1074.2 248.9l-90 13.5 42.7 26.5z"/>
							<path id="&lt;Path&gt;" class="s0" d="m984.2 262.4l-25.3-30.7-61.8 4.5z"/>
							<path id="&lt;Path&gt;" class="s0" d="m923.5 342.8l60.7-80.4-45.9 20.2z"/>
							<path id="&lt;Path&gt;" class="s0" d="m1033 350.6l-48.8-88.2-3.9 55.5z"/>
						</g>
					</g>
					<path id="&lt;Path&gt;" class="s17" d="m1024.3 418.3l-101.8-7.2 2.5-35.8 101.8 7.3z"/>
					<path id="&lt;Path&gt;" class="s18" d="m922.8 407.2l-0.3 3.9 101.8 7.2 0.3-3.9z"/>
					<path id="&lt;Path&gt;" class="s18" d="m925.1 374.3l-0.3 3.9 101.8 7.3 0.3-3.9z"/>
					<path id="&lt;Path&gt;" class="s0" d="m1026 384.3l-100.3-7.2c-2.6-0.2-4.5-2.4-4.3-4.9 0.2-2.6 2.4-4.5 4.9-4.3l100.3 7.2c2.6 0.1 4.5 2.3 4.3 4.9-0.2 2.5-2.4 4.4-4.9 4.3z"/>
					<path id="&lt;Path&gt;" class="s17" d="m1025.6 426.8l-107-7.7c-0.7 0-1.2-0.6-1.2-1.3l0.5-6.7c0.1-0.7 0.7-1.2 1.4-1.2l107 7.7c0.7 0 1.2 0.6 1.1 1.3l-0.5 6.7c0 0.7-0.6 1.2-1.3 1.2z"/>
					<g id="&lt;Group&gt;">
						<path id="&lt;Path&gt;" class="s4" d="m993 406.6l-38.7-2.7c-4.8-0.4-8.5-4.6-8.1-9.4 0.3-4.8 4.5-8.4 9.3-8.1l38.7 2.8c4.9 0.3 8.5 4.5 8.1 9.3-0.3 4.8-4.5 8.5-9.3 8.1z"/>
					</g>
					<path id="&lt;Path&gt;" class="s19" d="m954.5 401c-3.4-0.3-6-3.5-5.3-7 0.6-2.9 3.4-4.9 6.4-4.6l38.2 2.7c3 0.2 5.5 2.5 5.6 5.5 0.2 3.6-2.7 6.4-6.2 6.1z"/>
					<g id="&lt;Group&gt;">
						<path id="&lt;Path&gt;" class="s4" d="m987.4 369.8l-21.5-1.5 0.1-2c0.6-8.1 1.5-25 14.3-48.4 9.7 26.8 7.8 41.8 7.3 49.9z"/>
					</g>
				</g>
			</g>
		</g>
	</g>
</svg>