<svg width="751" height="600" xmlns="http://www.w3.org/2000/svg" xmlns:xlink="http://www.w3.org/1999/xlink" xml:space="preserve" overflow="hidden"><defs><clipPath id="clip0"><rect x="264" y="60" width="751" height="600"/></clipPath><linearGradient x1="407.481" y1="381.341" x2="406.219" y2="381.543" gradientUnits="userSpaceOnUse" spreadMethod="pad" id="fill1"><stop offset="0" stop-color="#FFFFFF" stop-opacity="0"/><stop offset="1" stop-color="#FF765F"/></linearGradient><linearGradient x1="202.515" y1="277.186" x2="335.25" y2="169.948" gradientUnits="userSpaceOnUse" spreadMethod="pad" id="fill2"><stop offset="0" stop-color="#FFFFFF" stop-opacity="0"/><stop offset="1" stop-color="#FF765F"/></linearGradient><linearGradient x1="311.889" y1="282.489" x2="312.984" y2="283.324" gradientUnits="userSpaceOnUse" spreadMethod="pad" id="fill3"><stop offset="0" stop-color="#FFFFFF" stop-opacity="0"/><stop offset="1" stop-color="#FF765F"/></linearGradient><linearGradient x1="675.221" y1="353.854" x2="556.072" y2="246.015" gradientUnits="userSpaceOnUse" spreadMethod="pad" id="fill4"><stop offset="0" stop-color="#FFFFFF" stop-opacity="0"/><stop offset="1" stop-color="#FF765F"/></linearGradient></defs><g clip-path="url(#clip0)" transform="translate(-264 -60)"><path d="M425.992 301.914C425.992 301.914 392.273 291.955 389.273 289.195 386.273 286.435 371.273 248.875 371.273 248.875L359.993 250.795C359.993 250.795 371.153 295.315 373.673 299.754 376.193 304.194 414.832 322.074 414.832 322.074" fill="#D6473C" transform="matrix(1 0 0 1.00002 189.508 60)"/><path d="M467.151 322.914C467.151 322.914 485.391 339.474 490.791 343.794 496.311 347.993 528.11 357.473 531.95 363.113 535.79 368.753 528.83 372.113 524.51 372.113 520.31 372.113 489.471 361.193 485.631 359.993 481.671 358.793 459.831 342.954 459.831 342.954" fill="#D6473C" transform="matrix(1 0 0 1.00002 189.508 60)"/><path d="M292.795 501.831 260.155 501.831C259.555 501.831 259.075 501.471 258.955 500.871L258.235 497.031C258.115 496.311 258.595 495.591 259.315 495.591L292.795 495.591C293.395 495.591 293.995 496.071 293.995 496.791L293.995 500.631C293.995 501.351 293.395 501.831 292.795 501.831Z" fill="#7EACED" transform="matrix(1 0 0 1.00002 189.508 60)"/><path d="M276.115 541.43 242.635 541.43C242.275 541.43 241.915 541.07 241.915 540.71L241.076 536.03C240.956 535.55 241.316 535.19 241.795 535.19L276.115 535.19C276.475 535.19 276.835 535.43 276.835 535.91L276.835 540.59C276.835 541.07 276.475 541.43 276.115 541.43Z" fill="#7EACED" transform="matrix(1 0 0 1.00002 189.508 60)"/><path d="M317.994 463.431 284.755 463.431C284.395 463.431 284.035 463.191 283.915 462.831L283.075 458.271C282.955 457.671 283.435 457.191 283.915 457.191L317.994 457.191C318.474 457.191 318.834 457.551 318.834 458.031L318.834 462.591C318.834 463.071 318.474 463.431 317.994 463.431Z" fill="#7EACED" transform="matrix(1 0 0 1.00002 189.508 60)"/><path d="M226.316 246.835C226.396 246.835 226.476 246.795 226.556 246.715 226.676 246.715 226.676 246.595 226.556 246.475 222.716 240.476 221.636 234.596 223.076 228.956 226.076 217.676 238.676 211.076 238.796 210.956 238.916 210.956 238.916 210.716 238.916 210.716 238.796 210.596 238.676 210.476 238.556 210.596 238.436 210.596 225.716 217.316 222.716 228.836 221.156 234.596 222.356 240.596 226.196 246.715 226.196 246.795 226.236 246.835 226.316 246.835Z" fill="#423A42" transform="matrix(1 0 0 1.00002 189.508 60)"/><path d="M291.475 261.835C291.555 261.835 291.595 261.795 291.595 261.715 298.314 256.675 302.034 250.435 302.754 243.115 304.314 226.556 289.555 210.236 289.435 209.996 289.315 209.876 289.195 209.876 289.075 209.996 289.075 210.116 288.955 210.236 289.075 210.356 289.195 210.476 303.714 226.796 302.274 242.995 301.554 250.195 297.954 256.435 291.355 261.355 291.235 261.475 291.235 261.595 291.235 261.715 291.315 261.795 291.395 261.835 291.475 261.835Z" fill="#423A42" transform="matrix(1 0 0 1.00002 189.508 60)"/><path d="M259.795 168.957 260.275 168.957C259.915 165.357 265.795 162.837 265.915 162.837 266.035 162.717 266.035 162.597 266.035 162.477 265.915 162.357 265.795 162.357 265.675 162.357 265.435 162.477 260.635 164.517 259.915 167.757 259.435 166.797 258.475 165.597 256.555 165.357 256.435 165.357 256.195 165.477 256.195 165.597 256.195 165.717 256.315 165.837 256.435 165.837 259.315 166.197 259.795 168.957 259.795 168.957Z" fill="#423A42" transform="matrix(1 0 0 1.00002 189.508 60)"/><path d="M221.396 216.956C221.396 216.956 221.396 216.956 221.396 216.956 239.876 216.596 245.155 198.596 245.155 198.476 245.275 198.356 245.155 198.236 245.035 198.116 244.915 198.116 244.795 198.236 244.675 198.356 244.675 198.476 239.516 216.116 221.396 216.476 221.276 216.476 221.156 216.596 221.156 216.716 221.156 216.836 221.276 216.956 221.396 216.956Z" fill="#423A42" transform="matrix(1 0 0 1.00002 189.508 60)"/><path d="M260.035 167.877C260.035 167.877 271.315 157.557 283.075 165.957 294.715 174.357 286.675 190.196 287.995 204.116 289.195 217.916 314.394 230.876 292.435 262.675 270.475 294.595 197.276 241.316 234.476 213.116 257.635 195.596 228.236 168.237 260.035 167.877Z" fill="#423A42" transform="matrix(1 0 0 1.00002 189.508 60)"/><path d="M280.555 219.956C280.555 219.956 310.554 209.636 314.634 206.156 318.834 202.556 339.114 178.197 339.114 178.197L346.914 182.877C346.914 182.877 326.274 216.956 320.034 220.796 313.794 224.516 289.555 239.756 289.555 239.756" fill="#9FC1F4" transform="matrix(1 0 0 1.00002 189.508 60)"/><path d="M524.51 372.113C527.03 372.113 530.51 370.913 532.07 368.873 527.99 365.873 524.63 361.793 521.99 356.993 516.59 354.593 509.991 352.073 504.111 349.793 505.791 355.553 506.871 361.433 506.751 367.073 514.79 369.713 522.59 372.113 524.51 372.113Z" fill="#EACEC7" transform="matrix(1 0 0 1.00002 189.508 60)"/><path d="M515.99 308.874 503.631 312.834 491.271 316.794C491.271 316.794 539.03 382.673 488.631 398.633L490.431 401.273 527.87 389.393 565.43 377.513 565.189 374.393C514.91 390.353 515.99 308.874 515.99 308.874Z" fill="#FFD961" transform="matrix(1 0 0 1.00002 189.508 60)"/><path d="M323.394 217.556C323.394 213.956 324.474 210.356 326.874 206.996 329.634 203.276 332.754 200.756 336.594 199.316 342.114 190.796 346.914 182.877 346.914 182.877L345.714 182.157C343.394 182.157 341.114 182.317 338.874 182.637 337.434 182.797 336.074 183.077 334.794 183.477 328.554 190.796 317.634 203.636 314.634 206.156 313.794 206.876 311.634 207.956 308.874 209.276 307.314 215.156 307.434 221.396 309.114 227.516 313.674 224.636 317.874 221.996 320.034 220.796 320.874 220.196 322.074 219.116 323.394 217.556Z" fill="#DDE4ED" transform="matrix(1 0 0 1.00002 189.508 60)"/><path d="M515.99 308.874 503.631 312.834 491.271 316.794C491.271 316.794 495.111 321.954 499.311 329.754 499.471 329.754 499.591 329.714 499.671 329.634 506.031 327.594 511.67 324.834 516.59 321.234 515.87 313.914 515.99 308.874 515.99 308.874Z" fill="#FFB345" transform="matrix(1 0 0 1.00002 189.508 60)"/><path d="M375.473 255.355C356.873 261.235 339.234 256.315 327.234 245.995 310.674 231.596 306.834 209.996 318.114 194.396 324.474 185.877 332.754 180.717 342.714 179.277 365.273 175.917 388.553 193.196 389.513 193.916L380.153 206.396C379.913 206.276 361.073 192.356 344.994 194.756 339.234 195.596 334.554 198.476 330.714 203.636 323.514 213.596 328.674 226.556 337.434 234.116 356.273 250.315 379.313 239.876 393.233 225.956L404.272 236.996C394.793 246.475 384.953 252.355 375.473 255.355Z" fill="#FFD961" transform="matrix(1 0 0 1.00002 189.508 60)"/><path d="M375.473 255.355C356.873 261.235 339.234 256.315 327.234 245.995 310.674 231.596 306.834 209.996 318.114 194.396 324.474 185.877 332.754 180.717 342.714 179.277 365.273 175.917 388.553 193.196 389.513 193.916L380.153 206.396C379.913 206.276 361.073 192.356 344.994 194.756 339.234 195.596 334.554 198.476 330.714 203.636 323.514 213.596 328.674 226.556 337.434 234.116 356.273 250.315 379.313 239.876 393.233 225.956L404.272 236.996C394.793 246.475 384.953 252.355 375.473 255.355Z" fill="#FFF1D2" transform="matrix(1 0 0 1.00002 189.508 60)"/><path d="M386.633 231.716C389.033 236.356 391.593 240.995 394.313 245.635 397.673 243.155 400.993 240.276 404.272 236.996L393.233 225.956C391.193 227.996 389.033 229.916 386.633 231.716Z" fill="#FFF1D2" transform="matrix(1 0 0 1.00002 189.508 60)"/><path d="M363.713 181.077C366.113 187.197 368.873 194.156 372.113 201.476 376.913 203.996 380.033 206.396 380.153 206.396L389.513 193.916C388.793 193.436 377.873 185.157 363.713 181.077Z" fill="#FFF1D2" transform="matrix(1 0 0 1.00002 189.508 60)"/><path d="M386.633 231.716C389.033 236.356 391.593 240.995 394.313 245.635 397.673 243.155 400.993 240.276 404.272 236.996L393.233 225.956C391.193 227.996 389.033 229.916 386.633 231.716Z" fill="#FFF1D2" transform="matrix(1 0 0 1.00002 189.508 60)"/><path d="M363.713 181.077C366.113 187.197 368.873 194.156 372.113 201.476 376.913 203.996 380.033 206.396 380.153 206.396L389.513 193.916C388.793 193.436 377.873 185.157 363.713 181.077Z" fill="#FFF1D2" transform="matrix(1 0 0 1.00002 189.508 60)"/><path d="M575.749 191.876C594.349 185.997 605.869 171.837 609.709 156.477 615.109 135.117 605.749 115.198 587.509 109.078 577.429 105.718 567.709 106.318 558.71 110.878 538.31 121.198 529.19 148.557 528.83 149.757L543.71 154.557C543.83 154.317 551.15 132.118 565.789 124.798 570.949 122.158 576.469 121.918 582.469 123.958 594.229 127.798 597.349 141.357 594.589 152.637 588.469 176.757 563.63 181.437 544.19 178.077L541.55 193.556C554.75 195.836 566.149 194.876 575.749 191.876Z" fill="#FFD252" transform="matrix(1 0 0 1.00002 189.508 60)"/><path d="M534.95 96.5982 445.792 124.798 356.633 153.117C356.633 153.117 416.512 347.634 507.231 318.954 597.949 290.155 534.95 96.5982 534.95 96.5982Z" fill="#FFD252" transform="matrix(1 0 0 1.00002 189.508 60)"/><path d="M445.792 124.918 423.592 132.238 401.393 139.317 356.753 153.597 357.113 152.877C358.673 157.797 360.353 162.717 362.033 167.517 363.793 172.397 365.593 177.237 367.433 182.037L367.793 182.877 366.953 182.637C359.633 179.997 351.833 178.557 344.154 179.397 340.314 179.877 336.594 180.717 332.994 182.397 329.514 183.957 326.274 186.117 323.514 188.756 320.634 191.396 318.114 194.396 316.194 197.756 314.274 201.116 312.954 204.836 312.354 208.676 311.034 216.356 312.474 224.276 315.954 231.116 319.434 238.076 324.834 243.955 331.074 248.395 337.434 252.955 344.754 255.835 352.433 256.915 359.993 257.875 367.913 257.155 375.233 254.875 382.553 252.475 389.393 248.755 395.513 243.955L395.993 243.475 396.353 244.195C402.473 254.635 408.952 264.835 416.152 274.435 423.472 284.035 431.512 293.035 440.632 300.954 449.752 308.754 460.071 315.354 471.591 318.954 477.351 320.634 483.471 321.594 489.471 321.594 495.471 321.594 501.471 320.634 507.231 318.834L507.231 318.954C501.591 320.874 495.471 321.954 489.471 322.074 483.351 322.194 477.231 321.234 471.471 319.554 459.711 316.074 449.272 309.474 439.912 301.674 430.672 293.875 422.512 284.755 415.192 275.155 407.872 265.435 401.273 255.235 395.273 244.795L396.233 244.915C390.113 249.715 383.033 253.555 375.593 255.955 368.033 258.235 359.993 259.075 352.193 257.875 344.514 256.675 336.954 253.675 330.594 249.115 324.354 244.435 318.954 238.436 315.474 231.476 311.994 224.396 310.554 216.356 311.874 208.556 312.594 204.716 313.914 200.996 315.954 197.636 317.874 194.156 320.274 191.156 323.154 188.396 326.034 185.757 329.274 183.477 332.874 181.917 336.354 180.237 340.194 179.277 344.154 178.797 351.953 177.837 359.873 179.277 367.193 181.797L366.713 182.397C364.793 177.597 362.953 172.757 361.193 167.877 359.393 163.077 357.713 158.157 356.153 153.237L356.033 152.757 356.513 152.637 401.152 138.597 423.472 131.638 445.792 124.798Z" fill="#FFB345" transform="matrix(1 0 0 1.00002 189.508 60)"/><path d="M337.434 234.116C334.794 231.836 332.394 229.196 330.594 226.076 328.794 223.076 327.474 219.716 326.994 216.116 326.514 212.516 327.234 208.796 328.914 205.676 329.754 203.996 330.834 202.556 332.034 201.236 333.234 199.916 334.674 198.716 336.114 197.636 339.114 195.596 342.714 194.516 346.194 194.276 349.793 193.916 353.393 194.396 356.753 195.236 363.713 196.916 370.193 199.916 376.313 203.396L376.313 203.516 376.433 203.636C380.513 212.396 384.233 221.396 388.793 230.036L389.033 230.396 388.553 230.756C384.953 233.756 381.113 236.396 376.793 238.436 372.593 240.596 368.033 242.035 363.353 242.635 358.673 243.235 353.873 242.755 349.434 241.196 344.994 239.636 340.914 237.236 337.434 234.116ZM337.554 234.116C341.034 236.996 345.114 239.516 349.553 240.716 353.993 242.035 358.673 242.275 363.233 241.555 367.793 240.956 372.113 239.396 376.313 237.356 380.393 235.316 384.233 232.676 387.833 229.796L387.713 230.636C385.473 226.236 383.393 221.796 381.473 217.316 379.553 212.876 377.753 208.316 375.833 203.876L375.953 203.996C372.953 202.076 369.833 200.396 366.713 198.956 363.473 197.516 360.113 196.316 356.753 195.596 353.273 194.876 349.793 194.516 346.314 194.876 342.834 195.236 339.474 196.436 336.714 198.476 333.954 200.516 331.554 203.156 329.874 206.156 328.194 209.156 327.474 212.636 327.714 215.996 328.074 219.476 329.154 222.836 330.834 225.956 332.514 229.076 334.914 231.716 337.554 234.116Z" fill="#FFB345" transform="matrix(1 0 0 1.00002 189.508 60)"/><path d="M519.83 291.235C449.992 313.434 415.192 194.396 402.833 138.477L356.633 153.117C356.633 153.117 416.512 347.634 507.231 318.954 531.11 311.394 544.31 292.435 550.91 268.555 543.47 278.995 533.39 286.915 519.83 291.235Z" fill="#FFF1D2" transform="matrix(1 0 0 1.00002 189.508 60)"/><path d="M571.069 375.713 484.671 403.072C483.591 403.432 483.111 404.752 483.711 405.712L486.951 411.352 573.949 383.753 573.469 377.273C573.349 376.073 572.149 375.353 571.069 375.713Z" fill="#FFB345" transform="matrix(1 0 0 1.00002 189.508 60)"/><path d="M485.031 404.152 571.429 376.793C572.269 376.553 572.989 376.793 573.469 377.513L573.469 377.273C573.349 376.073 572.149 375.353 571.069 375.713L484.671 403.072C483.591 403.432 483.111 404.752 483.711 405.712L483.711 405.952C483.711 405.112 484.191 404.392 485.031 404.152Z" fill="#FCC67E" transform="matrix(1 0 0 1.00002 189.508 60)"/><path d="M531.59 70.5587 344.394 129.838C343.434 130.198 342.834 131.278 343.194 132.358L349.793 153.237C350.033 154.197 351.233 154.797 352.193 154.437L539.39 95.1582C540.35 94.9182 540.95 93.7183 540.71 92.7583L533.99 71.8787C533.75 70.7987 532.55 70.1987 531.59 70.5587Z" fill="#FFB345" transform="matrix(1 0 0 1.00002 189.508 60)"/><path d="M536.87 91.4383 352.073 149.877C350.393 150.477 348.594 149.517 347.993 147.837L349.434 152.037C349.913 153.717 351.713 154.677 353.393 154.077L538.19 95.6382C539.87 95.0382 540.83 93.2383 540.23 91.5583L538.91 87.3584C539.51 89.0383 538.55 90.8383 536.87 91.4383Z" fill="#FFF1D2" transform="matrix(1 0 0 1.00002 189.508 60)"/><path d="M539.99 226.316C543.11 248.515 533.51 268.195 518.63 270.235 503.871 272.275 489.351 255.955 486.351 233.756 483.231 211.556 492.831 191.876 507.591 189.836 522.47 187.796 536.99 204.236 539.99 226.316Z" fill="#F7FDFD" transform="matrix(1 0 0 1.00002 189.508 60)"/><path d="M583.549 380.753 476.031 414.832C474.591 415.192 473.991 416.752 474.471 417.952L491.871 461.151C492.351 462.231 493.551 462.951 494.751 462.591L594.469 432.952C595.669 432.592 596.389 431.392 596.149 430.192L586.669 382.553C586.309 381.113 584.869 380.273 583.549 380.753Z" fill="#7EACED" transform="matrix(1 0 0 1.00002 189.508 60)"/><path d="M583.549 380.633C584.269 380.393 585.349 380.633 585.949 381.233 586.669 381.833 586.789 382.793 586.909 383.513L587.989 388.553 590.029 398.513 594.109 418.552 596.149 428.632 596.509 429.832C596.509 430.192 596.629 430.792 596.509 431.272 596.269 432.232 595.549 433.072 594.589 433.312L589.669 434.872 570.109 440.632 530.87 452.272 511.31 458.031 501.471 460.911 496.551 462.351C495.711 462.471 494.991 462.951 494.031 462.951 493.071 462.831 492.111 462.351 491.751 461.391 486.591 448.792 481.671 436.072 476.511 423.472L474.591 418.792C474.351 418.312 474.231 417.952 474.111 417.472 474.031 416.992 474.071 416.552 474.231 416.152 474.591 415.312 475.431 414.592 476.271 414.472L485.991 411.352 505.431 405.112C518.39 400.793 531.47 396.833 544.43 392.753ZM583.669 380.753 544.67 393.353C531.71 397.553 518.75 401.753 505.791 405.712L486.231 411.832 476.511 414.832C475.671 415.072 475.071 415.552 474.711 416.272 474.471 417.112 474.711 417.832 475.071 418.552L476.871 423.352C481.911 435.952 487.191 448.672 492.231 461.151 492.591 461.871 493.311 462.351 494.031 462.351 494.751 462.351 495.711 461.991 496.431 461.751L501.351 460.311 511.19 457.311 530.75 451.432 569.869 439.792 589.429 433.912 594.349 432.592C595.069 432.352 595.669 431.752 595.789 431.032 596.029 430.432 595.669 429.592 595.549 428.752L593.629 418.672 589.789 398.633 587.749 388.553 586.789 383.633C586.669 382.793 586.549 381.833 585.949 381.353 585.349 380.753 584.389 380.513 583.669 380.753Z" fill="#5B92D3" transform="matrix(1 0 0 1.00002 189.508 60)"/><path d="M567.589 395.513 497.511 417.712C496.671 417.952 496.191 418.912 496.551 419.752L507.831 447.832C508.191 448.672 509.031 449.032 509.75 448.792L574.669 429.472C575.509 429.232 575.989 428.512 575.749 427.672L569.629 396.713C569.389 395.753 568.429 395.153 567.589 395.513Z" fill="#E1EBF9" transform="matrix(1 0 0 1.00002 189.508 60)"/><path d="M482.871 272.635C482.751 272.515 482.631 272.635 482.511 272.755 480.951 276.835 476.151 277.435 471.951 277.195 471.871 277.195 471.831 277.155 471.831 277.075 472.631 277.075 473.471 277.035 474.351 276.955 486.831 275.755 478.551 261.835 453.352 261.955 453.352 261.955 437.632 261.475 439.312 270.235 437.872 268.075 437.992 264.595 437.992 264.595 438.112 264.475 437.992 264.355 437.872 264.355 437.752 264.355 437.632 264.355 437.632 264.475 437.632 264.715 437.392 268.075 438.832 270.355 437.632 269.875 436.072 269.635 434.752 270.715 434.632 270.835 434.632 270.955 434.752 271.075 434.752 271.075 434.792 271.075 434.872 271.075 434.952 271.155 434.992 271.155 434.992 271.075 436.312 269.995 437.632 270.235 438.712 270.715 436.912 271.075 432.232 272.875 439.312 284.275L439.432 284.275C438.592 283.915 437.632 283.795 436.672 284.395 433.312 286.315 436.192 293.275 441.952 291.715 442.032 292.115 442.192 292.515 442.432 292.915 441.352 294.954 440.032 297.354 438.712 299.514 443.032 303.354 447.472 306.834 452.032 309.834L453.832 307.434C455.992 308.514 458.511 308.994 461.151 308.634 470.391 307.194 472.311 289.555 472.071 278.995 471.991 278.515 471.951 278.075 471.951 277.675 472.111 277.675 472.271 277.675 472.431 277.675 478.071 277.915 481.671 276.235 482.991 272.875 482.991 272.755 482.991 272.635 482.871 272.635ZM439.552 284.395 439.792 284.515C439.792 284.515 439.792 284.515 439.792 284.515 439.712 284.435 439.632 284.395 439.552 284.395Z" fill="#FFF1D2" transform="matrix(1 0 0 1.00002 189.508 60)"/><path d="M482.871 272.635C482.751 272.515 482.631 272.635 482.511 272.755 480.951 276.835 476.151 277.435 471.951 277.195 471.871 277.195 471.831 277.155 471.831 277.075 472.631 277.075 473.471 277.035 474.351 276.955 486.831 275.755 478.551 261.835 453.352 261.955 453.352 261.955 437.632 261.475 439.312 270.235 437.872 268.075 437.992 264.595 437.992 264.595 438.112 264.475 437.992 264.355 437.872 264.355 437.752 264.355 437.632 264.355 437.632 264.475 437.632 264.715 437.392 268.075 438.832 270.355 437.632 269.875 436.072 269.635 434.752 270.715 434.632 270.835 434.632 270.955 434.752 271.075 434.752 271.075 434.792 271.075 434.872 271.075 434.952 271.155 434.992 271.155 434.992 271.075 436.312 269.995 437.632 270.235 438.712 270.715 436.912 271.075 432.232 272.875 439.312 284.275L439.432 284.275C438.592 283.915 437.632 283.795 436.672 284.395 433.312 286.315 436.192 293.275 441.952 291.715 442.032 292.115 442.192 292.515 442.432 292.915 441.352 294.954 440.032 297.354 438.712 299.514 443.032 303.354 447.472 306.834 452.032 309.834L453.832 307.434C455.992 308.514 458.511 308.994 461.151 308.634 470.391 307.194 472.311 289.555 472.071 278.995 471.991 278.515 471.951 278.075 471.951 277.675 472.111 277.675 472.271 277.675 472.431 277.675 478.071 277.915 481.671 276.235 482.991 272.875 482.991 272.755 482.991 272.635 482.871 272.635ZM439.552 284.395 439.792 284.515C439.792 284.515 439.792 284.515 439.792 284.515 439.712 284.435 439.632 284.395 439.552 284.395Z" fill="#FFF1D2" transform="matrix(1 0 0 1.00002 189.508 60)"/><path d="M482.871 272.635C482.751 272.515 482.631 272.635 482.511 272.755 480.951 276.835 476.151 277.435 471.951 277.195 471.871 277.195 471.831 277.155 471.831 277.075 472.631 277.075 473.471 277.035 474.351 276.955 486.831 275.755 478.551 261.835 453.352 261.955 453.352 261.955 437.632 261.475 439.312 270.235 437.872 268.075 437.992 264.595 437.992 264.595 438.112 264.475 437.992 264.355 437.872 264.355 437.752 264.355 437.632 264.355 437.632 264.475 437.632 264.715 437.392 268.075 438.832 270.355 437.632 269.875 436.072 269.635 434.752 270.715 434.632 270.835 434.632 270.955 434.752 271.075 434.752 271.075 434.792 271.075 434.872 271.075 434.952 271.155 434.992 271.155 434.992 271.075 436.312 269.995 437.632 270.235 438.712 270.715 436.912 271.075 432.232 272.875 439.312 284.275L439.432 284.275C438.592 283.915 437.632 283.795 436.672 284.395 433.312 286.315 436.192 293.275 441.952 291.715 442.032 292.115 442.192 292.515 442.432 292.915 441.352 294.954 440.032 297.354 438.712 299.514 443.032 303.354 447.472 306.834 452.032 309.834L453.832 307.434C455.992 308.514 458.511 308.994 461.151 308.634 470.391 307.194 472.311 289.555 472.071 278.995 471.991 278.515 471.951 278.075 471.951 277.675 472.111 277.675 472.271 277.675 472.431 277.675 478.071 277.915 481.671 276.235 482.991 272.875 482.991 272.755 482.991 272.635 482.871 272.635ZM439.552 284.395 439.792 284.515C439.792 284.515 439.792 284.515 439.792 284.515 439.712 284.435 439.632 284.395 439.552 284.395Z" fill="#FFF1D2" transform="matrix(1 0 0 1.00002 189.508 60)"/><path d="M422.872 404.872C422.872 404.872 464.391 447.472 467.151 459.951 470.631 475.551 465.471 543.23 465.471 543.23L455.992 544.79C455.992 544.79 450.952 472.311 447.352 465.951 443.752 459.711 392.993 414.112 392.993 414.112" fill="#423A42" transform="matrix(1 0 0 1.00002 189.508 60)"/><path d="M465.351 546.71C465.351 546.71 470.271 552.71 479.871 554.51L479.151 557.63 455.632 557.87C455.632 557.87 455.751 549.95 456.112 546.35" fill="#9FC1F4" transform="matrix(1 0 0 1.00002 189.508 60)"/><path d="M318.234 545.87C318.234 545.87 318.594 551.03 321.834 556.67L320.394 558.47 304.074 553.55C304.074 553.55 307.554 544.79 309.234 541.19" fill="#9FC1F4" transform="matrix(1 0 0 1.00002 189.508 60)"/><path d="M426.112 409.192C426.112 409.192 417.592 416.632 396.593 417.832 396.593 417.832 387.713 437.512 372.353 471.351 355.913 501.471 321.474 542.15 321.474 542.15L311.274 539.03C311.274 539.03 332.034 506.991 351.593 465.591 359.033 436.912 367.073 406.192 375.353 389.033" fill="#423A42" transform="matrix(1 0 0 1.00002 189.508 60)"/><path d="M402.592 414.712C402.352 414.712 402.233 414.592 402.233 414.352 402.113 414.112 402.352 413.872 402.473 413.872L406.552 413.152 408.112 404.992C408.112 404.752 408.352 404.632 408.592 404.632 408.832 404.752 408.952 404.872 408.832 405.112L407.272 413.872 402.712 414.712C402.632 414.712 402.592 414.712 402.592 414.712Z" fill="#848484" transform="matrix(1 0 0 1.00002 189.508 60)"/><path d="M454.432 542.99 455.512 547.31 466.671 546.95 466.911 541.67Z" fill="#7C717C" transform="matrix(1 0 0 1.00002 189.508 60)"/><path d="M446.392 287.155C446.392 287.155 443.512 281.995 440.272 283.915 436.672 286.075 440.392 294.115 447.232 290.515" fill="#FCB9A7" transform="matrix(1 0 0 1.00002 189.508 60)"/><path d="M445.672 288.595C445.672 288.595 445.632 288.595 445.552 288.595 443.512 287.155 441.352 287.995 441.352 287.995 441.232 288.115 441.112 287.995 441.112 287.875 440.992 287.875 441.112 287.755 441.232 287.635 441.352 287.635 443.512 286.675 445.792 288.235 445.912 288.355 445.912 288.475 445.912 288.475 445.832 288.555 445.752 288.595 445.672 288.595Z" fill="#FF765F" transform="matrix(1 0 0 1.00002 189.508 60)"/><path d="M443.032 303.594C443.032 303.594 423.472 300.714 418.072 301.074 412.672 301.434 401.753 338.274 401.753 338.274 401.753 338.274 372.953 386.033 373.313 389.033 373.793 393.473 427.792 412.912 431.512 412.192 433.192 412.432 450.232 363.953 458.391 356.033 464.631 343.434 470.271 328.434 469.791 327.114 468.711 323.514 458.631 313.914 455.032 311.274" fill="#D6473C" transform="matrix(1 0 0 1.00002 189.508 60)"/><path d="M443.392 329.874C449.872 332.154 453.712 320.154 455.151 314.154 455.272 313.674 455.151 313.074 454.672 312.594 454.032 312.114 453.512 311.714 453.112 311.394 453.032 311.314 452.992 311.274 452.992 311.274L441.232 303.834C441.072 303.754 440.872 303.674 440.632 303.594 440.152 303.594 439.192 303.474 437.872 303.234 436.912 303.114 436.072 303.834 436.072 304.794 436.072 311.394 436.552 327.474 443.392 329.874Z" fill="#FCB9A7" transform="matrix(1 0 0 1.00002 189.508 60)"/><path d="M448.792 287.035C448.792 287.035 443.152 298.314 439.312 304.074 439.312 304.074 439.672 321.234 444.712 323.634 449.632 326.034 454.312 311.274 454.312 311.274L458.391 305.634Z" fill="#FCB9A7" transform="matrix(1 0 0 1.00002 189.508 60)"/><path d="M475.671 278.515C476.031 289.075 473.991 306.714 464.751 308.154 450.952 310.314 443.152 288.715 442.912 279.595 442.672 270.475 449.872 262.795 459.231 262.435 468.591 262.195 475.311 268.555 475.671 278.515Z" fill="#FCB9A7" transform="matrix(1 0 0 1.00002 189.508 60)"/><path d="M466.791 289.915C466.671 289.915 466.671 289.915 466.671 289.795 466.671 289.675 466.671 289.555 466.791 289.555L469.911 289.315C470.151 289.315 470.511 289.195 470.751 288.835 470.871 288.595 470.991 288.235 470.871 287.995L468.351 279.115C468.351 278.995 468.351 278.875 468.471 278.875 468.591 278.755 468.711 278.875 468.711 278.995L471.231 287.875C471.351 288.235 471.351 288.715 470.991 289.075 470.751 289.435 470.391 289.675 469.911 289.795L466.791 289.915C466.791 289.915 466.791 289.915 466.791 289.915Z" fill="#FF765F" transform="matrix(1 0 0 1.00002 189.508 60)"/><path d="M454.192 355.553C454.192 355.553 454.192 355.553 454.192 355.553 436.672 349.193 423.112 347.754 422.992 347.754 422.912 347.674 422.872 347.634 422.872 347.634 422.872 347.554 422.912 347.514 422.992 347.514 422.992 347.514 422.992 347.514 422.992 347.514 422.992 347.514 426.472 347.874 431.992 349.073 437.032 350.033 445.072 352.073 454.192 355.313 454.272 355.393 454.312 355.433 454.312 355.433 454.232 355.513 454.192 355.553 454.192 355.553Z" fill="#FFFFFF" transform="matrix(1 0 0 1.00002 189.508 60)"/><path d="M454.192 355.553C454.112 355.553 454.072 355.553 454.072 355.553 435.832 347.993 418.432 343.554 418.192 343.554 418.192 343.474 418.192 343.434 418.192 343.434 418.192 343.354 418.232 343.314 418.312 343.314 418.432 343.314 435.952 347.754 454.192 355.313 454.272 355.393 454.272 355.433 454.192 355.433 454.192 355.513 454.192 355.553 454.192 355.553Z" fill="#FFFFFF" transform="matrix(1 0 0 1.00002 189.508 60)"/><path d="M443.632 334.914C440.272 334.914 437.632 332.274 437.512 332.274 437.512 332.194 437.512 332.154 437.512 332.154 437.592 332.074 437.632 332.074 437.632 332.154 437.752 332.154 440.392 334.674 443.632 334.674 443.712 334.674 443.832 334.674 443.992 334.674 445.992 334.514 447.792 333.394 449.392 331.314 449.472 331.234 449.512 331.234 449.512 331.314 449.592 331.314 449.592 331.354 449.512 331.434 447.912 333.594 446.072 334.754 443.992 334.914 443.912 334.914 443.792 334.914 443.632 334.914Z" fill="#FFFFFF" transform="matrix(1 0 0 1.00002 189.508 60)"/><path d="M460.191 280.795C460.191 280.795 462.111 278.875 463.671 279.355 463.671 279.355 461.751 275.515 460.191 280.795Z" fill="#423A42" transform="matrix(1 0 0 1.00002 189.508 60)"/><path d="M472.311 278.995C472.311 278.995 473.631 278.635 474.591 279.835 474.591 279.835 473.991 276.115 472.311 278.995Z" fill="#423A42" transform="matrix(1 0 0 1.00002 189.508 60)"/><path d="M303.834 553.19 321.114 558.23 320.394 558.95 303.714 553.67Z" fill="#332A24" transform="matrix(1 0 0 1.00002 189.508 60)"/><path d="M319.914 551.63C319.834 551.63 319.794 551.59 319.794 551.51 318.954 550.55 316.194 550.19 314.274 550.07 312.714 549.95 312.114 549.83 311.994 549.47 311.994 549.23 312.354 548.99 312.474 548.99 313.434 548.39 315.234 548.63 316.914 548.87 317.754 548.99 318.954 549.11 319.194 548.99 319.114 548.99 319.074 548.91 319.074 548.75 318.594 548.15 316.434 548.27 314.634 548.27 312.834 548.27 311.754 548.39 311.514 547.91 311.394 547.91 311.394 547.67 311.394 547.55 311.634 546.83 313.434 546.83 317.154 547.07 317.514 547.07 317.994 547.07 318.474 547.07 315.714 546.35 311.514 545.87 311.394 545.87 311.274 545.87 311.274 545.75 311.274 545.63 311.274 545.51 311.394 545.51 311.514 545.51 311.514 545.51 316.194 545.99 318.954 546.83 319.314 546.95 319.554 547.07 319.554 547.31 319.434 547.55 319.314 547.55 317.154 547.43 315.594 547.31 311.994 547.19 311.754 547.67 311.874 547.91 313.674 547.91 314.634 547.91 316.674 547.79 318.714 547.79 319.314 548.51 319.554 548.75 319.634 548.95 319.554 549.11 319.314 549.47 318.474 549.47 316.914 549.23 315.354 549.11 313.434 548.87 312.594 549.35 312.594 549.35 312.554 549.35 312.474 549.35 312.834 549.47 313.674 549.59 314.394 549.71 316.434 549.83 319.074 550.07 320.034 551.27 320.154 551.39 320.154 551.51 320.034 551.63 320.034 551.63 319.994 551.63 319.914 551.63Z" fill="#332A24" transform="matrix(1 0 0 1.00002 189.508 60)"/><path d="M455.272 558.11 479.631 557.87 479.871 557.03 455.272 557.63Z" fill="#332A24" transform="matrix(1 0 0 1.00002 189.508 60)"/><path d="M466.071 552.47C466.071 552.47 466.071 552.47 466.071 552.47 465.911 552.47 465.751 552.35 465.591 552.11 465.231 551.51 466.071 550.55 466.791 549.71 467.271 549.23 467.751 548.75 467.751 548.51 467.511 548.27 466.551 549.11 466.071 549.47 465.231 550.19 464.751 550.67 464.271 550.55 464.151 550.55 464.031 550.43 464.031 550.19 463.791 549.35 464.871 548.39 465.711 547.79 465.871 547.71 465.991 547.63 466.071 547.55 465.231 547.67 463.671 548.39 462.111 548.99 461.991 548.99 461.871 548.99 461.871 548.87 461.751 548.75 461.871 548.63 461.991 548.63 462.591 548.27 465.951 546.95 466.551 547.07 466.671 547.07 466.671 547.19 466.791 547.19 466.791 547.43 466.551 547.55 466.071 548.03 465.351 548.63 464.151 549.59 464.391 550.07 464.391 550.15 464.391 550.19 464.391 550.19 464.631 550.19 465.351 549.59 465.831 549.23 466.791 548.39 467.511 547.79 467.991 548.15 468.071 548.23 468.151 548.35 468.231 548.51 468.231 548.87 467.751 549.35 467.151 550.07 466.551 550.67 465.711 551.51 465.951 551.99 466.031 551.99 466.071 551.99 466.071 551.99 466.071 551.99 466.071 551.99 466.071 551.99 466.671 551.99 468.231 550.31 468.951 549.23 469.071 549.11 469.191 549.11 469.191 549.23 469.311 549.23 469.311 549.35 469.311 549.47 468.951 549.95 467.151 552.47 466.071 552.47Z" fill="#332A24" transform="matrix(1 0 0 1.00002 189.508 60)"/><path d="M406.552 381.113C406.552 381.433 406.632 381.553 406.792 381.473 406.712 381.393 406.632 381.273 406.552 381.113Z" fill="url(#fill1)" transform="matrix(1 0 0 1.00002 189.508 60)"/><path d="M440.992 328.194 433.912 334.194 432.592 329.034Z" fill="#EACEC7" transform="matrix(1 0 0 1.00002 189.508 60)"/><path d="M447.232 329.514 449.992 336.954 452.152 331.794Z" fill="#EACEC7" transform="matrix(1 0 0 1.00002 189.508 60)"/><path d="M440.992 328.194 431.752 331.794C431.752 331.794 428.632 299.754 439.672 303.474 439.672 303.474 431.872 309.234 440.992 328.194Z" fill="#FFFFFF" transform="matrix(1 0 0 1.00002 189.508 60)"/><path d="M447.232 329.514 451.312 335.034C451.312 335.034 459.711 317.514 454.672 312.594 454.672 312.594 454.432 323.874 447.232 329.514Z" fill="#FFFFFF" transform="matrix(1 0 0 1.00002 189.508 60)"/><path d="M438.472 270.595C438.392 270.595 438.352 270.595 438.352 270.595 438.232 270.475 438.232 270.355 438.352 270.235 439.672 269.035 441.232 269.275 442.432 269.875 440.992 267.595 441.232 264.235 441.232 263.995 441.232 263.875 441.352 263.755 441.472 263.755 441.592 263.755 441.712 263.875 441.712 263.995 441.712 264.115 441.352 268.315 443.512 270.355 443.992 270.715 444.232 270.955 444.232 270.955L445.672 272.155 443.992 271.315C443.672 271.155 443.392 270.955 443.152 270.715 442.072 269.995 440.272 269.275 438.712 270.595 438.632 270.595 438.552 270.595 438.472 270.595Z" fill="#423A42" transform="matrix(1 0 0 1.00002 189.508 60)"/><path d="M455.272 277.075C455.272 276.995 455.272 276.955 455.272 276.955 455.151 276.955 455.151 276.835 455.151 276.715 456.951 272.635 454.912 269.275 454.912 269.275 454.912 269.155 454.912 269.035 455.032 268.915 455.151 268.915 455.272 268.915 455.272 269.035 455.392 269.155 457.431 272.635 455.512 276.835 455.512 276.955 455.392 277.075 455.272 277.075Z" fill="#423A42" transform="matrix(1 0 0 1.00002 189.508 60)"/><path d="M467.991 275.755C467.991 275.755 467.991 275.755 467.991 275.755 467.871 275.755 467.751 275.635 467.871 275.515 467.871 275.395 467.991 275.275 468.111 275.395 468.111 275.395 468.111 275.395 468.111 275.395 468.711 275.515 483.231 279.835 486.231 272.155 486.231 272.035 486.351 272.035 486.471 272.035 486.591 272.155 486.711 272.275 486.591 272.395 485.271 275.755 481.671 277.435 476.031 277.195 472.071 276.955 468.351 275.875 467.991 275.755Z" fill="#423A42" transform="matrix(1 0 0 1.00002 189.508 60)"/><path d="M474.831 292.075C474.471 291.955 471.591 290.755 465.711 290.395 461.031 290.155 453.112 293.395 448.552 291.115 445.672 288.955 445.312 285.235 445.312 285.235L445.072 285.115C445.072 285.115 444.232 284.755 444.352 285.835 444.352 286.075 444.712 288.115 445.432 290.995 448.792 300.114 455.392 309.594 464.751 308.154 470.511 307.194 473.511 299.994 474.831 292.075Z" fill="#D3D1D1" transform="matrix(1 0 0 1.00002 189.508 60)"/><path d="M399.353 419.872 397.073 417.832C397.073 417.832 405.832 417.112 412.192 415.432 412.192 415.432 406.432 418.192 399.353 419.872Z" fill="#2D262D" transform="matrix(1 0 0 1.00002 189.508 60)"/><path d="M457.671 539.63C457.551 539.63 457.431 539.51 457.431 539.51 457.431 538.79 454.192 472.551 452.032 465.231 449.992 458.031 408.712 421.312 408.232 420.952 408.232 420.832 408.232 420.712 408.232 420.592 408.352 420.592 408.472 420.592 408.592 420.592 410.272 422.152 450.352 457.791 452.512 465.111 454.552 472.431 457.671 536.75 457.911 539.39 457.911 539.51 457.791 539.63 457.671 539.63 457.671 539.63 457.671 539.63 457.671 539.63Z" fill="#848484" transform="matrix(1 0 0 1.00002 189.508 60)"/><path d="M449.872 465.831C449.792 465.831 449.712 465.831 449.632 465.831 449.632 465.711 449.632 465.591 449.752 465.471 452.392 463.431 454.792 462.111 454.912 461.991 454.912 461.991 455.032 461.991 455.151 462.111 455.151 462.231 455.151 462.351 455.032 462.351 455.032 462.471 452.632 463.791 449.992 465.831 449.912 465.831 449.872 465.831 449.872 465.831Z" fill="#848484" transform="matrix(1 0 0 1.00002 189.508 60)"/><path d="M467.391 293.275C465.831 292.915 463.311 293.635 463.311 293.635 463.311 293.635 463.191 297.474 464.751 297.714 466.191 297.954 467.391 293.275 467.391 293.275Z" fill="#FFFFFF" transform="matrix(1 0 0 1.00002 189.508 60)"/><path d="M461.271 285.835C461.271 285.835 461.271 285.835 461.271 285.835 461.151 285.835 461.151 285.715 461.151 285.595 461.151 285.115 461.391 280.915 462.831 280.435 463.071 280.435 463.271 280.475 463.431 280.555 464.511 281.275 464.871 284.755 464.991 285.115 464.991 285.235 464.871 285.355 464.751 285.355 464.631 285.355 464.511 285.235 464.511 285.115 464.391 284.155 464.031 281.395 463.191 280.915 463.111 280.835 463.031 280.835 462.951 280.915 462.111 281.155 461.631 283.915 461.511 285.595 461.511 285.715 461.391 285.835 461.271 285.835Z" fill="#332A24" transform="matrix(1 0 0 1.00002 189.508 60)"/><path d="M473.511 285.475C473.511 285.475 473.511 285.475 473.511 285.475 473.391 285.475 473.271 285.355 473.271 285.235 473.271 284.035 473.271 281.875 472.791 281.395 472.711 281.395 472.671 281.395 472.671 281.395 472.071 281.515 471.711 283.315 471.711 284.635 471.711 284.755 471.711 284.875 471.591 284.875 471.471 284.875 471.351 284.755 471.351 284.635 471.351 284.035 471.471 281.155 472.671 281.035 472.831 280.955 472.991 280.995 473.151 281.155 473.871 281.875 473.631 284.875 473.631 285.235 473.631 285.355 473.511 285.475 473.511 285.475Z" fill="#332A24" transform="matrix(1 0 0 1.00002 189.508 60)"/><path d="M444.472 286.795C444.472 286.795 448.552 282.835 447.592 274.555 447.592 274.555 454.312 282.715 455.632 270.595 455.632 270.595 465.471 277.675 477.951 276.475 490.431 275.155 482.271 261.355 456.951 261.475 456.951 261.475 440.632 260.875 443.032 270.235 443.032 270.235 434.272 269.995 443.032 283.675L443.392 283.915C443.392 283.915 443.992 285.835 444.472 286.795Z" fill="#423A42" transform="matrix(1 0 0 1.00002 189.508 60)"/><path d="M307.794 541.19 318.714 546.35 323.154 541.79 309.714 538.31Z" fill="#7C717C" transform="matrix(1 0 0 1.00002 189.508 60)"/><path d="M315.474 536.99C315.474 536.99 315.434 536.99 315.354 536.99 315.234 536.87 315.234 536.75 315.354 536.63 315.714 536.03 353.393 470.871 354.473 468.591 354.713 467.991 356.033 462.831 357.833 455.871 362.033 439.552 368.993 412.432 374.033 398.753 374.153 398.753 374.273 398.633 374.273 398.633 374.393 398.753 374.513 398.873 374.393 398.993 369.353 412.552 362.393 439.672 358.193 455.871 356.393 463.311 355.073 468.111 354.833 468.831 353.753 470.991 317.274 534.23 315.714 536.87 315.634 536.95 315.554 536.99 315.474 536.99Z" fill="#848484" transform="matrix(1 0 0 1.00002 189.508 60)"/><path d="M550.55 265.435C550.55 265.435 545.27 261.715 545.27 260.515 545.27 259.195 550.55 261.835 550.55 261.835 550.55 261.835 552.47 257.515 552.83 256.555 554.39 252.715 555.59 248.515 555.59 248.515 556.31 248.515 555.59 255.955 555.23 257.395 554.99 258.715 555.23 263.395 555.23 263.635" fill="#FCB9A7" transform="matrix(1 0 0 1.00002 189.508 60)"/><path d="M550.55 265.435C549.59 264.955 548.67 264.355 547.79 263.635 546.95 263.035 546.11 262.315 545.39 261.355 545.27 261.115 545.03 260.875 545.03 260.515 545.03 260.275 545.27 260.035 545.39 259.915 545.63 259.915 545.75 259.915 545.99 259.915 546.47 260.035 547.07 260.275 547.55 260.395 548.59 260.795 549.59 261.235 550.55 261.715L550.43 261.715C550.83 260.675 551.23 259.595 551.63 258.475 552.11 257.355 552.55 256.235 552.95 255.115L555.59 248.515 555.71 248.515C555.47 249.715 555.15 250.875 554.75 251.995 554.43 253.195 554.07 254.355 553.67 255.475 553.19 256.555 552.71 257.635 552.23 258.715 551.75 259.755 551.23 260.835 550.67 261.955L550.55 262.075 550.43 261.955C549.47 261.475 548.47 261.035 547.43 260.635 546.95 260.515 546.35 260.395 545.87 260.395 545.79 260.395 545.71 260.395 545.63 260.395 545.51 260.395 545.51 260.395 545.51 260.515 545.51 260.635 545.63 260.875 545.87 260.995 546.47 261.835 547.31 262.555 548.15 263.275L550.55 265.435Z" fill="#F79E1C" transform="matrix(1 0 0 1.00002 189.508 60)"/><path d="M589.069 394.793 586.909 384.113C586.549 389.993 586.309 393.713 586.309 393.713 587.269 394.113 588.189 394.473 589.069 394.793Z" fill="#5B92D3" transform="matrix(1 0 0 1.00002 189.508 60)"/><path d="M591.829 408.592C591.589 415.792 591.229 424.312 590.989 433.912L594.469 432.952C595.669 432.592 596.389 431.392 596.149 430.192Z" fill="#5B92D3" transform="matrix(1 0 0 1.00002 189.508 60)"/><path d="M284.395 309.354C284.395 309.354 284.635 372.473 278.635 480.111L268.315 479.511C268.315 479.511 264.835 393.713 257.035 313.794" fill="#594F59" transform="matrix(1 0 0 1.00002 189.508 60)"/><path d="M271.435 475.311C271.315 475.311 271.195 475.191 271.195 475.071 271.075 474.231 267.835 391.073 262.915 330.954 262.795 330.834 262.915 330.714 263.035 330.714 263.155 330.714 263.275 330.834 263.275 330.954 268.315 391.073 271.555 474.231 271.675 475.071 271.675 475.191 271.555 475.311 271.435 475.311 271.435 475.311 271.435 475.311 271.435 475.311Z" fill="#CEBACA" transform="matrix(1 0 0 1.00002 189.508 60)"/><path d="M258.115 325.434C258.115 325.434 244.075 383.633 236.636 395.033 229.196 406.432 169.557 442.432 169.557 442.432L163.917 433.192C163.917 433.192 216.716 386.393 219.596 379.313 222.476 372.353 231.356 304.434 231.356 304.434L276.835 302.394" fill="#594F59" transform="matrix(1 0 0 1.00002 189.508 60)"/><path d="M277.915 482.511C277.915 482.511 282.115 489.231 291.715 492.111L290.635 495.231 266.755 492.951C266.755 492.951 267.835 484.911 268.555 481.191" fill="#9FC1F4" transform="matrix(1 0 0 1.00002 189.508 60)"/><path d="M266.875 478.671 267.595 483.231 278.875 483.831 279.715 478.431Z" fill="#7F7A7F" transform="matrix(1 0 0 1.00002 189.508 60)"/><path d="M278.035 488.511C278.035 488.511 278.035 488.511 278.035 488.511 277.795 488.511 277.635 488.391 277.555 488.151 277.195 487.431 278.035 486.591 278.995 485.751 279.475 485.391 280.075 484.791 280.075 484.551 279.835 484.431 278.875 485.151 278.275 485.511 277.435 486.111 276.715 486.591 276.355 486.351 276.235 486.351 276.115 486.231 276.115 485.991 275.875 485.151 277.195 484.191 278.155 483.591 278.235 483.511 278.315 483.471 278.395 483.471 277.555 483.591 275.875 484.071 274.315 484.551 274.195 484.551 274.075 484.431 274.075 484.311 273.955 484.191 274.075 484.071 274.195 484.071 275.155 483.711 278.395 482.751 278.995 482.871 279.235 482.991 279.235 483.111 279.235 483.111 279.235 483.351 278.995 483.591 278.395 483.951 277.675 484.431 276.475 485.271 276.475 485.871 276.555 485.951 276.595 485.991 276.595 485.991 276.715 485.991 277.555 485.391 278.035 485.151 279.115 484.431 279.955 483.711 280.435 484.191 280.515 484.351 280.555 484.471 280.555 484.551 280.555 485.031 280.075 485.511 279.355 486.111 278.635 486.711 277.675 487.551 277.915 487.911 277.995 487.991 278.035 488.031 278.035 488.031 278.635 488.151 280.195 486.591 281.155 485.511 281.275 485.391 281.395 485.391 281.515 485.511 281.635 485.511 281.635 485.751 281.515 485.871 281.155 486.231 279.115 488.511 278.035 488.511Z" fill="#332A24" transform="matrix(1 0 0 1.00002 189.508 60)"/><path d="M282.955 312.234C282.955 312.234 272.275 320.754 258.115 325.434" fill="#594F59" transform="matrix(1 0 0 1.00002 189.508 60)"/><path d="M270.475 320.154C270.475 320.154 263.395 324.114 258.115 325.434L258.355 327.714C258.355 327.714 263.995 324.834 270.475 320.154Z" fill="#423A42" transform="matrix(1 0 0 1.00002 189.508 60)"/><path d="M266.395 493.191 291.115 495.591 291.475 494.751 266.395 492.591Z" fill="#332A24" transform="matrix(1 0 0 1.00002 189.508 60)"/><path d="M263.635 320.514C263.555 320.514 263.515 320.474 263.515 320.394 263.395 320.274 263.515 320.154 263.635 320.034L265.435 319.434C265.915 315.354 265.915 311.034 265.915 311.034 265.915 310.914 266.035 310.794 266.155 310.794 266.155 310.794 266.155 310.794 266.155 310.794 266.275 310.794 266.395 310.914 266.395 311.034 266.395 311.034 266.395 315.474 265.915 319.554L265.915 319.674 263.755 320.514C263.755 320.514 263.715 320.514 263.635 320.514Z" fill="#CEBACA" transform="matrix(1 0 0 1.00002 189.508 60)"/><path d="M269.755 214.916C269.755 214.916 285.115 221.396 287.275 224.276 287.995 234.956 291.355 239.756 291.955 244.195 292.795 249.235 285.715 255.475 285.715 255.475 285.715 255.475 287.875 291.835 286.315 310.794 285.955 314.874 231.356 313.674 228.956 307.554 226.556 301.434 238.676 241.316 238.676 241.316 238.676 241.316 239.756 224.876 241.675 219.596 243.115 215.396 269.755 214.916 269.755 214.916Z" fill="#9FC1F4" transform="matrix(1 0 0 1.00002 189.508 60)"/><path d="M269.755 215.636C269.755 215.636 272.155 216.716 275.155 218.156 275.275 221.396 275.515 235.316 271.075 235.916 266.395 236.516 263.395 222.716 259.435 216.116 264.955 215.756 269.755 215.636 269.755 215.636Z" fill="#FCB9A7" transform="matrix(1 0 0 1.00002 189.508 60)"/><path d="M261.475 193.316C261.475 193.316 263.395 208.436 262.315 216.476 262.315 216.476 264.955 226.796 269.515 227.036 272.875 227.276 272.995 217.076 272.995 217.076L274.435 209.036Z" fill="#FCB9A7" transform="matrix(1 0 0 1.00002 189.508 60)"/><path d="M262.435 194.516C262.555 191.516 261.475 193.316 261.475 193.316L274.435 209.036 273.715 213.116C264.475 207.956 262.435 194.516 262.435 194.516Z" fill="url(#fill2)" transform="matrix(1 0 0 1.00002 189.508 60)"/><path d="M269.995 240.596C268.875 240.596 267.675 240.116 266.395 239.156 266.315 239.156 266.275 239.116 266.275 239.036 266.355 238.956 266.435 238.956 266.515 239.036 268.115 240.236 269.675 240.636 271.195 240.236 274.075 239.396 275.635 235.316 275.635 235.316 275.635 235.236 275.675 235.236 275.755 235.316 275.835 235.316 275.875 235.356 275.875 235.436 275.755 235.556 274.315 239.516 271.195 240.476 270.795 240.556 270.395 240.596 269.995 240.596Z" fill="#FFFFFF" transform="matrix(1 0 0 1.00002 189.508 60)"/><path d="M258.475 257.875C258.395 257.875 258.355 257.835 258.355 257.755 258.355 257.675 258.395 257.635 258.475 257.635 270.475 255.955 278.635 255.715 282.595 255.835 279.835 255.595 274.795 255.355 267.235 255.835 267.155 255.755 267.115 255.715 267.115 255.715 267.115 255.635 267.155 255.595 267.235 255.595 279.595 254.755 285.115 255.835 285.235 255.955L285.115 256.075C285.115 256.075 275.755 255.475 258.475 257.875 258.475 257.875 258.475 257.875 258.475 257.875Z" fill="#FFFFFF" transform="matrix(1 0 0 1.00002 189.508 60)"/><path d="M261.355 254.515C261.355 254.515 246.235 258.475 246.595 245.275 246.595 245.275 242.875 265.555 261.355 254.515Z" fill="#DDE4ED" transform="matrix(1 0 0 1.00002 189.508 60)"/><path d="M312.834 282.835C312.754 283.075 312.634 283.115 312.474 282.955 312.634 282.875 312.754 282.835 312.834 282.835Z" fill="url(#fill3)" transform="matrix(1 0 0 1.00002 189.508 60)"/><path d="M284.635 176.037C288.955 186.117 290.875 205.796 285.835 208.796 275.635 215.036 259.555 200.516 255.835 191.876 252.115 183.237 251.035 171.957 260.995 167.757 270.955 163.437 280.555 166.557 284.635 176.037Z" fill="#FCB9A7" transform="matrix(1 0 0 1.00002 189.508 60)"/><path d="M269.875 187.077C269.875 187.077 270.715 183.957 272.635 183.477 272.635 183.477 268.435 180.717 269.875 187.077Z" fill="#423A42" transform="matrix(1 0 0 1.00002 189.508 60)"/><path d="M281.035 180.597C281.035 180.597 282.115 179.637 283.795 180.237 283.795 180.237 281.035 176.757 281.035 180.597Z" fill="#FF5F5F" transform="matrix(1 0 0 1.00002 189.508 60)"/><path d="M260.755 196.916C260.755 196.916 254.875 193.316 252.715 197.036 250.195 201.356 258.715 207.476 263.635 200.036" fill="#FCB9A7" transform="matrix(1 0 0 1.00002 189.508 60)"/><path d="M255.955 200.756C255.955 200.756 255.915 200.756 255.835 200.756 255.715 200.636 255.715 200.516 255.835 200.396 255.835 200.276 257.635 198.116 260.755 198.356 260.995 198.476 260.995 198.596 260.995 198.716 260.995 198.836 260.875 198.956 260.755 198.836 257.875 198.596 256.195 200.636 256.195 200.756 256.115 200.756 256.035 200.756 255.955 200.756Z" fill="#FF765F" transform="matrix(1 0 0 1.00002 189.508 60)"/><path d="M259.195 197.276C259.195 197.276 265.315 184.557 260.515 176.517 260.515 176.517 268.555 187.317 286.675 179.517 286.675 179.517 281.275 158.157 259.195 167.877 236.996 177.477 259.195 197.276 259.195 197.276Z" fill="#423A42" transform="matrix(1 0 0 1.00002 189.508 60)"/><path d="M273.235 192.476C273.075 192.476 272.995 192.396 272.995 192.236 272.875 191.756 271.435 187.437 272.635 186.357 272.795 186.197 272.995 186.117 273.235 186.117 274.555 186.357 276.115 189.596 276.355 189.956 276.355 190.076 276.355 190.196 276.235 190.316 276.115 190.316 275.995 190.316 275.875 190.196 275.275 188.876 273.955 186.717 273.235 186.597 273.075 186.597 272.955 186.637 272.875 186.717 272.155 187.317 272.875 190.316 273.475 192.116 273.475 192.236 273.355 192.356 273.235 192.476 273.235 192.476 273.235 192.476 273.235 192.476Z" fill="#332A24" transform="matrix(1 0 0 1.00002 189.508 60)"/><path d="M282.595 188.996C282.435 188.996 282.355 188.956 282.355 188.876 282.115 188.156 281.395 184.797 282.595 184.197 282.835 184.117 283.035 184.117 283.195 184.197 284.275 184.677 285.355 188.156 285.475 188.636 285.475 188.756 285.355 188.876 285.235 188.876 285.115 188.876 284.995 188.876 284.995 188.756 284.515 187.317 283.675 184.917 282.955 184.677 282.875 184.597 282.835 184.597 282.835 184.677 282.115 184.917 282.355 187.197 282.835 188.756 282.835 188.876 282.715 188.996 282.595 188.996 282.595 188.996 282.595 188.996 282.595 188.996Z" fill="#332A24" transform="matrix(1 0 0 1.00002 189.508 60)"/><path d="M278.155 185.757C278.155 185.757 279.835 188.996 282.595 190.196 282.955 190.316 283.075 190.796 282.835 191.036L281.395 192.956" fill="#FCB9A7" transform="matrix(1 0 0 1.00002 189.508 60)"/><path d="M281.395 193.196C281.315 193.196 281.235 193.156 281.155 193.076 281.155 193.076 281.035 192.956 281.155 192.836L282.595 190.916C282.675 190.836 282.715 190.716 282.715 190.556 282.715 190.556 282.595 190.436 282.475 190.436 279.715 189.236 278.035 185.997 277.915 185.877 277.915 185.757 277.915 185.637 278.035 185.517 278.155 185.517 278.275 185.517 278.395 185.637 278.395 185.637 280.075 188.876 282.715 189.956 282.955 190.036 283.115 190.196 283.195 190.436 283.195 190.756 283.155 190.996 283.075 191.156L281.515 193.076C281.515 193.156 281.475 193.196 281.395 193.196Z" fill="#FF765F" transform="matrix(1 0 0 1.00002 189.508 60)"/><path d="M261.595 261.595C267.355 264.595 276.715 266.395 286.315 267.475 286.075 260.275 285.715 255.475 285.715 255.475 285.715 255.475 286.795 254.515 288.115 253.075 278.635 250.555 270.235 248.275 267.235 247.195 259.435 244.555 250.075 224.876 242.155 221.756 242.155 221.756 241.675 221.756 240.956 221.876 239.516 228.596 238.676 241.316 238.676 241.316 238.676 241.316 238.676 241.795 238.436 242.635 243.955 249.475 252.595 257.035 261.595 261.595Z" fill="#DDE4ED" transform="matrix(1 0 0 1.00002 189.508 60)"/><path d="M242.875 218.516C242.875 218.516 236.636 220.076 234.956 227.156 233.276 234.356 250.795 249.355 268.075 255.115 285.355 260.995 329.394 253.315 329.394 253.315L327.954 246.235C327.954 246.235 279.595 241.555 271.555 240.116 263.395 238.556 251.155 220.556 242.875 218.516Z" fill="#9FC1F4" transform="matrix(1 0 0 1.00002 189.508 60)"/><path d="M329.394 253.315 327.954 246.235C327.954 246.235 279.595 241.555 271.555 240.116 266.875 239.156 260.875 232.916 254.995 227.396 260.395 232.916 265.795 239.276 270.475 240.116 278.515 241.675 328.794 246.715 328.794 246.715L329.394 253.315C329.394 253.315 318.474 255.115 306.234 256.315 318.954 255.115 329.394 253.315 329.394 253.315Z" fill="#D2E3FC" transform="matrix(1 0 0 1.00002 189.508 60)"/><path d="M344.274 238.796C344.034 238.636 343.794 238.476 343.554 238.316 340.674 239.276 332.034 245.035 332.034 245.035 332.034 245.035 334.794 238.916 333.714 238.556 332.994 238.316 328.554 243.955 327.114 245.875 327.194 245.875 327.234 245.915 327.234 245.995 330.234 248.515 333.594 250.795 337.194 252.595 339.474 252.595 341.994 252.355 343.314 251.155 344.274 250.435 336.114 251.035 336.114 251.035 336.114 251.035 345.474 249.115 345.114 247.915 344.874 246.715 336.834 248.515 336.834 248.515 336.834 248.515 345.834 245.395 345.594 244.315 345.234 243.355 335.994 245.995 335.994 245.995 335.994 245.995 343.194 240.476 344.274 238.796Z" fill="#FFF1D2" transform="matrix(1 0 0 1.00002 189.508 60)"/><path d="M344.274 238.796C344.034 238.636 343.794 238.476 343.554 238.316 340.674 239.276 332.034 245.035 332.034 245.035 332.034 245.035 334.794 238.916 333.714 238.556 332.994 238.316 328.554 243.955 327.114 245.875 327.194 245.875 327.234 245.915 327.234 245.995 330.234 248.515 333.594 250.795 337.194 252.595 339.474 252.595 341.994 252.355 343.314 251.155 344.274 250.435 336.114 251.035 336.114 251.035 336.114 251.035 345.474 249.115 345.114 247.915 344.874 246.715 336.834 248.515 336.834 248.515 336.834 248.515 345.834 245.395 345.594 244.315 345.234 243.355 335.994 245.995 335.994 245.995 335.994 245.995 343.194 240.476 344.274 238.796Z" fill="#FFF1D2" transform="matrix(1 0 0 1.00002 189.508 60)"/><path d="M344.274 238.796C344.034 238.636 343.794 238.476 343.554 238.316 340.674 239.276 332.034 245.035 332.034 245.035 332.034 245.035 334.794 238.916 333.714 238.556 332.994 238.316 328.554 243.955 327.114 245.875 327.194 245.875 327.234 245.915 327.234 245.995 330.234 248.515 333.594 250.795 337.194 252.595 339.474 252.595 341.994 252.355 343.314 251.155 344.274 250.435 336.114 251.035 336.114 251.035 336.114 251.035 345.474 249.115 345.114 247.915 344.874 246.715 336.834 248.515 336.834 248.515 336.834 248.515 345.834 245.395 345.594 244.315 345.234 243.355 335.994 245.995 335.994 245.995 335.994 245.995 343.194 240.476 344.274 238.796Z" fill="#FFF1D2" transform="matrix(1 0 0 1.00002 189.508 60)"/><path d="M327.954 246.235C327.954 246.235 332.754 239.396 333.714 239.756 334.794 239.996 332.034 246.235 332.034 246.235 332.034 246.235 342.834 239.036 344.274 239.396 345.714 239.756 335.994 247.195 335.994 247.195 335.994 247.195 345.234 244.555 345.594 245.515 345.834 246.475 336.834 249.715 336.834 249.715 336.834 249.715 344.874 247.915 345.114 249.115 345.474 250.315 336.114 252.235 336.114 252.235 336.114 252.235 344.274 251.515 343.314 252.355 340.314 254.875 331.674 253.195 331.674 253.195 331.674 253.195 330.594 253.315 329.394 253.315 329.394 253.315 327.114 247.435 327.954 246.235Z" fill="#FCB9A7" transform="matrix(1 0 0 1.00002 189.508 60)"/><path d="M169.197 432.952C169.117 432.952 169.037 432.912 168.957 432.832 168.957 432.712 168.957 432.592 169.077 432.472 169.557 431.992 221.516 386.873 224.036 383.513 226.436 380.273 236.756 322.914 236.876 322.314 236.876 322.194 236.996 322.074 237.116 322.194 237.356 322.194 237.356 322.314 237.356 322.434 236.996 324.834 226.916 380.513 224.396 383.873 221.876 387.113 171.477 431.032 169.317 432.832 169.317 432.912 169.277 432.952 169.197 432.952Z" fill="#CEBACA" transform="matrix(1 0 0 1.00002 189.508 60)"/><path d="M225.836 386.033C225.836 386.033 225.796 386.033 225.716 386.033 223.076 383.993 221.636 381.233 221.516 381.113 221.516 380.993 221.516 380.873 221.636 380.873 221.756 380.753 221.876 380.753 221.996 380.873 221.996 380.993 223.436 383.633 225.956 385.673 226.076 385.673 226.196 385.913 226.076 386.033 225.996 386.033 225.916 386.033 225.836 386.033Z" fill="#CEBACA" transform="matrix(1 0 0 1.00002 189.508 60)"/><path d="M278.875 199.076C278.155 199.076 277.195 198.836 276.475 198.116 276.355 198.116 276.355 197.876 276.475 197.756 276.595 197.756 276.715 197.756 276.835 197.756 278.395 199.196 280.435 198.356 280.435 198.236 280.555 198.236 280.675 198.236 280.795 198.356 280.795 198.476 280.795 198.716 280.675 198.716 280.555 198.716 279.835 199.076 278.875 199.076Z" fill="#FF765F" transform="matrix(1 0 0 1.00002 189.508 60)"/><path d="M293.995 452.152 327.234 560.75 334.794 560.75 298.674 439.912Z" fill="#706F70" transform="matrix(1 0 0 1.00002 189.508 60)"/><path d="M251.635 560.75 260.395 560.75 314.154 427.912 303.354 427.912Z" fill="#7F7A7F" transform="matrix(1 0 0 1.00002 189.508 60)"/><path d="M299.634 455.392C299.634 456.471 298.914 457.191 297.834 457.191 296.874 457.191 296.034 456.471 296.034 455.392 296.034 454.432 296.874 453.592 297.834 453.592 298.914 453.592 299.634 454.432 299.634 455.392Z" fill="#E8E6E8" transform="matrix(1 0 0 1.00002 189.508 60)"/><path d="M318.834 513.95C318.834 514.91 317.994 515.75 317.034 515.75 315.954 515.75 315.234 514.91 315.234 513.95 315.234 512.99 315.954 512.15 317.034 512.15 317.994 512.15 318.834 512.99 318.834 513.95Z" fill="#7F7A7F" transform="matrix(1 0 0 1.00002 189.508 60)"/><path d="M296.154 518.15C283.435 518.15 273.835 514.19 273.715 514.19L273.835 513.83C274.075 513.83 295.434 522.59 316.914 513.83L317.034 514.19C309.834 517.07 302.634 518.15 296.154 518.15Z" fill="#7F7A7F" transform="matrix(1 0 0 1.00002 189.508 60)"/><path d="M290.515 239.036C290.515 239.036 288.955 235.316 288.355 231.716 288.355 231.716 290.035 236.156 292.075 238.076" fill="#DDE4ED" transform="matrix(1 0 0 1.00002 189.508 60)"/><path d="M340.914 179.757C340.914 179.877 339.954 186.117 341.154 185.877 342.234 185.637 343.314 179.757 343.314 179.757 343.314 179.757 343.674 186.477 344.994 186.237 346.314 185.877 346.074 179.517 346.074 179.517 346.074 179.517 347.754 184.797 348.714 184.317 349.193 184.077 349.073 181.437 347.993 179.157 345.914 179.237 343.834 179.397 341.754 179.637 341.514 179.717 341.234 179.757 340.914 179.757Z" fill="#FFF1D2" transform="matrix(1 0 0 1.00002 189.508 60)"/><path d="M336.834 180.717C337.074 180.637 337.274 180.557 337.434 180.477 337.274 180.557 337.074 180.637 336.834 180.717 336.834 180.717 336.834 180.717 336.834 180.717Z" fill="#FFF1D2" transform="matrix(1 0 0 1.00002 189.508 60)"/><path d="M340.914 179.757C340.914 179.877 339.954 186.117 341.154 185.877 342.234 185.637 343.314 179.757 343.314 179.757 343.314 179.757 343.674 186.477 344.994 186.237 346.314 185.877 346.074 179.517 346.074 179.517 346.074 179.517 347.754 184.797 348.714 184.317 349.193 184.077 349.073 181.437 347.993 179.157 345.914 179.237 343.834 179.397 341.754 179.637 341.514 179.717 341.234 179.757 340.914 179.757Z" fill="#FFF1D2" transform="matrix(1 0 0 1.00002 189.508 60)"/><path d="M336.834 180.717C337.074 180.637 337.274 180.557 337.434 180.477 337.274 180.557 337.074 180.637 336.834 180.717 336.834 180.717 336.834 180.717 336.834 180.717Z" fill="#FFF1D2" transform="matrix(1 0 0 1.00002 189.508 60)"/><path d="M340.914 179.757C340.914 179.877 339.954 186.117 341.154 185.877 342.234 185.637 343.314 179.757 343.314 179.757 343.314 179.757 343.674 186.477 344.994 186.237 346.314 185.877 346.074 179.517 346.074 179.517 346.074 179.517 347.754 184.797 348.714 184.317 349.193 184.077 349.073 181.437 347.993 179.157 345.914 179.237 343.834 179.397 341.754 179.637 341.514 179.717 341.234 179.757 340.914 179.757Z" fill="#FFF1D2" transform="matrix(1 0 0 1.00002 189.508 60)"/><path d="M336.834 180.717C337.074 180.637 337.274 180.557 337.434 180.477 337.274 180.557 337.074 180.637 336.834 180.717 336.834 180.717 336.834 180.717 336.834 180.717Z" fill="#FFF1D2" transform="matrix(1 0 0 1.00002 189.508 60)"/><path d="M336.834 180.717C336.834 180.717 338.274 175.677 343.434 175.797 348.594 176.037 349.793 182.757 348.953 183.357 347.993 183.837 346.074 179.517 346.074 179.517 346.074 179.517 347.154 185.277 345.834 185.637 344.514 185.997 343.314 179.757 343.314 179.757 343.314 179.757 342.834 184.677 341.754 184.917 340.554 185.037 340.914 179.757 340.914 179.757 340.914 179.757 338.754 180.117 336.834 180.717Z" fill="#FCB9A7" transform="matrix(1 0 0 1.00002 189.508 60)"/><path d="M167.517 445.912C167.517 445.912 164.157 451.312 163.437 459.471L160.557 460.311 147.837 443.632C147.837 443.632 157.557 437.152 161.997 434.752" fill="#9FC1F4" transform="matrix(1 0 0 1.00002 189.508 60)"/><path d="M163.917 430.792 159.477 434.752 168.357 446.992 173.157 443.992Z" fill="#7F7A7F" transform="matrix(1 0 0 1.00002 189.508 60)"/><path d="M147.837 443.032 161.397 460.551 160.197 460.791 147.357 443.392Z" fill="#332A24" transform="matrix(1 0 0 1.00002 189.508 60)"/><path d="M160.917 440.872C160.917 440.872 165.357 444.712 167.397 447.472 169.437 450.352 160.917 441.952 159.717 442.912 158.397 443.872 166.437 447.352 166.557 449.392 166.677 451.672 161.997 445.432 159.477 445.192 156.837 444.952 164.997 449.512 165.237 452.752" stroke="#332A24" stroke-width="0.599989" stroke-linecap="round" stroke-miterlimit="10" fill="none" transform="matrix(1 0 0 1.00002 189.508 60)"/><path d="M463.311 345.474C463.311 345.474 466.071 338.874 467.031 336.354L464.151 346.074Z" fill="#DDE4ED" transform="matrix(1 0 0 1.00002 189.508 60)"/><path d="M528.23 361.793C528.23 361.793 533.63 363.233 536.99 368.153 540.47 372.953 536.87 379.553 535.67 379.553 534.59 379.433 536.03 372.113 536.03 372.113 536.03 372.113 531.11 376.553 528.95 376.313 526.79 376.073 533.87 370.673 533.87 370.673 533.87 370.673 525.71 372.713 524.15 371.273 522.71 369.833 532.07 368.873 532.07 368.873 532.07 368.873 524.87 368.273 524.03 366.473 523.07 364.673 531.47 366.233 531.47 366.233 531.47 366.233 529.67 364.193 528.23 361.793Z" fill="#FCB9A7" transform="matrix(1 0 0 1.00002 189.508 60)"/><path d="M355.313 242.155C354.233 244.075 353.753 247.075 354.593 247.315 355.913 247.555 358.073 242.395 358.073 242.395 358.073 242.395 357.833 251.395 359.273 251.515 360.833 251.635 360.953 242.875 360.953 242.875 360.953 242.875 362.633 250.435 363.953 250.435 365.153 250.315 364.193 242.035 364.193 242.035 364.193 242.035 365.153 241.915 366.113 241.675 365.873 245.515 366.233 249.955 367.553 249.955 370.073 250.075 369.593 240.836 369.593 240.836L370.313 240.476C370.313 240.476 370.313 240.476 370.313 240.476 365.393 242.035 360.353 242.635 355.313 242.155Z" fill="#FFF1D2" transform="matrix(1 0 0 1.00002 189.508 60)"/><path d="M355.313 242.155C354.233 244.075 353.753 247.075 354.593 247.315 355.913 247.555 358.073 242.395 358.073 242.395 358.073 242.395 357.833 251.395 359.273 251.515 360.833 251.635 360.953 242.875 360.953 242.875 360.953 242.875 362.633 250.435 363.953 250.435 365.153 250.315 364.193 242.035 364.193 242.035 364.193 242.035 365.153 241.915 366.113 241.675 365.873 245.515 366.233 249.955 367.553 249.955 370.073 250.075 369.593 240.836 369.593 240.836L370.313 240.476C370.313 240.476 370.313 240.476 370.313 240.476 365.393 242.035 360.353 242.635 355.313 242.155Z" fill="#FFF1D2" transform="matrix(1 0 0 1.00002 189.508 60)"/><path d="M355.313 242.155C354.233 244.075 353.753 247.075 354.593 247.315 355.913 247.555 358.073 242.395 358.073 242.395 358.073 242.395 357.833 251.395 359.273 251.515 360.833 251.635 360.953 242.875 360.953 242.875 360.953 242.875 362.633 250.435 363.953 250.435 365.153 250.315 364.193 242.035 364.193 242.035 364.193 242.035 365.153 241.915 366.113 241.675 365.873 245.515 366.233 249.955 367.553 249.955 370.073 250.075 369.593 240.836 369.593 240.836L370.313 240.476C370.313 240.476 370.313 240.476 370.313 240.476 365.393 242.035 360.353 242.635 355.313 242.155Z" fill="#FFF1D2" transform="matrix(1 0 0 1.00002 189.508 60)"/><path d="M366.593 239.516C366.593 239.516 363.953 237.596 362.633 238.196 361.313 238.916 360.953 240.716 360.953 240.716 360.953 240.716 357.353 239.636 355.793 240.716 354.353 241.795 352.913 246.355 354.113 246.475 355.433 246.715 357.593 242.275 357.593 242.275 357.593 242.275 357.353 250.075 358.793 250.195 360.233 250.315 360.473 242.635 360.473 242.635 360.473 242.635 362.153 249.235 363.473 249.235 364.673 249.115 363.713 241.915 363.713 241.915 363.713 241.915 365.153 241.795 366.353 241.436" fill="#FCB9A7" transform="matrix(1 0 0 1.00002 189.508 60)"/><path d="M369.833 240.596C369.833 240.596 368.633 236.156 367.073 236.516 365.633 236.756 364.553 248.755 367.073 248.875 369.593 248.875 369.113 240.836 369.113 240.836Z" fill="#FCB9A7" transform="matrix(1 0 0 1.00002 189.508 60)"/><path d="M698.627 353.033C698.627 353.033 697.547 361.793 698.627 361.793 699.587 361.793 700.907 355.673 700.907 355.673 700.907 355.673 708.707 361.913 711.707 361.553 714.827 361.193 703.667 355.073 703.667 355.073 703.667 355.073 713.267 359.153 715.307 357.593 717.347 356.033 705.107 353.273 705.107 353.273 705.107 353.273 715.907 353.513 716.627 352.553 717.347 351.473 706.187 351.593 706.187 351.593 706.187 351.593 713.147 350.753 713.387 349.434 713.627 348.234 704.267 350.273 704.267 350.273" fill="#FCB9A7" transform="matrix(1 0 0 1.00002 189.508 60)"/><path d="M659.028 308.394C659.028 308.394 659.028 308.394 659.028 308.394 658.908 308.274 658.788 308.154 658.788 308.034 662.988 292.915 644.628 285.235 644.508 285.115 644.388 285.115 644.268 284.995 644.388 284.875 644.388 284.755 644.508 284.635 644.628 284.755 644.868 284.755 663.468 292.675 659.268 308.154 659.188 308.314 659.108 308.394 659.028 308.394Z" fill="#D6473C" transform="matrix(1 0 0 1.00002 189.508 60)"/><path d="M597.229 313.794C597.149 313.794 597.069 313.794 596.989 313.794 586.789 304.554 586.789 294.115 588.469 287.035 590.389 279.355 594.829 273.715 594.829 273.715 594.949 273.595 595.069 273.595 595.189 273.715 595.309 273.715 595.309 273.835 595.189 273.955 595.189 274.075 590.869 279.595 588.949 287.155 587.149 294.115 587.269 304.314 597.349 313.434 597.469 313.554 597.469 313.674 597.349 313.794 597.269 313.794 597.229 313.794 597.229 313.794Z" fill="#D6473C" transform="matrix(1 0 0 1.00002 189.508 60)"/><path d="M628.308 243.595C628.308 243.595 638.508 243.475 643.908 254.515 649.308 265.435 636.708 278.155 642.588 282.595 648.468 286.915 661.548 295.794 658.068 304.794 654.468 313.674 644.268 319.554 624.228 321.474 604.189 323.514 579.349 304.314 592.669 275.515 606.109 246.595 599.869 225.596 628.308 243.595Z" fill="#D6473C" transform="matrix(1 0 0 1.00002 189.508 60)"/><path d="M638.988 293.635C638.988 293.635 644.268 294.235 648.108 295.794 651.948 297.354 677.507 310.074 682.787 314.994 687.947 319.914 700.427 340.674 705.827 349.793 705.827 349.793 702.347 352.073 697.907 353.993 697.907 353.993 675.707 326.154 673.907 325.314 671.987 324.474 649.308 317.514 643.788 316.554" fill="#423A42" transform="matrix(1 0 0 1.00002 189.508 60)"/><path d="M600.469 296.034C600.469 296.034 594.349 298.194 590.149 298.554 585.109 299.034 575.629 298.554 574.429 297.714 573.109 296.754 563.269 274.555 557.27 261.715 557.27 261.715 550.91 263.755 548.75 265.795 548.75 265.795 562.669 310.674 566.029 312.594 569.269 314.634 575.629 316.914 593.269 317.034" fill="#423A42" transform="matrix(1 0 0 1.00002 189.508 60)"/><path d="M592.789 542.15C592.789 542.15 591.589 549.59 584.269 555.47L586.429 557.87 606.229 547.19C606.229 547.19 602.389 540.47 600.349 537.59" fill="#9FC1F4" transform="matrix(1 0 0 1.00002 189.508 60)"/><path d="M596.509 379.673C596.509 379.673 593.029 436.672 593.029 538.19L602.629 538.19C602.629 538.19 610.429 460.191 621.948 385.433" fill="#594F59" transform="matrix(1 0 0 1.00002 189.508 60)"/><path d="M604.069 537.47 603.229 541.79 592.549 541.79 592.069 536.63Z" fill="#A09DA0" transform="matrix(1 0 0 1.00002 189.508 60)"/><path d="M594.349 547.55C593.269 547.55 591.229 546.59 590.749 546.35 590.629 546.35 590.629 546.23 590.629 546.11 590.749 545.99 590.869 545.87 590.989 545.99 592.189 546.59 594.229 547.31 594.589 547.07 594.669 546.99 594.709 546.95 594.709 546.95 594.709 546.47 593.629 546.11 592.789 545.87 591.949 545.51 591.349 545.27 591.229 544.91 591.149 544.83 591.149 544.71 591.229 544.55 591.469 543.95 592.429 544.19 593.509 544.43 594.109 544.55 595.069 544.79 595.189 544.67 595.189 544.67 595.189 544.63 595.189 544.55 595.069 544.07 593.629 543.83 592.909 543.59 592.189 543.47 591.829 543.47 591.829 543.23 591.829 543.11 591.829 542.99 591.949 542.87 592.429 542.63 595.789 542.27 596.509 542.15 596.629 542.15 596.749 542.27 596.749 542.39 596.749 542.51 596.629 542.63 596.509 542.63 595.069 542.75 593.389 542.99 592.669 543.11 592.749 543.11 592.829 543.15 592.909 543.23 593.989 543.35 595.429 543.71 595.669 544.55 595.669 544.79 595.549 544.91 595.549 544.91 595.189 545.27 594.589 545.15 593.509 544.91 592.909 544.79 591.709 544.55 591.589 544.79 591.709 544.91 592.429 545.15 593.029 545.39 594.109 545.75 595.189 546.11 595.189 546.95 595.189 547.11 595.069 547.27 594.829 547.43 594.749 547.51 594.589 547.55 594.349 547.55Z" fill="#332A24" transform="matrix(1 0 0 1.00002 189.508 60)"/><path d="M597.709 382.553C597.709 382.553 607.309 391.073 620.388 396.233 620.388 396.233 642.348 455.272 658.188 458.031 670.787 460.191 695.507 397.313 695.507 397.313L686.867 393.473C686.867 393.473 664.428 427.432 661.308 429.232 658.188 431.032 646.668 377.993 646.668 377.993" fill="#594F59" transform="matrix(1 0 0 1.00002 189.508 60)"/><path d="M609.109 390.713C609.109 390.713 615.469 394.673 620.388 396.233L620.028 398.393C620.028 398.393 614.869 395.393 609.109 390.713Z" fill="#423A42" transform="matrix(1 0 0 1.00002 189.508 60)"/><path d="M660.588 438.952C658.308 438.952 654.708 432.112 649.788 418.672 646.068 408.712 642.948 398.513 642.948 398.393 642.948 398.273 642.948 398.153 643.068 398.153 643.188 398.153 643.308 398.153 643.428 398.273 646.788 409.552 656.508 438.472 660.588 438.472 662.028 438.472 665.748 435.472 674.987 420.592 680.507 411.712 685.547 402.712 685.547 402.592 685.667 402.473 685.787 402.473 685.907 402.473 686.027 402.592 686.027 402.712 685.907 402.833 685.187 404.272 665.868 438.952 660.588 438.952Z" fill="#CEBACA" transform="matrix(1 0 0 1.00002 189.508 60)"/><path d="M660.108 445.792C660.108 445.792 660.108 445.792 660.108 445.792 659.988 445.792 659.868 445.672 659.868 445.552 659.868 445.432 661.188 436.072 660.348 430.912 660.348 430.792 660.468 430.672 660.588 430.672 660.708 430.672 660.828 430.672 660.828 430.792 660.828 430.912 662.388 436.912 662.268 441.952 662.268 442.072 662.148 442.192 662.028 442.192 662.028 442.192 662.028 442.192 662.028 442.192 661.908 442.192 661.788 442.072 661.788 441.952 661.908 439.192 661.428 436.192 661.068 434.032 661.188 439.192 660.348 445.432 660.348 445.552 660.348 445.672 660.228 445.792 660.108 445.792Z" fill="#CEBACA" transform="matrix(1 0 0 1.00002 189.508 60)"/><path d="M606.709 547.19 586.069 558.35 585.469 557.75 606.469 546.71Z" fill="#332A24" transform="matrix(1 0 0 1.00002 189.508 60)"/><path d="M615.469 391.433C615.388 391.433 615.349 391.433 615.349 391.433L613.429 390.473 613.429 390.353C613.189 386.513 613.429 382.313 613.429 382.313 613.429 382.153 613.509 382.073 613.669 382.073 613.789 382.073 613.789 382.193 613.789 382.313 613.789 382.433 613.669 386.393 613.789 390.233L615.469 390.953C615.589 391.073 615.708 391.193 615.589 391.313 615.589 391.393 615.549 391.433 615.469 391.433Z" fill="#CEBACA" transform="matrix(1 0 0 1.00002 189.508 60)"/><path d="M615.349 291.715C615.349 291.715 600.469 297.114 598.309 299.634 597.109 309.594 593.749 314.034 592.789 318.114 591.829 322.794 598.069 329.034 598.069 329.034 598.069 329.034 594.229 363.113 594.709 380.993 594.709 384.833 646.188 386.633 648.708 380.993 651.348 375.353 643.068 318.234 643.068 318.234 643.068 318.234 642.948 302.754 641.508 297.594 640.308 293.635 615.349 291.715 615.349 291.715Z" fill="#FFFFFF" transform="matrix(1 0 0 1.00002 189.508 60)"/><path d="M615.349 292.435C615.349 292.435 612.949 293.275 610.069 294.475 609.709 297.594 610.309 307.674 612.829 311.394 618.828 302.514 620.868 299.394 624.948 293.515 619.668 292.795 615.349 292.435 615.349 292.435Z" fill="#FCB9A7" transform="matrix(1 0 0 1.00002 189.508 60)"/><path d="M624.228 271.915C624.228 271.915 621.588 285.955 622.188 293.635 622.188 293.635 619.188 303.114 614.869 303.114 611.749 303.114 612.109 293.635 612.109 293.635L611.269 285.955Z" fill="#FCB9A7" transform="matrix(1 0 0 1.00002 189.508 60)"/><path d="M623.268 272.875C623.268 270.235 624.228 271.915 624.228 271.915L611.269 285.955 611.629 289.915C620.628 285.475 623.268 272.875 623.268 272.875Z" fill="url(#fill4)" transform="matrix(1 0 0 1.00002 189.508 60)"/><path d="M601.189 255.235C598.429 265.195 599.149 283.795 604.189 285.955 614.629 290.515 627.708 274.915 630.108 266.395 632.508 257.875 632.028 247.195 622.188 244.435 612.469 241.795 603.829 245.875 601.189 255.235Z" fill="#FCB9A7" transform="matrix(1 0 0 1.00002 189.508 60)"/><path d="M616.429 263.635C616.429 263.635 615.229 260.875 613.429 260.755 613.429 260.755 616.908 257.635 616.429 263.635Z" fill="#D6473C" transform="matrix(1 0 0 1.00002 189.508 60)"/><path d="M605.149 259.075C605.149 259.075 604.069 258.235 602.509 259.075 602.509 259.075 604.669 255.475 605.149 259.075Z" fill="#FF5F5F" transform="matrix(1 0 0 1.00002 189.508 60)"/><path d="M626.148 271.675C626.148 271.675 631.188 267.595 633.708 270.715 636.588 274.435 629.388 281.275 623.868 274.915" fill="#FCB9A7" transform="matrix(1 0 0 1.00002 189.508 60)"/><path d="M631.068 274.675C630.988 274.675 630.948 274.675 630.948 274.675 630.948 274.675 629.148 272.875 626.388 273.595 626.268 273.595 626.148 273.475 626.148 273.355 626.148 273.235 626.148 273.115 626.268 273.115 629.268 272.395 631.188 274.315 631.188 274.315 631.308 274.435 631.308 274.555 631.188 274.675 631.188 274.675 631.148 274.675 631.068 274.675Z" fill="#FF765F" transform="matrix(1 0 0 1.00002 189.508 60)"/><path d="M623.628 332.754C623.628 332.754 623.628 332.754 623.628 332.754 607.429 329.514 598.669 329.754 598.669 329.754L598.549 329.514C598.669 329.514 603.949 328.794 615.589 330.114 615.589 330.114 615.589 330.154 615.589 330.234 615.589 330.314 615.549 330.354 615.469 330.354 608.389 329.514 603.709 329.394 601.069 329.514 604.789 329.634 612.349 330.234 623.628 332.514 623.708 332.514 623.748 332.554 623.748 332.634 623.748 332.634 623.708 332.674 623.628 332.754Z" fill="#CEC4C4" transform="matrix(1 0 0 1.00002 189.508 60)"/><path d="M621.108 329.394C621.108 329.394 635.148 333.954 635.508 321.474 635.508 321.474 637.908 340.794 621.108 329.394Z" fill="#EFEAEA" transform="matrix(1 0 0 1.00002 189.508 60)"/><path d="M599.989 534.11C599.989 534.11 599.989 534.11 599.989 534.11 599.869 534.11 599.749 533.99 599.749 533.87 599.869 533.03 607.429 457.431 615.229 401.152 615.229 401.033 615.349 401.033 615.469 401.033 615.589 401.033 615.708 401.152 615.589 401.273 607.789 457.431 600.349 533.15 600.229 533.87 600.229 533.99 600.109 534.11 599.989 534.11Z" fill="#CEBACA" transform="matrix(1 0 0 1.00002 189.508 60)"/><path d="M696.347 396.713C696.347 396.713 700.547 390.473 709.547 388.073L708.707 385.073 686.147 386.633C686.147 386.633 686.987 394.313 687.467 397.793" fill="#9FC1F4" transform="matrix(1 0 0 1.00002 189.508 60)"/><path d="M684.107 396.353 686.747 392.873 696.347 397.673 694.427 402.473Z" fill="#A09DA0" transform="matrix(1 0 0 1.00002 189.508 60)"/><path d="M697.307 396.353C696.587 396.353 693.827 395.513 692.987 395.153 692.867 395.153 692.747 395.033 692.747 394.913 692.867 394.793 692.987 394.793 693.107 394.793 694.547 395.273 696.107 395.753 696.827 395.873 696.747 395.793 696.667 395.753 696.587 395.753 695.747 395.153 694.547 394.313 694.667 393.473 694.787 393.233 694.907 393.113 695.027 392.993 695.387 392.873 695.987 393.353 696.827 393.953 697.307 394.313 698.267 395.033 698.507 394.913 698.507 394.673 697.907 394.073 697.547 393.713 696.707 392.873 695.747 392.153 696.107 391.433 696.267 391.193 696.427 391.073 696.587 391.073 697.547 390.953 699.467 393.233 699.947 393.713 699.947 393.833 699.947 393.953 699.827 394.073 699.827 394.073 699.587 394.073 699.587 393.953 698.627 392.993 697.187 391.433 696.707 391.553 696.627 391.553 696.587 391.553 696.587 391.553 696.347 392.033 697.187 392.753 697.787 393.353 698.507 394.073 698.867 394.433 698.987 394.793 698.987 394.953 698.907 395.073 698.747 395.153 698.387 395.633 697.547 395.033 696.587 394.313 696.107 393.953 695.387 393.353 695.147 393.473 695.147 393.473 695.147 393.473 695.147 393.473 695.027 394.073 696.227 394.913 696.827 395.393 697.427 395.753 697.667 395.993 697.667 396.113 697.667 396.233 697.547 396.353 697.427 396.353 697.427 396.353 697.387 396.353 697.307 396.353Z" fill="#332A24" transform="matrix(1 0 0 1.00002 189.508 60)"/><path d="M627.708 271.915C627.708 271.915 620.388 260.755 623.748 252.595 623.748 252.595 617.748 263.755 599.749 258.715 599.749 258.715 602.149 238.076 623.988 244.315 645.828 250.555 627.708 271.915 627.708 271.915Z" fill="#D6473C" transform="matrix(1 0 0 1.00002 189.508 60)"/><path d="M628.068 269.035C627.988 269.035 627.948 269.035 627.948 269.035 621.708 264.955 621.588 259.315 622.428 255.355 621.228 257.395 619.188 259.675 616.429 260.755 612.829 262.195 608.749 261.595 604.189 259.075 604.069 258.955 604.069 258.835 604.069 258.715 604.189 258.595 604.309 258.595 604.429 258.715 608.869 261.115 612.829 261.715 616.308 260.395 619.668 258.955 621.828 255.835 623.028 253.555 623.508 252.115 623.988 251.155 623.988 251.155L625.068 249.355 624.468 251.275C624.468 251.275 624.108 252.355 623.388 253.795 623.028 254.875 622.668 256.195 622.548 257.635 622.188 262.195 623.988 265.915 628.188 268.675 628.308 268.675 628.308 268.795 628.188 268.915 628.188 268.995 628.148 269.035 628.068 269.035Z" fill="#D6473C" transform="matrix(1 0 0 1.00002 189.508 60)"/><path d="M614.509 270.115C614.509 270.115 614.509 270.115 614.509 270.115 614.389 270.115 614.269 269.995 614.269 269.875 614.629 268.075 614.869 264.955 614.149 264.475 614.069 264.395 613.989 264.355 613.909 264.355 613.189 264.595 612.229 266.875 611.749 268.315 611.749 268.435 611.629 268.435 611.509 268.435 611.389 268.435 611.269 268.315 611.389 268.195 611.509 267.715 612.589 264.355 613.669 263.995 613.909 263.915 614.149 263.955 614.389 264.115 615.589 264.955 614.869 269.515 614.749 269.995 614.749 270.115 614.629 270.115 614.509 270.115Z" fill="#332A24" transform="matrix(1 0 0 1.00002 189.508 60)"/><path d="M602.029 266.875C602.029 266.875 602.029 266.875 602.029 266.875 601.909 266.875 601.789 266.755 601.789 266.635 601.909 265.915 602.389 262.195 603.229 261.595 603.389 261.515 603.549 261.515 603.709 261.595 604.909 262.075 604.669 265.675 604.549 266.395 604.549 266.515 604.429 266.635 604.309 266.635 604.189 266.635 604.069 266.515 604.069 266.395 604.309 264.715 604.189 262.195 603.589 261.955 603.589 261.955 603.549 261.955 603.469 261.955 602.989 262.315 602.389 265.075 602.269 266.635 602.269 266.755 602.149 266.875 602.029 266.875Z" fill="#332A24" transform="matrix(1 0 0 1.00002 189.508 60)"/><path d="M605.869 273.595C605.869 273.595 608.269 273.595 610.549 272.635 610.549 272.635 610.549 275.755 609.349 276.715 608.149 277.675 606.709 275.875 605.869 273.595Z" fill="#FFFFFF" transform="matrix(1 0 0 1.00002 189.508 60)"/><path d="M608.509 263.515C608.509 263.515 607.309 266.755 604.909 268.195 604.669 268.315 604.549 268.795 604.789 269.035L606.469 270.595" fill="#FCB9A7" transform="matrix(1 0 0 1.00002 189.508 60)"/><path d="M606.469 270.835C606.389 270.835 606.309 270.795 606.229 270.715L604.669 269.155C604.509 268.995 604.429 268.795 604.429 268.555 604.509 268.315 604.629 268.115 604.789 267.955 607.189 266.635 608.269 263.395 608.269 263.395 608.389 263.275 608.509 263.275 608.629 263.275 608.749 263.275 608.749 263.395 608.749 263.515 608.629 263.635 607.549 266.995 605.029 268.435 604.909 268.435 604.909 268.555 604.909 268.555 604.909 268.715 604.949 268.835 605.029 268.915L606.589 270.475C606.709 270.475 606.709 270.715 606.589 270.715 606.509 270.795 606.469 270.835 606.469 270.835Z" fill="#FF765F" transform="matrix(1 0 0 1.00002 189.508 60)"/><path d="M685.787 386.393 709.067 384.713 709.427 385.553 685.787 386.873Z" fill="#332A24" transform="matrix(1 0 0 1.00002 189.508 60)"/><path d="M647.508 382.073C648.148 381.753 648.548 381.393 648.708 380.993 651.348 375.353 643.068 318.234 643.068 318.234 643.068 318.234 642.948 302.754 641.508 297.594 640.908 295.555 633.948 294.115 627.348 293.035 626.868 300.954 624.108 365.993 633.828 404.992 633.828 404.992 642.828 404.632 651.828 400.313 650.028 393.113 648.468 386.273 647.508 382.073Z" fill="#EFEAEA" transform="matrix(1 0 0 1.00002 189.508 60)"/><path d="M595.669 397.913 600.829 399.233C600.829 399.233 600.829 317.274 605.149 295.794L603.709 296.394Z" fill="#EFEAEA" transform="matrix(1 0 0 1.00002 189.508 60)"/><path d="M622.188 292.435C622.188 292.435 626.388 292.915 629.148 293.395 629.148 293.395 625.188 360.833 635.628 402.473 635.628 402.473 649.788 401.872 660.108 393.713 660.108 393.713 650.988 344.394 645.348 318.114 645.348 318.114 646.188 295.194 642.348 294.355 638.628 293.395 622.188 291.115 622.188 291.115Z" fill="#423A42" transform="matrix(1 0 0 1.00002 189.508 60)"/><path d="M611.989 292.915C611.989 292.915 608.029 294.595 603.709 296.394 603.709 296.394 597.229 354.113 598.669 396.113 598.669 396.113 594.229 395.633 589.669 393.713 589.669 393.713 592.909 344.034 595.549 330.234 595.549 330.234 590.389 324.114 590.509 319.554 590.749 314.994 596.389 306.354 596.389 298.554 596.389 298.554 595.069 297.114 611.869 292.195Z" fill="#423A42" transform="matrix(1 0 0 1.00002 189.508 60)"/><path d="M606.949 315.234 606.829 314.994C606.829 314.994 605.389 308.034 607.909 295.194 607.909 295.115 607.949 295.115 608.029 295.194 608.109 295.194 608.149 295.234 608.149 295.315 605.869 306.954 606.829 313.794 607.069 314.874L612.229 312.114C612.309 312.034 612.349 312.034 612.349 312.114 612.429 312.194 612.429 312.234 612.349 312.234Z" fill="#CEC4C4" transform="matrix(1 0 0 1.00002 189.508 60)"/><path d="M622.548 315.954 613.549 312.234C613.469 312.234 613.429 312.194 613.429 312.114 613.429 312.034 613.469 312.034 613.549 312.114L622.428 315.714C622.788 314.274 626.268 301.794 625.908 293.635 625.908 293.635 625.948 293.595 626.028 293.515 626.028 293.515 626.028 293.515 626.028 293.515 626.108 293.515 626.148 293.555 626.148 293.635 626.508 302.274 622.668 315.714 622.548 315.834Z" fill="#CEC4C4" transform="matrix(1 0 0 1.00002 189.508 60)"/><path d="M632.748 365.993C632.748 365.993 632.748 365.993 632.748 365.993 632.668 365.993 632.628 365.953 632.628 365.873 637.668 348.474 640.188 326.274 640.308 324.714L631.548 322.194 638.628 319.314C637.668 311.394 635.868 304.914 634.548 300.834 632.988 296.514 631.788 293.995 631.788 293.995 631.788 293.915 631.828 293.875 631.908 293.875 631.908 293.795 631.948 293.795 632.028 293.875 632.028 293.875 633.228 296.394 634.668 300.834 635.988 304.914 637.908 311.394 638.868 319.434L638.868 319.554 632.268 322.194 640.548 324.474 640.548 324.594C640.548 324.834 638.028 347.874 632.868 365.873 632.868 365.953 632.828 365.993 632.748 365.993Z" fill="#CEC4C4" transform="matrix(1 0 0 1.00002 189.508 60)"/><path d="M598.429 356.393C598.349 356.393 598.309 356.353 598.309 356.273 596.269 337.434 596.029 320.514 596.029 320.274L599.269 319.554 594.949 317.634 594.949 317.514C597.349 306.714 601.549 296.874 601.669 296.754 601.669 296.754 601.709 296.754 601.789 296.754 601.869 296.754 601.869 296.794 601.789 296.874 601.789 296.994 597.589 306.834 595.189 317.514L599.989 319.554 596.269 320.394C596.269 321.714 596.509 338.154 598.549 356.273 598.549 356.353 598.509 356.393 598.429 356.393 598.429 356.393 598.429 356.393 598.429 356.393Z" fill="#CEC4C4" transform="matrix(1 0 0 1.00002 189.508 60)"/><path d="M628.428 245.155 628.068 244.555C628.068 244.435 623.268 236.516 613.189 235.556 613.069 235.556 612.949 235.436 612.949 235.316 613.029 235.236 613.109 235.196 613.189 235.196 622.188 236.036 626.988 242.155 628.188 243.955 628.308 243.595 628.548 243.115 629.028 242.755 629.908 242.115 631.188 241.995 632.868 242.395 632.988 242.395 632.988 242.515 632.988 242.635 632.988 242.755 632.868 242.875 632.748 242.755 631.228 242.435 630.068 242.555 629.268 243.115 628.548 243.595 628.428 244.435 628.428 244.435Z" fill="#D6473C" transform="matrix(1 0 0 1.00002 189.508 60)"/><path d="M654.708 289.195C654.628 289.195 654.588 289.195 654.588 289.195 643.308 284.995 640.188 281.155 639.588 278.755 639.228 276.835 640.308 275.635 640.308 275.635 640.428 275.515 640.548 275.515 640.668 275.635 640.788 275.635 640.788 275.875 640.668 275.875 640.668 275.995 639.708 276.955 640.068 278.635 640.668 281.035 643.668 284.635 654.708 288.715 654.828 288.835 654.948 288.955 654.828 289.075 654.828 289.155 654.788 289.195 654.708 289.195Z" fill="#D6473C" transform="matrix(1 0 0 1.00002 189.508 60)"/><path d="M636.468 373.913C636.708 374.993 636.108 375.953 635.268 376.073 634.428 376.193 633.588 375.473 633.468 374.393 633.228 373.313 633.828 372.353 634.668 372.233 635.508 372.113 636.348 372.833 636.468 373.913Z" fill="#CEC4C4" transform="matrix(1 0 0 1.00002 189.508 60)"/><path d="M638.868 388.913C639.108 389.993 638.508 390.953 637.668 391.073 636.828 391.193 635.988 390.473 635.868 389.393 635.628 388.313 636.228 387.353 637.068 387.113 637.908 386.993 638.748 387.833 638.868 388.913Z" fill="#CEC4C4" transform="matrix(1 0 0 1.00002 189.508 60)"/><path d="M589.909 317.034 594.349 308.154C594.349 308.154 591.949 314.514 590.989 317.034Z" fill="#2D262D" transform="matrix(1 0 0 1.00002 189.508 60)"/><path d="M645.468 316.914 642.708 316.194 645.468 317.754Z" fill="#2D262D" transform="matrix(1 0 0 1.00002 189.508 60)"/><path d="M640.788 303.594C640.708 303.594 640.668 303.554 640.668 303.474 640.428 298.194 641.868 295.194 641.988 295.194 641.988 295.115 642.028 295.115 642.108 295.194 642.188 295.194 642.188 295.234 642.108 295.315 642.108 295.315 640.548 298.194 640.908 303.474 640.908 303.554 640.868 303.594 640.788 303.594 640.788 303.594 640.788 303.594 640.788 303.594Z" fill="#CEC4C4" transform="matrix(1 0 0 1.00002 189.508 60)"/><path d="M673.907 325.434C673.827 325.434 673.787 325.434 673.787 325.434 673.707 325.354 673.707 325.314 673.787 325.314 673.787 325.194 675.707 323.514 676.667 321.594 676.747 321.514 676.827 321.514 676.907 321.594 676.907 321.594 676.907 321.634 676.907 321.714 675.827 323.634 673.907 325.434 673.907 325.434 673.907 325.434 673.907 325.434 673.907 325.434Z" fill="#CEC4C4" transform="matrix(1 0 0 1.00002 189.508 60)"/><path d="M109.678 558.95 789.465 558.95C789.465 558.95 497.631 576.469 109.678 558.95Z" fill="#EAE7E1" transform="matrix(1 0 0 1.00002 189.508 60)"/><path d="M477.231 44.6392 476.751 84.5984 516.11 91.0783 476.271 90.5983 469.791 130.078 470.271 90.1183 430.792 83.6384 470.751 84.1184Z" fill="#FFEEBD" transform="matrix(1 0 0 1.00002 189.508 60)"/><path d="M402.113 60.4789 407.632 76.0786 423.952 72.9586 408.232 78.4785 411.352 94.7982 405.832 79.1985 389.513 82.3185 405.232 76.7986Z" fill="#FFD961" transform="matrix(1 0 0 1.00002 189.508 60)"/><path d="M512.15 40.1992 507.951 44.7592 511.79 49.5591 507.231 45.3592 502.311 49.1991 506.631 44.6392 502.791 39.7193 507.351 44.0392Z" fill="#FFEEBD" transform="matrix(1 0 0 1.00002 189.508 60)"/><path d="M696.707 247.675 685.787 259.195 695.507 271.675 683.987 260.755 671.507 270.475 682.427 258.955 672.707 246.475 684.227 257.395Z" fill="#FFEEBD" transform="matrix(1 0 0 1.00002 189.508 60)"/><path d="M154.797 228.356 148.317 235.196 154.077 242.635 147.237 236.156 139.797 241.915 146.277 235.076 140.517 227.636 147.357 234.116Z" fill="#FFEEBD" transform="matrix(1 0 0 1.00002 189.508 60)"/><path d="M101.278 100.078 94.9182 107.038 100.678 114.478 93.8382 107.998 86.3984 113.758 92.8783 106.918 86.9984 99.4781 93.9583 105.958Z" fill="#FFEEBD" transform="matrix(1 0 0 1.00002 189.508 60)"/><path d="M731.626 476.991 725.146 483.951 731.026 491.271 724.067 484.911 716.627 490.671 723.107 483.831 717.347 476.391 724.187 482.871Z" fill="#FFD961" transform="matrix(1 0 0 1.00002 189.508 60)"/><path d="M739.066 185.637 732.586 192.476 738.466 199.916 731.626 193.436 724.187 199.316 730.666 192.356 724.786 184.917 731.626 191.396Z" fill="#FFEEBD" transform="matrix(1 0 0 1.00002 189.508 60)"/><path d="M789.705 257.995 777.105 260.755 777.945 273.475 775.186 260.995 762.466 261.715 774.946 259.075 774.226 246.235 776.866 258.835Z" fill="#FFD961" transform="matrix(1 0 0 1.00002 189.508 60)"/><path d="M212.396 179.757 192.356 184.077 193.556 204.476 189.236 184.437 168.837 185.757 188.876 181.317 187.557 160.917 191.876 180.957Z" fill="#FFEEBD" transform="matrix(1 0 0 1.00002 189.508 60)"/><path d="M132.718 402.952 115.918 391.193 101.758 406.072 113.518 389.273 98.6382 375.113 115.438 386.753 129.598 371.993 117.838 388.793Z" fill="#FFD961" transform="matrix(1 0 0 1.00002 189.508 60)"/><path d="M70.9187 305.994 178.317 305.994C178.317 305.994 164.157 301.434 145.917 299.514 145.917 299.514 156.357 282.355 142.197 282.355 128.038 282.355 119.518 296.034 119.518 296.034 119.518 296.034 112.438 258.355 94.1982 261.115 75.9586 263.755 83.3984 302.634 83.3984 302.634 83.3984 302.634 75.9586 303.594 70.9187 305.994Z" fill="#EAE7E1" transform="matrix(1 0 0 1.00002 189.508 60)"/><path d="M825.825 444.232 797.145 444.472 767.866 444.952C762.986 445.032 758.066 445.072 753.106 445.072 748.186 445.072 743.266 445.072 738.226 444.952 728.386 444.952 718.547 444.712 708.707 444.592L705.707 444.592 708.587 443.752C711.307 442.952 713.987 442.232 716.627 441.592 719.347 440.952 722.067 440.352 724.786 439.792 730.186 438.712 735.586 437.872 741.106 437.152L740.626 437.992C739.586 436.152 738.666 434.232 737.866 432.232 737.146 430.192 736.546 428.032 736.786 425.752 736.786 424.672 737.146 423.472 737.866 422.512 738.586 421.432 739.666 420.712 740.746 420.352 742.906 419.512 745.186 419.512 747.346 419.752 751.666 420.112 755.866 421.912 759.466 424.432 762.986 426.912 765.986 429.992 768.466 433.672L766.306 434.032C767.146 430.072 768.106 426.352 769.426 422.512 770.626 418.792 772.066 415.072 773.986 411.472 775.906 407.992 778.185 404.512 781.305 401.872 782.865 400.433 784.665 399.353 786.705 398.633 788.745 397.913 791.025 397.793 793.065 398.033 795.225 398.393 797.265 399.353 798.945 400.673 800.625 401.993 801.825 403.792 802.785 405.592 804.585 409.312 805.425 413.392 805.785 417.352 806.145 421.312 806.025 425.272 805.665 429.232 805.425 433.192 804.945 437.032 804.105 440.872L803.625 440.392C807.385 440.632 811.145 440.992 814.905 441.472 816.745 441.792 818.585 442.112 820.425 442.432 821.305 442.592 822.225 442.832 823.185 443.152 823.545 443.152 824.025 443.392 824.505 443.512 824.865 443.632 825.465 443.992 825.825 444.232ZM825.585 444.112C825.105 443.992 824.865 443.992 824.385 443.752 823.905 443.632 823.545 443.512 823.065 443.392 822.185 443.232 821.265 443.072 820.305 442.912 818.465 442.592 816.625 442.312 814.785 442.072 811.105 441.752 807.385 441.512 803.625 441.352L803.145 441.232 803.145 440.752C804.345 433.072 804.705 425.152 803.865 417.472 803.505 413.752 802.665 409.912 800.865 406.672 800.025 404.992 798.945 403.552 797.505 402.473 796.185 401.393 794.505 400.673 792.705 400.433 790.905 400.193 789.225 400.313 787.545 400.913 785.865 401.513 784.305 402.473 782.865 403.672 780.105 406.072 777.945 409.312 776.146 412.672 772.666 419.512 770.266 426.952 768.586 434.512L767.986 437.152 766.546 434.872C764.386 431.512 761.386 428.512 758.146 426.112 754.906 423.712 751.186 422.032 747.106 421.552 745.186 421.432 743.146 421.312 741.346 421.912 740.506 422.152 739.666 422.752 739.186 423.352 738.586 424.072 738.346 424.912 738.226 425.872 737.986 427.792 738.466 429.832 739.066 431.752 739.786 433.792 740.626 435.592 741.586 437.392L741.946 438.112 741.226 438.232C738.466 438.472 735.706 438.832 733.066 439.192 730.346 439.592 727.626 440.072 724.906 440.632 722.187 441.112 719.507 441.672 716.867 442.312 714.147 443.032 711.507 443.792 708.947 444.592L708.707 443.752C718.427 443.632 728.146 443.392 737.746 443.272 742.546 443.152 747.346 443.272 752.146 443.272 756.946 443.272 761.746 443.312 766.546 443.392L795.825 443.752Z" fill="#EAE7E1" transform="matrix(1 0 0 1.00002 189.508 60)"/><path d="M639.108 138.477 809.145 138.477C809.145 138.477 778.066 132.598 759.826 132.598 759.826 132.598 773.026 107.998 760.546 107.998 748.066 107.998 736.186 125.518 736.186 125.518 736.186 125.518 738.226 77.8785 714.107 77.8785 689.867 77.8785 693.587 125.158 693.587 125.158 693.587 125.158 688.907 110.278 680.387 110.278 671.987 110.278 674.027 130.918 674.027 130.918 674.027 130.918 657.708 133.198 639.108 138.477Z" fill="#EAE7E1" transform="matrix(1 0 0 1.00002 189.508 60)"/><path d="M127.318 129.718C128.638 129.358 130.198 128.758 131.638 128.398 133.078 127.998 134.517 127.598 135.957 127.198 138.837 126.398 141.717 125.678 144.597 125.038 150.437 123.678 156.277 122.518 162.117 121.558L161.517 122.278C161.277 118.558 161.157 114.838 161.637 110.998 161.757 109.078 162.117 107.158 162.837 105.358 163.317 104.398 163.797 103.558 164.397 102.718 165.117 101.878 166.077 101.158 167.157 100.918 169.317 100.318 171.477 100.918 173.277 101.998 174.957 103.078 176.397 104.518 177.597 105.958 178.797 107.518 179.757 109.198 180.597 110.878 181.437 112.558 182.277 114.358 182.877 116.158L180.717 116.518C180.477 111.718 180.477 106.918 180.717 101.998 181.077 97.1982 181.677 92.3983 182.877 87.5984 184.077 82.9184 185.877 78.2385 189.116 74.1586 190.796 72.2387 192.836 70.5587 195.116 69.4787 197.516 68.3987 200.156 67.9187 202.676 67.9187 205.316 67.9187 207.836 68.6387 210.116 69.8387 212.516 71.0387 214.436 72.7186 215.996 74.7586 217.676 76.6786 218.876 78.8385 219.836 81.1185 220.876 83.3584 221.716 85.6784 222.356 88.0784 223.676 92.7583 224.516 97.5582 224.996 102.358 225.476 107.158 225.596 111.958 225.476 116.878L223.556 116.278C226.556 112.078 229.916 108.238 233.876 104.998 235.796 103.318 237.956 101.878 240.236 100.678 241.316 100.078 242.635 99.7181 243.835 99.2381 245.155 98.8782 246.355 98.5182 247.675 98.5182 248.995 98.3982 250.435 98.5182 251.755 99.1181 252.115 99.2381 252.355 99.4781 252.715 99.7181 252.955 99.9581 253.195 100.198 253.435 100.438 253.915 100.998 254.235 101.638 254.395 102.358 254.875 103.678 254.875 104.998 254.755 106.318 254.635 107.638 254.395 108.838 254.155 110.158 252.835 115.078 250.795 119.638 248.515 124.198L248.035 123.478C256.435 123.598 264.715 124.438 272.875 125.518 281.155 126.598 289.315 127.798 297.474 129.358L297.354 130.198 254.635 130.558C247.435 130.678 240.356 130.678 233.156 130.678 225.956 130.678 218.796 130.638 211.676 130.558L169.197 130.078ZM127.558 129.718 170.637 129.358 213.116 128.878C220.156 128.798 227.196 128.758 234.236 128.758 241.196 128.758 248.275 128.758 255.235 128.878L297.474 129.238 297.354 130.198C293.275 129.398 289.195 128.678 285.115 128.038 281.035 127.318 276.955 126.718 272.875 126.238 268.675 125.758 264.595 125.278 260.515 124.918 256.315 124.558 252.235 124.318 248.155 124.318L247.315 124.318 247.675 123.598C249.835 119.158 251.875 114.598 252.955 109.798 253.435 107.398 253.795 104.878 253.075 102.718 252.835 101.638 252.115 100.798 251.155 100.438 250.195 99.9581 248.995 99.8381 247.795 100.078 246.715 100.078 245.515 100.438 244.315 100.798 243.235 101.158 242.155 101.638 241.076 102.238 238.916 103.318 236.996 104.758 235.076 106.438 231.356 109.558 228.116 113.398 225.356 117.358L223.316 120.118 223.436 116.758C223.556 112.078 223.316 107.278 222.836 102.478 222.356 97.7982 221.516 93.1183 220.196 88.6784 219.556 86.3584 218.756 84.1584 217.796 82.0785 216.836 79.9185 215.636 77.9985 214.196 76.1986 212.756 74.5186 210.956 72.9586 209.036 71.9987 207.116 71.0387 204.956 70.4387 202.676 70.4387 200.516 70.4387 198.236 70.7987 196.316 71.6387 194.276 72.5986 192.596 74.0386 191.156 75.7186 188.276 79.1985 186.477 83.6384 185.277 88.1984 184.077 92.7583 183.477 97.4382 183.117 102.118 182.757 106.918 182.757 111.718 182.997 116.398L183.477 124.318 180.837 116.758C179.757 113.398 178.197 110.038 176.037 107.158 174.957 105.838 173.757 104.518 172.317 103.558 171.957 103.438 171.597 103.198 171.237 103.078L170.037 102.718 168.837 102.478C168.437 102.478 168.077 102.518 167.757 102.598 166.317 102.958 165.237 104.398 164.517 105.958 163.917 107.638 163.557 109.318 163.197 111.118 162.717 114.718 162.717 118.438 162.957 122.158L163.077 122.758 162.357 122.878C156.477 123.598 150.717 124.678 144.837 125.758 141.957 126.398 139.037 127.038 136.077 127.678 134.637 127.998 133.198 128.358 131.758 128.758L129.718 129.238C128.998 129.398 128.278 129.558 127.558 129.718Z" fill="#EAE7E1" transform="matrix(1 0 0 1.00002 189.508 60)"/><path d="M206.156 500.391C206.156 505.791 201.716 510.23 196.196 510.23 190.796 510.23 186.357 505.791 186.357 500.391 186.357 494.871 190.796 490.431 196.196 490.431 201.716 490.431 206.156 494.871 206.156 500.391Z" stroke="#FFD961" stroke-width="1.19998" stroke-miterlimit="10" fill="none" transform="matrix(1 0 0 1.00002 189.508 60)"/><path d="M82.7985 457.071C82.7985 459.831 80.5185 461.991 77.8785 461.991 75.1186 461.991 72.8386 459.831 72.8386 457.071 72.8386 454.312 75.1186 452.152 77.8785 452.152 80.5185 452.152 82.7985 454.312 82.7985 457.071Z" stroke="#FFD961" stroke-width="1.19998" stroke-miterlimit="10" fill="none" transform="matrix(1 0 0 1.00002 189.508 60)"/><path d="M152.757 69.2387C152.757 71.8787 150.597 74.1586 147.837 74.1586 145.077 74.1586 142.917 71.8787 142.917 69.2387 142.917 66.4788 145.077 64.1988 147.837 64.1988 150.597 64.1988 152.757 66.4788 152.757 69.2387Z" stroke="#FFD961" stroke-width="1.19998" stroke-miterlimit="10" fill="none" transform="matrix(1 0 0 1.00002 189.508 60)"/><path d="M659.868 182.157C659.868 184.917 657.588 187.197 654.948 187.197 652.188 187.197 649.908 184.917 649.908 182.157 649.908 179.517 652.188 177.237 654.948 177.237 657.588 177.237 659.868 179.517 659.868 182.157Z" stroke="#FFEEBD" stroke-width="1.19998" stroke-miterlimit="10" fill="none" transform="matrix(1 0 0 1.00002 189.508 60)"/><path d="M87.7184 195.356C87.7184 198.116 85.5584 200.276 82.7985 200.276 80.0385 200.276 77.8785 198.116 77.8785 195.356 77.8785 192.596 80.0385 190.316 82.7985 190.316 85.5584 190.316 87.7184 192.596 87.7184 195.356Z" stroke="#FFEEBD" stroke-width="1.19998" stroke-miterlimit="10" fill="none" transform="matrix(1 0 0 1.00002 189.508 60)"/><path d="M804.225 338.154C804.225 340.914 801.945 343.074 799.305 343.074 796.545 343.074 794.265 340.914 794.265 338.154 794.265 335.394 796.545 333.234 799.305 333.234 801.945 333.234 804.225 335.394 804.225 338.154Z" stroke="#FFEEBD" stroke-width="1.19998" stroke-miterlimit="10" fill="none" transform="matrix(1 0 0 1.00002 189.508 60)"/></g></svg>