<svg width="2407" height="2407" xmlns="http://www.w3.org/2000/svg" xmlns:xlink="http://www.w3.org/1999/xlink" xml:space="preserve" overflow="hidden"><g transform="translate(-1057 -34)"><path d="M1174 2022.91C1174 1987.61 1202.61 1959 1237.91 1959L3346.09 1959C3381.39 1959 3410 1987.61 3410 2022.91L3410 2054.09C3410 2089.39 3381.39 2118 3346.09 2118L1237.91 2118C1202.61 2118 1174 2089.39 1174 2054.09Z" fill="#EDB48C" fill-rule="evenodd"/><path d="M1370.39 1972.12C1370.39 1972.12 1188.9 1536.93 1185.05 1528.27 1181.68 1520.08 1195.64 1509.01 1207.2 1511.42 1218.27 1513.82 1468.12 1560.04 1479.19 1562.44 1490.74 1564.85 1497 1570.63 1501.81 1581.22 1506.63 1591.33 1658.75 1972.12 1658.75 1972.12Z" fill="#262626"/><path d="M1386.28 1972.12C1386.28 1972.12 1201.9 1533.56 1198.53 1524.9 1194.68 1516.71 1199.01 1509.49 1210.57 1511.9 1221.64 1514.3 1483.52 1560.04 1495.07 1562.44 1506.63 1564.85 1512.4 1570.63 1517.22 1581.22 1522.03 1591.33 1674.15 1972.12 1674.15 1972.12Z" fill="#4A4A4A"/><path d="M2002.47 1972.6C2002.47 1980.3 1995.73 1987.04 1988.03 1987.04L1384.35 1987.04C1376.65 1987.04 1369.91 1980.3 1369.91 1972.6L1369.91 1962.49C1369.91 1954.79 1376.65 1948.05 1384.35 1948.05L1988.03 1948.05C1995.73 1948.05 2002.47 1954.79 2002.47 1962.49Z" fill="#FFFFFF"/><path d="M1642.38 1917.72C1587.98 1781.96 1511.92 1592.29 1508.55 1585.07 1504.7 1576.89 1500.85 1573.52 1493.15 1572.07 1487.37 1570.63 1418.05 1558.59 1351.14 1546.56 1294.33 1536.45 1239.93 1527.3 1218.27 1522.97 1212.97 1522.01 1209.6 1526.82 1211.53 1531.64 1233.67 1583.63 1329.95 1813.74 1373.76 1917.72Z" fill="#477EFF"/><path d="M1988.03 1948.05 1887.41 1948.05 1867.2 1987.04 1988.03 1987.04C1995.73 1987.04 2002.47 1980.3 2002.47 1972.6L2002.47 1962.49C2002.47 1954.79 1995.73 1948.05 1988.03 1948.05Z" fill="#4A4A4A" fill-opacity="0.2"/><path d="M2751.53 765.247C2814.59 774.393 2888.73 819.645 2933.02 860.564 2933.02 860.564 2919.06 908.704 2901.24 934.218 2864.66 890.411 2744.31 782.096 2744.31 782.096Z" fill="#F3F300" fill-rule="evenodd"/><path d="M2767.41 768.135C2761.96 767.172 2756.66 766.209 2751.53 765.247L2744.31 782.096C2744.31 782.096 2751.05 788.354 2762.12 797.982Z" fill="#C1C109"/><path d="M2735.64 781.133C2787.63 817.719 2833.85 891.373 2854.55 947.697 2854.55 947.697 2820.37 984.284 2793.41 999.207 2780.41 943.846 2721.68 793.168 2721.68 793.168Z" fill="#F3F300" fill-rule="evenodd"/><path d="M2761.16 802.314C2752.97 794.612 2744.31 787.391 2735.64 781.133L2721.68 793.168C2721.68 793.168 2735.64 828.31 2751.05 871.636Z" fill="#C1C109"/><path d="M2697.61 737.807C2715.42 733.474 2728.9 736.844 2740.94 746.472 2752.97 756.1 2758.27 764.284 2758.75 766.691 2759.71 768.616 2749.6 805.203 2747.2 810.017 2744.79 814.831 2728.42 816.756 2728.42 816.756Z" fill="#E3E303"/><path d="M1611.09 2078.51 2240.76 2078.51 2419.84 1972.12 1906.67 1972.12Z" fill="#FFFFFF"/><path d="M2435.73 1336.67C2413.1 1379.51 2309.6 1701.09 2306.23 1706.86 2303.34 1712.64 2285.53 1722.75 2283.13 1728.53 2280.72 1734.3 2277.35 1745.38 2277.35 1745.38 2277.35 1745.38 2151.7 1803.14 2138.71 1807 2125.71 1811.33 2105.01 1806.03 2092.01 1812.77 2079.01 1819.51 2056.39 1840.69 2056.39 1840.69L2107.9 2001.48 2202.73 1994.74C2202.73 1994.74 2214.29 1996.67 2229.21 1994.74 2244.61 1993.3 2278.31 1990.89 2303.34 1986.08 2327.9 1981.26 2404.44 1960.56 2428.51 1953.82 2452.58 1947.56 2473.28 1917.24 2489.17 1888.35 2505.53 1859.47 2542.12 1787.74 2542.12 1787.74L2607.11 1729.97 2607.11 1336.67Z" fill="#477EFF"/><path d="M2288.42 1744.41C2288.42 1744.41 2291.31 1743.93 2296.12 1742.97 2298.53 1742.49 2301.42 1742.49 2304.79 1742.49 2308.64 1742.01 2312.49 1742.49 2316.82 1742.49 2321.16 1742.97 2325.49 1743.45 2330.3 1744.41 2332.87 1745.06 2335.44 1745.7 2338.01 1746.34 2340.57 1746.98 2343.14 1747.78 2345.71 1748.75 2348.11 1749.23 2350.52 1750.67 2353.41 1751.64 2355.98 1752.92 2358.54 1754.2 2361.11 1755.49 2365.93 1758.37 2370.74 1761.74 2375.55 1765.11 2380.37 1768.97 2384.7 1772.34 2388.55 1776.67 2392.88 1781 2396.25 1785.33 2399.14 1790.15 2401.07 1792.07 2402.03 1794.48 2403.48 1796.89 2404.76 1799.13 2406.04 1801.38 2407.33 1803.63 2409.25 1808.12 2411.02 1812.29 2412.62 1816.14 2414.07 1819.99 2415.03 1823.84 2415.99 1827.21 2416.96 1830.58 2416.96 1833.47 2417.44 1835.88 2418.4 1841.18 2418.4 1843.58 2418.4 1843.58 2418.4 1844.06 2418.4 1844.55 2417.92 1844.55 2417.6 1844.55 2417.28 1844.55 2416.96 1844.55 2416.96 1844.55 2415.03 1842.14 2412.62 1838.29 2411.18 1836.36 2409.73 1833.95 2407.81 1831.07 2405.88 1828.66 2403.48 1825.77 2401.07 1822.4 2398.66 1819.03 2396.25 1816.14 2393.37 1812.29 2390.48 1808.92 2387.59 1805.55 2384.22 1802.18 2380.85 1798.81 2377.48 1794.96 2373.63 1792.07 2372.18 1790.15 2370.26 1788.7 2368.33 1787.26 2366.41 1785.81 2364.48 1783.89 2362.56 1782.44 2360.31 1781.16 2358.22 1779.72 2356.3 1778.11 2354.37 1776.67 2351.97 1775.7 2350.04 1774.26L2347.15 1772.34 2343.78 1770.41C2341.86 1769.45 2339.93 1768 2337.52 1767.04 2333.35 1764.79 2329.18 1762.87 2325.01 1761.26 2323.08 1760.3 2321.16 1759.34 2319.23 1758.37 2317.31 1757.73 2315.38 1756.93 2313.45 1755.97 2310.08 1755 2306.71 1753.08 2303.34 1752.12 2300.46 1751.15 2298.05 1750.19 2295.64 1749.23 2290.83 1747.78 2288.42 1746.34 2288.42 1746.34 2287.94 1746.34 2287.46 1745.86 2287.94 1745.38 2287.94 1745.06 2288.1 1744.73 2288.42 1744.41Z" fill="#325EC7"/><path d="M2314.9 1731.9C2314.9 1731.9 2316.82 1730.93 2320.19 1729.49 2322.12 1728.85 2324.37 1728.21 2326.93 1727.57 2329.82 1727.08 2332.71 1726.6 2336.08 1725.64 2339.45 1725.16 2343.3 1724.68 2347.15 1724.68 2349.08 1724.68 2351 1724.68 2352.93 1724.68 2354.85 1724.68 2356.94 1724.84 2359.19 1725.16 2363.52 1725.64 2367.85 1726.12 2372.18 1727.57 2376.52 1728.53 2380.85 1729.97 2385.18 1731.9 2389.52 1733.82 2393.37 1735.75 2397.22 1738.16 2401.07 1740.56 2404.92 1742.97 2408.29 1745.86 2411.18 1748.27 2414.07 1751.64 2416.96 1754.04 2419.52 1756.93 2421.77 1759.82 2423.69 1762.71 2425.62 1765.27 2427.39 1767.84 2428.99 1770.41 2430.43 1772.34 2430.92 1774.74 2431.88 1776.67 2433.8 1780.04 2434.77 1781.96 2434.77 1781.96 2434.77 1782.44 2434.77 1782.93 2434.29 1782.93 2433.96 1783.25 2433.64 1783.25 2433.32 1782.93 2433.32 1782.93 2431.4 1781.48 2428.51 1779.07 2427.55 1777.63 2425.62 1776.19 2423.69 1774.26 2421.77 1772.66 2419.68 1770.73 2417.44 1768.48 2415.03 1766.56 2412.14 1764.63 2409.73 1762.23 2406.85 1760.3 2403.48 1757.89 2400.59 1755.97 2397.22 1754.04 2393.85 1752.12 2390.48 1750.19 2387.11 1748.27 2383.26 1746.82 2379.89 1744.9 2376.04 1743.93 2372.18 1742.01 2368.33 1741.04 2366.41 1740.4 2364.48 1739.92 2362.56 1739.6 2361.11 1739.12 2359.19 1738.64 2357.26 1738.16 2353.41 1737.51 2349.72 1736.87 2346.19 1736.23 2344.58 1735.91 2342.98 1735.75 2341.38 1735.75 2339.77 1735.43 2338.17 1735.27 2336.56 1735.27 2333.19 1734.79 2330.3 1734.79 2327.9 1734.3 2325.49 1734.3 2323.08 1734.3 2321.16 1734.3 2317.31 1734.3 2315.38 1733.82 2315.38 1733.82 2314.42 1733.82 2314.42 1733.34 2314.42 1732.86 2314.42 1732.54 2314.58 1732.22 2314.9 1731.9Z" fill="#325EC7"/><path d="M2131 1838.29C2114.64 1825.77 2098.75 1819.99 2082.86 1818.07 2070.83 1827.21 2056.39 1840.69 2056.39 1840.69L2107.9 2001.48 2201.77 1995.22C2190.7 1932.16 2164.7 1863.8 2131 1838.29Z" fill="#325EC7"/><path d="M2607.11 1510.45 2481.46 1510.45C2481.46 1510.45 2509.86 1703.98 2542.12 1787.74L2607.11 1729.97Z" fill="#325EC7"/><path d="M2060.24 1798.33C2063.61 1798.81 2113.19 1863.32 2115.6 1864.28 2118.01 1865.25 2132.45 1870.06 2136.3 1871.5 2139.67 1872.47 2155.55 1921.57 2155.55 1921.57L2169.03 1962.01C2169.03 1962.01 2154.11 2004.85 2150.74 2013.52 2147.37 2022.66 2134.37 2028.92 2105.49 2028.92 2076.61 2028.92 2024.13 2028.92 2024.13 2028.92L2024.13 1867.65Z" fill="#F7A486"/><path d="M2153.63 1749.71C2156.52 1738.64 2150.26 1727.08 2139.19 1723.71 2128.11 1720.83 2116.56 1727.08 2113.19 1738.16L2107.9 1756.45 2148.33 1768Z" fill="#FF7892"/><path d="M2087.68 1986.08 2046.28 1974.52 2107.9 1756.45 2148.82 1768Z" fill="#FFAD29"/><path d="M2077.57 1983.19 2056.39 1977.41 2117.52 1759.34 2138.71 1765.11Z" fill="#FFD04F"/><path d="M2143.04 1794 2098.75 1781.48 2106.45 1753.56 2151.22 1766.08Z" fill="#4A4A4A"/><path d="M2070.35 2007.74 2087.68 1986.08C2087.2 1979.34 2079.49 1976.93 2079.49 1976.93 2077.57 1971.15 2063.13 1966.34 2058.31 1970.67 2054.94 1969.71 2049.17 1970.19 2046.28 1974.52L2049.65 2001.96C2053.18 2001.32 2056.87 2001.48 2060.72 2002.44 2064.25 2003.73 2067.46 2005.49 2070.35 2007.74Z" fill="#FFD9BA"/><path d="M2070.35 2007.74C2067.46 2005.49 2064.25 2003.73 2060.72 2002.44 2056.87 2001.48 2053.18 2001.32 2049.65 2001.96L2053.02 2028.92Z" fill="#4A4A4A"/><path d="M2022.69 1825.29C2022.69 1825.29 1987.06 1844.06 1976.96 1850.8 1966.85 1858.02 1962.99 1883.06 1962.99 1883.06 1962.99 1883.06 1940.37 1903.28 1934.11 1908.09 1927.85 1912.9 1923.04 1920.61 1922.08 1929.27 1921.11 1937.46 1922.56 1944.68 1922.08 1949.97 1921.59 1955.27 1919.19 1995.22 1920.15 2003.41 1921.59 2011.11 1942.29 2018.81 1950 2019.77 1957.7 2020.74 1967.33 2015.44 1967.33 2015.44 1967.33 2015.44 1973.1 2024.11 1982.25 2025.07 1991.4 2026.03 2015.47 2020.74 2015.47 2020.74 2015.47 2020.74 2024.13 2025.55 2029.43 2028.92 2034.72 2032.77 2042.43 2034.7 2046.28 2022.18 2050.61 2009.18 2049.65 2002.44 2044.35 1988.48 2038.57 1974.52 2016.91 1895.57 2016.91 1895.57Z" fill="#FFD9BA"/><path d="M1938.44 1937.46C1937.96 1940.34 1939.89 1987.04 1938.44 1992.82 1937.48 1997.15 1927.85 2001.96 1920.63 2004.37 1924 2012.07 1942.78 2018.81 1950 2019.77 1957.7 2020.74 1967.33 2015.44 1967.33 2015.44 1967.33 2015.44 1939.41 1934.09 1938.44 1937.46Z" fill="#F7A486"/><path d="M1999.58 1864.28C1999.58 1864.28 1990.43 1891.24 1990.43 1900.39 1990.43 1910.02 2015.47 1971.15 2019.32 1983.19 2023.65 1995.22 2018.36 2019.77 2015.47 2020.74 2015.47 2020.74 2024.13 2025.55 2029.43 2028.92 2034.72 2032.77 2042.43 2034.7 2046.28 2022.18 2050.61 2009.18 2049.65 2002.44 2044.35 1988.48 2038.57 1974.52 2016.91 1895.57 2016.91 1895.57L2019.32 1864.28Z" fill="#F7A486"/><path d="M1966.36 1910.98C1965.88 1914.35 1974.55 1978.37 1975.03 1984.63 1975.51 1990.41 1967.33 2015.44 1967.33 2015.44 1967.33 2015.44 1973.1 2024.11 1982.25 2025.07 1991.4 2026.03 2015.47 2020.74 2015.47 2020.74 2015.47 2020.74 1983.69 1984.63 1981.77 1980.78 1980.33 1976.93 1966.85 1907.61 1966.36 1910.98Z" fill="#F7A486"/><path d="M2062.16 1875.35C2062.16 1875.35 2052.54 1903.76 2054.46 1909.05 2055.9 1913.87 2072.27 1957.67 2071.79 1970.67 2071.79 1983.67 2057.83 2003.89 2046.28 2000.04 2035.2 1995.7 2032.8 1976.93 2022.21 1956.23 2011.62 1935.53 1999.58 1910.98 1997.17 1904.24 1995.25 1897.02 1992.36 1888.35 1997.17 1871.5 2001.99 1854.17 2015.95 1819.99 2018.36 1813.74 2020.76 1807.48 2057.83 1796.41 2060.24 1798.33 2062.16 1799.78 2063.61 1863.8 2062.16 1875.35Z" fill="#FFD9BA"/><path d="M2144.48 1916.76C2118.97 1921.57 2091.53 1945.64 2087.68 1954.3 2083.34 1962.49 2082.86 1986.56 2092.97 1993.3 2103.08 1999.56 2112.71 1988 2131 1978.86 2149.78 1969.23 2170 1965.38 2171.44 1958.64 2172.89 1951.42 2169.03 1916.76 2169.03 1916.76 2169.03 1916.76 2169.03 1896.06 2165.66 1891.24 2162.78 1886.43 2136.78 1869.1 2136.3 1871.5 2135.82 1873.43 2143.52 1894.61 2144.48 1916.76Z" fill="#FFD9BA"/><path d="M2797.26 988.135C2762.12 987.172 2719.76 990.06 2675.47 997.763L2675.47 1189.36 2868.51 1189.36 2868.51 1044.46C2868.51 1044.46 2827.59 994.874 2797.26 988.135Z" fill="#325EC7"/><path d="M2635.99 1150.85C2635.99 1150.85 2492.53 1254.83 2477.61 1272.16 2462.69 1289.97 2436.21 1332.34 2433.8 1340.52 2431.88 1349.18 2449.21 1436.32 2494.94 1544.15 2540.67 1651.5 2665.84 1969.23 2665.84 1969.23L3309.95 1969.23C3309.95 1969.23 3242.56 1456.54 3207.41 1367.48 3172.27 1278.42 3159.27 1260.61 3121.72 1237.5 3083.69 1214.39 2862.25 1141.22 2849.73 1137.37 2836.74 1133.04 2698.57 1117.15 2635.99 1150.85Z" fill="#477EFF"/><path d="M2610.48 1829.62C2641.77 1907.61 2665.84 1969.23 2665.84 1969.23L3309.95 1969.23C3309.95 1969.23 3276.74 1713.6 3244.48 1532.12L3035.55 1532.12C3008.11 1683.28 2840.59 1795.92 2610.48 1829.62Z" fill="#325EC7"/><path d="M2786.67 1311.64C2786.67 1311.64 2994.63 1230.28 3052.4 1207.65 2973.45 1177.81 2858.88 1140.26 2849.73 1137.37 2836.74 1133.04 2698.57 1117.15 2635.99 1150.85 2635.99 1150.85 2513.72 1239.43 2483.39 1266.87 2507.46 1280.83 2566.19 1314.52 2601.81 1326.56Z" fill="#325EC7"/><path d="M2653.8 1361.7 2496.87 1255.79C2496.87 1255.79 2486.76 1241.35 2491.57 1221.61 2496.39 1201.39 2492.53 1180.21 2503.13 1163.85 2513.23 1147.48 2550.3 1134.96 2550.3 1134.96L2622.51 1232.69 2680.28 1345.81Z" fill="#477EFF"/><path d="M2678.84 1342.93 2622.51 1232.69 2550.3 1134.96C2550.3 1134.96 2513.23 1147.48 2503.13 1163.85 2492.53 1180.21 2496.39 1201.39 2491.57 1221.61 2488.68 1234.13 2491.57 1244.24 2493.98 1250.5 2523.34 1251.94 2572.45 1251.94 2585.44 1255.79 2599.89 1260.13 2664.88 1342.93 2664.88 1342.93Z" fill="#325EC7"/><path d="M2506.01 1225.95C2506.01 1225.95 2554.15 1204.76 2590.26 1232.69 2626.36 1260.13 2664.39 1346.3 2666.8 1345.81 2669.21 1345.33 2804.48 1234.61 2854.55 1144.11 2854.55 1144.11 2805.93 1134 2787.63 1119.56 2769.82 1105.11 2737.09 1057.46 2737.09 1057.46L2737.09 988.135 2506.01 988.135Z" fill="#FFD9BA"/><path d="M2506.01 1099.34 2506.01 1225.95C2506.01 1225.95 2554.15 1204.76 2590.26 1232.69 2597.96 1238.46 2605.18 1246.65 2612.4 1255.79 2638.88 1184.55 2627.33 1099.34 2627.33 1099.34Z" fill="#F7A486"/><path d="M2286.01 977.544C2298.05 1010.76 2313.94 1047.83 2322.6 1060.83 2330.78 1073.82 2332.23 1084.41 2329.82 1098.86 2327.41 1113.3 2322.6 1138.33 2322.6 1141.7 2322.12 1145.07 2331.27 1149.4 2342.34 1149.4 2353.89 1148.92 2363.04 1144.11 2366.41 1149.4 2370.26 1154.7 2369.3 1162.88 2369.3 1164.33 2369.3 1165.77 2376.52 1170.59 2383.26 1172.03 2389.52 1173.47 2397.7 1171.07 2397.7 1171.07 2397.7 1171.07 2398.18 1183.1 2401.55 1186.95 2404.92 1190.8 2418.88 1194.66 2420.32 1198.51 2421.29 1201.88 2428.03 1227.87 2439.1 1239.91 2450.17 1252.42 2476.65 1253.87 2513.23 1237.5 2550.3 1221.13 2592.67 1182.14 2616.25 1130.15 2639.84 1078.16 2630.22 1054.09 2630.22 1054.09 2630.22 1054.09 2729.38 997.281 2733.72 901.001 2738.05 804.721 2686.06 697.851 2563.78 672.336 2441.99 647.304 2333.67 708.923 2297.57 776.319 2261.46 843.715 2270.13 933.255 2286.01 977.544Z" fill="#FFD9BA"/><path d="M2376.52 921.702C2376.52 921.702 2479.54 921.702 2481.46 921.702 2486.76 924.109 2546.93 1036.27 2551.27 1031.94 2555.6 1027.61 2561.38 997.281 2561.86 973.693 2576.78 940.476 2593.63 939.032 2619.14 944.809 2647.55 951.067 2671.13 1003.54 2630.22 1054.09 2647.06 1062.75 2697.61 1070.94 2700.02 1067.57 2702.43 1063.71 2694.72 1045.9 2694.72 1045.9 2720.72 1057.94 2739.01 1059.38 2740.46 1056.01 2741.9 1053.12 2767.9 1001.61 2756.34 928.923 2762.12 932.774 2774.64 936.625 2775.12 933.737 2775.6 930.848 2753.94 846.122 2726.01 810.017L2700.5 728.179C2700.5 728.179 2723.13 728.179 2720.24 723.846 2706.28 700.739 2682.69 669.929 2628.77 653.562 2602.29 629.01 2485.79 593.868 2373.63 641.527 2261.94 689.667 2224.88 799.426 2220.06 837.457 2206.1 868.266 2190.7 875.969 2192.62 876.931 2194.07 877.413 2208.03 883.19 2221.99 877.894 2220.54 894.743 2208.03 954.437 2210.43 954.437 2212.84 954.918 2248.46 943.365 2260.5 912.074 2260.5 912.074 2270.61 947.216 2277.83 961.176Z" fill="#4A4A4A"/><path d="M2265.31 912.074C2265.31 912.074 2260.02 920.739 2262.91 929.885 2265.31 939.032 2285.53 994.393 2288.9 1000.17 2291.79 1005.47 2298.05 1008.35 2301.9 1006.91 2306.23 1005.47 2738.53 821.57 2738.53 821.57 2738.53 821.57 2744.31 815.794 2740.94 809.054 2737.57 802.314 2715.42 737.807 2712.53 734.437 2709.65 730.586 2705.31 728.179 2705.31 728.179Z" fill="#F3F300"/><path d="M2433.8 820.608C2470.39 858.157 2539.23 894.262 2541.64 889.448 2544.04 884.634 2525.75 848.529 2525.75 848.529 2567.15 861.527 2595.55 857.675 2594.59 850.936 2593.15 843.715 2563.78 797.019 2563.78 797.019 2582.08 802.796 2604.7 798.945 2603.26 795.093 2602.29 790.761 2582.56 768.135 2575.82 763.321Z" fill="#4A4A4A"/><path d="M2621.07 979.951C2612.88 971.767 2600.85 965.99 2597 968.879 2593.15 972.249 2586.41 995.837 2586.41 1003.54 2586.41 1011.72 2587.37 1019.43 2593.63 1021.83 2600.37 1024.72 2611.44 1029.05 2612.88 1026.65 2614.33 1024.72 2607.11 1021.35 2608.07 1018.94 2608.55 1016.54 2611.92 1010.28 2607.11 1003.06 2602.29 995.837 2598.44 995.837 2598.44 990.542 2597.96 985.246 2599.89 976.1 2605.66 978.507 2611.44 980.914 2626.36 985.246 2621.07 979.951Z" fill="#F7A486"/><path d="M2398.18 1169.62C2398.18 1169.62 2398.66 1168.66 2399.62 1168.18 2400.59 1167.22 2402.03 1165.77 2403.48 1164.81 2405.4 1163.85 2407.65 1162.88 2410.22 1161.92 2412.62 1160.96 2415.03 1159.99 2417.92 1159.51 2420.32 1158.55 2423.21 1158.07 2425.62 1157.59 2428.51 1157.11 2430.92 1156.62 2432.84 1157.11 2437.17 1156.62 2439.58 1157.11 2439.58 1157.11 2440.06 1157.11 2440.54 1157.59 2440.54 1158.07 2440.54 1158.39 2440.38 1158.55 2440.06 1158.55 2440.06 1158.55 2437.17 1159.51 2433.32 1160.48 2432.36 1160.8 2431.4 1161.12 2430.43 1161.44 2429.15 1161.76 2428.03 1162.08 2427.06 1162.4 2424.66 1163.36 2422.25 1164.33 2419.36 1164.81 2416.96 1165.77 2414.55 1166.73 2412.14 1167.7 2409.89 1168.66 2407.81 1169.3 2405.88 1169.62 2403.96 1170.59 2402.51 1170.59 2401.07 1171.07 2399.79 1171.07 2399.14 1171.07 2399.14 1171.07 2398.66 1171.07 2398.18 1171.07 2398.18 1170.1 2398.18 1169.78 2398.18 1169.62 2398.18 1169.62Z" fill="#78241E"/><path d="M2323.08 1020.39 2312.01 1012.2C2312.01 1012.2 2325.01 998.244 2341.38 989.098 2358.22 980.432 2390.48 975.137 2390.48 975.137 2390.48 975.137 2347.63 1000.65 2323.08 1020.39Z" fill="#262626"/><path d="M2377.48 1043.01C2382.78 1051.2 2382.29 1060.34 2377 1064.2 2371.7 1067.57 2363.04 1063.71 2357.74 1055.53 2352.45 1047.35 2352.93 1037.72 2358.22 1034.35 2363.52 1030.98 2372.18 1034.83 2377.48 1043.01Z" fill="#4A4A4A"/><path d="M2347.15 1051.68C2347.15 1051.68 2351.97 1041.57 2361.59 1037.24 2377.48 1030.02 2393.85 1037.24 2393.85 1037.24L2395.29 1045.42C2395.29 1045.42 2399.62 1031.46 2398.66 1025.68 2395.29 1028.09 2392.88 1027.13 2392.88 1027.13 2379.41 1025.2 2366.41 1024.24 2357.74 1030.02 2349.08 1035.31 2345.71 1044.46 2347.15 1051.68Z" fill="#262626"/><path d="M2653.8 1361.7C2653.8 1361.7 2790.04 1132.55 2800.63 1099.34 2811.22 1066.6 2818.44 1063.71 2812.67 1049.27 2806.89 1034.35 2790.04 986.209 2797.26 988.135 2804.48 990.542 2867.06 986.209 2897.87 993.43 2928.2 1000.65 2940.24 1041.09 2951.31 1051.68 2962.86 1062.75 3012.45 1100.3 3028.33 1121 3044.7 1142.18 3028.33 1198.99 3028.33 1198.99L3005.23 1190.32C3005.23 1190.32 2713.02 1354 2691.35 1361.7 2669.69 1369.88 2653.8 1361.7 2653.8 1361.7Z" fill="#477EFF"/><path d="M2598.92 1599.03C2593.15 1445.46 2598.92 1323.19 2598.92 1321.74L2622.99 1322.71C2622.99 1324.15 2617.22 1445.95 2622.99 1598.07Z" fill="#FFFFFF"/><path d="M2723.13 1599.03C2717.35 1445.46 2723.13 1323.19 2723.13 1321.74L2747.2 1322.71C2747.2 1324.15 2741.9 1445.95 2747.2 1598.07Z" fill="#FFFFFF"/><path d="M2640.32 1865.73 2624.92 1865.73C2624.92 1865.73 2453.06 1850.32 2441.99 1849.84 2430.92 1848.88 2385.18 1894.13 2383.26 1899.42 2381.81 1904.24 2381.81 1919.64 2392.88 1938.42 2392.88 1938.42 2385.18 1954.3 2385.18 1960.56 2385.18 1966.34 2397.7 1987.04 2397.7 1987.04 2397.7 1987.04 2392.4 1999.56 2392.88 2007.26 2393.37 2015.44 2406.36 2025.55 2406.36 2025.55 2406.36 2025.55 2403.48 2036.14 2405.88 2042.4 2408.29 2048.18 2410.22 2053.95 2427.55 2052.51 2445.36 2051.07 2485.31 2042.4 2485.31 2042.4 2485.31 2042.4 2603.26 2038.55 2621.55 2037.11 2640.32 2035.18 2653.8 2030.85 2653.8 2030.85L2673.06 2020.26 2673.06 1866.69Z" fill="#FFD9BA"/><path d="M2386.15 1965.38C2389.52 1973.56 2397.7 1987.04 2397.7 1987.04 2397.7 1987.04 2428.51 1945.16 2428.51 1942.75 2428.51 1941.31 2403.48 1955.27 2386.15 1965.38Z" fill="#F7A486"/><path d="M2440.06 1990.41C2440.06 1987.52 2409.73 2001.96 2393.37 2010.15 2395.77 2017.37 2406.36 2025.55 2406.36 2025.55 2406.36 2025.55 2440.06 1994.74 2440.06 1990.41Z" fill="#F7A486"/><path d="M2392.88 1938.42C2392.88 1938.42 2421.77 1897.5 2421.77 1893.17 2421.77 1889.8 2398.18 1910.02 2385.18 1921.09 2387.11 1926.38 2389.52 1932.16 2392.88 1938.42Z" fill="#F7A486"/><path d="M3150.61 1259.64C3134.24 1248.09 3093.32 1321.74 3062.03 1420.43 3030.74 1519.12 3028.33 1587.48 3029.3 1625.03 3030.26 1662.58 3037.96 1793.52 3037.96 1793.52 3037.96 1793.52 3024.48 1796.89 3023.04 1801.7 3021.11 1806.51 3023.04 1815.18 3023.04 1815.18 3023.04 1815.18 2862.25 1832.03 2848.77 1832.03 2835.29 1832.03 2817.48 1823.84 2806.41 1825.77 2794.85 1827.21 2772.71 1840.69 2772.71 1840.69 2772.71 1840.69 2652.36 1847.43 2645.14 1848.88 2637.92 1850.32 2624.92 1865.73 2624.92 1865.73L2640.32 1865.73C2640.32 1865.73 2657.17 1948.53 2653.8 2030.85 2653.8 2030.85 2660.06 2040.47 2671.62 2039.03 2682.69 2037.59 2796.78 2034.22 2796.78 2034.22 2796.78 2034.22 2828.07 2046.25 2855.03 2045.29 2882.47 2044.81 3234.85 2054.44 3265.18 2050.1 3295.51 2046.25 3335.95 2027.96 3340.76 1945.16 3345.58 1862.36 3299.36 1613.95 3271.44 1535.97 3239.19 1393.95 3190.56 1287.57 3150.61 1259.64Z" fill="#477EFF"/><path d="M2772.71 1840.69 2762.6 1841.18C2794.85 1941.79 2781.37 2034.7 2781.37 2034.7L2796.78 2034.22C2807.85 1907.61 2772.71 1840.69 2772.71 1840.69Z" fill="#325EC7"/><path d="M3038.44 1821.44C3038.44 1821.44 3041.81 1820.96 3047.11 1819.99 3050 1819.51 3053.37 1819.03 3057.7 1819.03 3061.55 1818.55 3066.36 1819.03 3071.18 1819.03 3075.99 1819.51 3081.29 1819.99 3087.06 1821.44 3089.95 1821.92 3092.84 1822.4 3095.73 1823.36 3098.62 1824.33 3101.51 1825.29 3104.39 1826.25 3107.76 1827.21 3110.65 1828.66 3113.54 1830.1 3116.75 1831.07 3119.8 1832.51 3122.69 1834.44 3128.46 1837.32 3134.24 1841.18 3139.54 1845.51 3144.83 1849.84 3150.13 1854.17 3154.46 1858.99 3159.27 1863.8 3163.12 1869.1 3166.98 1874.39 3168.9 1876.8 3170.35 1879.69 3171.79 1882.09 3173.39 1884.66 3174.84 1887.23 3176.12 1889.8 3178.69 1894.93 3180.78 1899.91 3182.38 1904.72 3183.82 1909.53 3185.27 1913.87 3186.23 1917.72 3187.19 1921.57 3187.68 1924.94 3188.16 1927.83 3189.12 1933.6 3189.12 1936.49 3189.12 1936.49 3189.12 1936.97 3188.64 1937.94 3188.16 1937.94 3187.84 1937.94 3187.52 1937.78 3187.19 1937.46 3187.19 1937.46 3185.27 1934.57 3182.38 1930.23 3180.46 1927.83 3178.53 1924.94 3176.6 1922.05 3174.2 1918.68 3171.79 1915.31 3168.9 1911.94 3166.01 1908.09 3163.12 1904.24 3160.24 1900.39 3156.39 1896.54 3153.02 1892.2 3149.16 1888.35 3145.31 1884.5 3141.46 1880.17 3137.13 1876.8 3135.2 1874.87 3133.28 1872.95 3130.87 1871.02 3128.46 1869.1 3126.54 1867.17 3124.13 1865.73 3121.88 1864.12 3119.48 1862.36 3116.91 1860.43 3114.98 1858.99 3112.1 1857.54 3109.69 1856.1L3106.32 1853.69 3102.47 1851.77C3100.06 1850.32 3097.65 1848.88 3095.25 1847.92 3090.43 1845.35 3085.62 1842.94 3080.81 1840.69 3078.56 1839.73 3076.31 1838.77 3074.07 1837.81 3071.82 1836.84 3069.73 1835.88 3067.81 1834.92 3063.48 1833.47 3059.62 1831.55 3055.77 1830.58 3052.4 1829.14 3049.51 1827.7 3046.63 1827.21 3041.33 1825.29 3037.96 1823.84 3037.96 1823.84 3037.48 1823.36 3037.48 1822.88 3037.48 1822.4 3037.8 1822.08 3038.12 1821.76 3038.44 1821.44Z" fill="#325EC7"/><path d="M3068.77 1807C3068.77 1807 3071.18 1806.03 3075.51 1804.59 3077.44 1803.63 3080.32 1802.66 3083.21 1802.18 3086.1 1801.22 3089.95 1800.26 3093.8 1799.78 3097.65 1799.29 3101.51 1798.81 3106.32 1798.81 3108.57 1798.49 3110.81 1798.33 3113.06 1798.33 3115.63 1798.65 3118.03 1798.97 3120.28 1799.29 3125.09 1799.78 3130.39 1800.26 3135.69 1801.7 3140.5 1803.14 3145.79 1804.59 3150.61 1807 3155.42 1808.92 3160.24 1811.33 3164.57 1814.22 3169.38 1816.62 3173.23 1819.99 3177.09 1822.88 3180.94 1826.25 3184.31 1829.62 3187.19 1832.99 3190.4 1836.2 3193.13 1839.41 3195.38 1842.62 3197.79 1845.51 3199.23 1848.88 3201.16 1851.28 3202.6 1854.17 3204.04 1856.58 3205.01 1858.51 3206.93 1862.84 3207.9 1864.76 3207.9 1864.76 3207.9 1865.25 3207.9 1866.21 3207.41 1866.21 3206.77 1866.53 3206.29 1866.53 3205.97 1866.21 3205.97 1866.21 3204.04 1864.28 3201.16 1861.39 3199.23 1859.95 3197.79 1858.02 3195.38 1856.1 3192.97 1854.17 3190.56 1851.77 3187.68 1849.36 3185.27 1846.95 3181.9 1845.03 3179.01 1842.14 3175.64 1839.73 3171.79 1837.32 3168.42 1834.92 3164.57 1832.51 3160.72 1830.1 3156.39 1828.18 3152.53 1825.77 3148.2 1824.33 3144.35 1822.4 3140.02 1820.48 3135.69 1819.03 3131.35 1817.59 3129.11 1816.95 3126.86 1816.3 3124.61 1815.66 3122.21 1815.18 3120.28 1814.7 3117.87 1814.22 3113.7 1813.25 3109.53 1812.45 3105.36 1811.81 3103.43 1811.49 3101.51 1811.33 3099.58 1811.33 3097.65 1811.01 3095.73 1810.85 3093.8 1810.85 3090.43 1810.37 3087.06 1809.88 3084.18 1809.88 3081.29 1809.88 3078.4 1809.4 3076.47 1809.4 3072.14 1809.4 3069.25 1809.4 3069.25 1809.4 3068.77 1809.4 3068.29 1808.44 3068.29 1807.96 3068.29 1807.64 3068.45 1807.32 3068.77 1807Z" fill="#325EC7"/><path d="M3215.6 1749.23 2880.54 1622.14 2872.84 1615.4 3207.9 1742.49Z" fill="#604249"/><path d="M3207.9 1742.49 2872.84 1615.4 3002.34 1344.85 3337.39 1472.42Z" fill="#FFD04F"/><path d="M3337.39 1472.42 3345.09 1479.16 3215.6 1749.23 3207.9 1742.49Z" fill="#FFAD29"/><path d="M3182.38 1763.67C3070.7 1721.31 2959.01 1678.78 2847.33 1636.1 2854.55 1638.99 2865.62 1630.8 2872.84 1615.4L3207.9 1742.49C3200.67 1757.89 3189.6 1766.56 3182.38 1763.67Z" fill="#4A4A4A"/><path d="M3295.99 1457.98 3321.99 1480.61 3198.27 1739.12C3190.08 1755.97 3177.57 1764.63 3170.35 1758.37 3163.12 1752.12 3164.09 1733.34 3172.27 1716.01Z" fill="#FFF6F2"/><path d="M3173.72 1713.12 2838.66 1586.03 2968.16 1315.49 3303.21 1442.58Z" fill="#FFD04F"/><path d="M3303.21 1442.58 3311.4 1449.32 3305.14 1461.83 3181.42 1719.86 3173.72 1713.12Z" fill="#FFAD29"/><path d="M3173.72 1713.12 3181.42 1719.86C3173.23 1736.71 3172.75 1755.97 3179.97 1762.23 3187.19 1768.48 3199.71 1759.82 3207.9 1742.49L3215.6 1749.23C3202.6 1776.19 3182.38 1790.15 3171.31 1780.04 3159.75 1770.41 3160.72 1740.08 3173.72 1713.12Z" fill="#262626"/><path d="M3175.16 1782.44C3063.48 1740.08 2951.79 1697.72 2840.11 1655.35 2838.5 1655.03 2837.22 1654.23 2836.25 1652.95 2824.7 1642.84 2825.66 1612.99 2838.66 1586.03L3173.72 1713.12C3160.72 1740.08 3159.75 1770.41 3171.31 1780.04 3172.27 1781.32 3173.56 1782.12 3175.16 1782.44Z" fill="#4A4A4A"/><path d="M3293.1 1704.94C3249.3 1677.5 3218.49 1671.72 3218.49 1671.72L3191.53 1726.12C3191.53 1726.12 3222.34 1731.9 3266.14 1759.34L3260.37 1718.9Z" fill="#FF7892"/><path d="M1671.27 1571.11 1961.07 1437.76 1970.22 1437.28 1680.41 1570.15Z" fill="#604249"/><path d="M1680.41 1570.15 1970.22 1437.28 2060.72 1688.57 1770.92 1821.44Z" fill="#325EC7"/><path d="M1770.92 1821.44 1761.77 1822.4 1671.27 1571.11 1680.41 1570.15Z" fill="#477EFF"/><path d="M1682.82 1541.26C1779.42 1496.65 1876.18 1452.2 1973.1 1407.92 1966.36 1410.8 1965.4 1422.84 1970.22 1437.28L1680.41 1570.15C1675.12 1556.19 1676.56 1544.15 1682.82 1541.26Z" fill="#4A4A4A"/><path d="M1805.58 1804.11 1774.77 1806.51 1688.6 1566.78C1682.82 1550.89 1685.23 1537.41 1693.41 1536.93 1702.08 1535.97 1713.63 1548.48 1719.41 1564.37Z" fill="#FFF6F2"/><path d="M1720.37 1567.26 2010.17 1433.91 2100.68 1685.2 1810.87 1818.55Z" fill="#0AB4B7" fill-rule="evenodd"/><path d="M1810.87 1818.55 1801.73 1819.03 1797.39 1807.96 1711.22 1567.74 1720.37 1567.26Z" fill="#07989B"/><path d="M1720.37 1567.26 1711.22 1567.74C1705.45 1551.85 1693.89 1539.82 1685.23 1540.3 1677.04 1541.26 1674.64 1554.26 1680.41 1570.15L1671.27 1571.11C1662.12 1546.08 1665.97 1524.41 1679.45 1523.45 1692.93 1522.49 1711.22 1542.23 1720.37 1567.26Z" fill="#262626"/><path d="M1675.12 1524.41C1772.04 1480.13 1868.8 1435.84 1965.4 1391.55 1966.69 1390.91 1967.97 1390.59 1969.25 1390.59 1982.73 1389.14 2001.51 1408.88 2010.17 1433.91L1720.37 1567.26C1711.22 1542.23 1692.93 1522.49 1679.45 1523.45 1677.85 1523.77 1676.4 1524.09 1675.12 1524.41Z" fill="#4A4A4A"/><path d="M1650.57 1647.65C1695.82 1637.54 1718.44 1621.66 1718.44 1621.66L1700.63 1570.63C1700.63 1570.63 1678.01 1586.51 1633.24 1596.62L1662.6 1618.29Z" fill="#FFD04F"/><path d="M2818.92 683.89 3124.61 595.794C3166.01 693.037 3215.12 775.356 3266.63 836.012 3312.84 890.892 3360.98 928.441 3407.68 944.809L3101.99 1032.9C3055.29 1016.54 3007.15 978.988 2960.94 924.109 2909.43 863.452 2860.32 781.133 2818.92 683.89Z" fill="#FFFFFF"/><path d="M3124.61 648.266C3037.64 673.62 2950.67 698.813 2863.69 723.846 2864.02 724.809 2864.5 725.772 2865.14 726.735 2952.11 701.702 3039.08 676.669 3126.06 651.636 3125.42 650.673 3124.93 649.55 3124.61 648.266Z" fill="#808080"/><path d="M3151.57 702.183C3064.6 727.216 2977.63 752.249 2890.65 777.282 2891.29 778.244 2891.78 779.207 2892.1 780.17 2979.07 755.137 3066.04 730.104 3153.02 705.072 3152.69 704.109 3152.21 703.146 3151.57 702.183Z" fill="#808080"/><path d="M3166.01 728.179C3079.04 753.212 2992.23 778.244 2905.58 803.277 2905.9 804.24 2906.38 805.203 2907.02 806.166 2993.99 781.133 3080.97 756.1 3167.94 731.067 3167.3 730.104 3166.66 729.142 3166.01 728.179Z" fill="#808080"/><path d="M3181.42 753.212C3094.45 778.244 3007.47 803.277 2920.5 828.31 2920.82 829.273 2921.3 830.236 2921.94 831.198 3008.92 805.845 3095.89 780.651 3182.86 755.619 3182.22 754.977 3181.74 754.174 3181.42 753.212Z" fill="#808080"/><path d="M3196.34 776.8C3109.37 801.833 3022.4 826.866 2935.42 851.899 2936.06 852.861 2936.71 853.824 2937.35 854.787 3024.32 829.754 3111.29 804.561 3198.27 779.207 3197.63 778.565 3196.98 777.763 3196.34 776.8Z" fill="#808080"/><path d="M3212.23 799.426C3125.25 824.459 3038.28 849.492 2951.31 874.524 2951.95 875.487 2952.43 876.289 2952.75 876.931 3039.73 851.899 3126.7 826.866 3213.67 801.833 3213.03 801.191 3212.55 800.389 3212.23 799.426Z" fill="#808080"/><path d="M3227.63 820.608C3140.98 845.64 3054.17 870.673 2967.19 895.706 2967.52 896.669 2968 897.471 2968.64 898.113 3055.61 873.08 3142.59 848.047 3229.56 823.015 3228.92 822.052 3228.27 821.25 3227.63 820.608Z" fill="#808080"/><path d="M3244 840.345C3157.03 865.699 3070.05 890.892 2983.08 915.925 2983.4 916.246 2983.88 916.727 2984.53 917.369 2984.53 917.69 2984.69 917.85 2985.01 917.85 3071.66 892.818 3158.47 867.785 3245.44 842.752 3245.44 842.431 3245.44 842.271 3245.44 842.271 3244.8 841.629 3244.32 840.987 3244 840.345Z" fill="#808080"/><path d="M3259.89 859.12C3172.91 884.152 3085.94 909.185 2998.97 934.218 2999.61 934.86 3000.25 935.502 3000.89 936.144 3087.87 911.111 3174.84 886.078 3261.81 861.045 3261.17 860.403 3260.53 859.761 3259.89 859.12Z" fill="#808080"/><path d="M3276.25 875.969C3189.28 901.001 3102.31 926.195 3015.33 951.548 3015.98 951.869 3016.62 952.351 3017.26 952.993 3104.23 927.96 3191.21 902.927 3278.18 877.894 3277.54 877.252 3276.9 876.61 3276.25 875.969Z" fill="#808080"/><path d="M3292.62 891.855C3205.65 916.888 3118.68 941.92 3031.7 966.953 3032.34 967.595 3032.99 968.076 3033.63 968.397 3120.6 943.365 3207.57 918.332 3294.55 893.299 3293.91 892.657 3293.26 892.176 3292.62 891.855Z" fill="#808080"/><path d="M3308.99 905.815C3222.02 930.848 3135.04 955.881 3048.07 980.914 3048.71 981.556 3049.35 982.037 3050 982.358 3136.97 957.325 3223.94 932.292 3310.91 907.26 3310.27 906.939 3309.63 906.457 3308.99 905.815Z" fill="#808080"/><path d="M3325.84 918.332 3064.92 993.43C3065.56 994.072 3066.04 994.553 3066.36 994.874 3153.34 969.842 3240.31 944.809 3327.28 919.776 3326.64 919.455 3326.16 918.974 3325.84 918.332Z" fill="#808080"/><path d="M3342.21 929.404C3255.23 954.437 3168.26 979.47 3081.29 1004.5 3081.93 1004.82 3082.57 1005.14 3083.21 1005.47L3344.13 930.367C3343.49 930.046 3342.85 929.725 3342.21 929.404Z" fill="#808080"/><path d="M2283.13 1038.68 2026.54 964.546C1991.4 1045.9 1950.48 1115.22 1907.15 1166.25 1868.16 1212.47 1827.72 1244.24 1788.73 1257.72L2045.31 1331.85C2084.79 1318.38 2125.23 1286.6 2164.22 1240.39 2207.55 1189.36 2248.46 1120.04 2283.13 1038.68Z" fill="#FFFFFF"/><path d="M2026.54 1008.35C2099.71 1029.54 2172.89 1050.72 2246.06 1071.9 2245.42 1072.54 2244.93 1073.34 2244.61 1074.31 2171.44 1053.44 2098.43 1032.42 2025.58 1011.24 2025.9 1010.28 2026.22 1009.32 2026.54 1008.35Z" fill="#808080"/><path d="M2003.91 1053.61C2077.09 1074.79 2150.1 1095.81 2222.95 1116.67 2222.63 1117.63 2222.31 1118.43 2221.99 1119.08 2148.82 1098.21 2075.64 1077.19 2002.47 1056.01 2002.79 1055.05 2003.27 1054.25 2003.91 1053.61Z" fill="#808080"/><path d="M1991.4 1075.75C2064.57 1096.61 2137.74 1117.63 2210.92 1138.81 2210.27 1139.45 2209.79 1140.26 2209.47 1141.22 2136.3 1120.04 2063.13 1098.86 1989.95 1077.68 1990.59 1077.03 1991.08 1076.39 1991.4 1075.75Z" fill="#808080"/><path d="M1978.88 1096.45C2052.05 1117.63 2125.23 1138.81 2198.4 1159.99 2197.76 1160.64 2197.28 1161.28 2196.96 1161.92 2123.78 1141.06 2050.61 1120.04 1977.44 1098.86 1978.08 1098.21 1978.56 1097.41 1978.88 1096.45Z" fill="#808080"/><path d="M1965.88 1116.67C2039.06 1137.53 2112.23 1158.55 2185.4 1179.73 2184.76 1180.37 2184.28 1181.02 2183.96 1181.66 2110.78 1160.8 2037.61 1139.78 1964.44 1118.59 1965.08 1117.95 1965.56 1117.31 1965.88 1116.67Z" fill="#808080"/><path d="M1952.89 1135.44C2026.06 1156.62 2099.23 1177.65 2172.4 1198.51 2171.76 1199.15 2171.28 1199.95 2170.96 1200.91 2097.79 1179.73 2024.61 1158.55 1951.44 1137.37 1952.08 1136.73 1952.56 1136.08 1952.89 1135.44Z" fill="#808080"/><path d="M1939.41 1153.25C2012.58 1174.44 2085.75 1195.46 2158.92 1216.32 2158.6 1216.96 2158.12 1217.6 2157.48 1218.24 2084.31 1197.38 2011.13 1176.36 1937.96 1155.18 1938.6 1154.54 1939.09 1153.9 1939.41 1153.25Z" fill="#808080"/><path d="M1926.41 1170.1C1999.26 1191.29 2072.27 1212.31 2145.45 1233.17 2145.12 1233.81 2144.8 1234.29 2144.48 1234.61 2144.16 1234.93 2144 1235.09 2144 1235.09 2070.83 1213.91 1997.66 1192.89 1924.48 1172.03 1924.8 1171.71 1924.96 1171.55 1924.96 1171.55 1925.29 1170.91 1925.77 1170.42 1926.41 1170.1Z" fill="#808080"/><path d="M1912.45 1185.51C1985.62 1206.69 2058.79 1227.87 2131.97 1249.05 2131.32 1249.37 2130.84 1249.86 2130.52 1250.5 2057.35 1229.32 1984.18 1208.3 1911 1187.43 1911.65 1186.79 1912.13 1186.15 1912.45 1185.51Z" fill="#808080"/><path d="M1898.97 1199.95C1972.14 1221.13 2045.15 1242.15 2118.01 1263.01 2117.68 1263.66 2117.2 1264.14 2116.56 1264.46 2043.71 1243.6 1970.7 1222.58 1897.52 1201.39 1897.85 1201.07 1898.33 1200.59 1898.97 1199.95Z" fill="#808080"/><path d="M1885.01 1212.95C1958.18 1234.13 2031.35 1255.31 2104.53 1276.49 2103.88 1276.81 2103.4 1277.14 2103.08 1277.46 2029.91 1256.6 1956.74 1235.57 1883.56 1214.39 1884.21 1214.07 1884.69 1213.59 1885.01 1212.95Z" fill="#808080"/><path d="M1871.53 1224.98C1944.38 1246.17 2017.39 1267.19 2090.57 1288.05 2090.24 1288.69 2089.76 1289.17 2089.12 1289.49 2015.95 1268.31 1942.78 1247.13 1869.6 1225.95 1870.24 1225.63 1870.89 1225.3 1871.53 1224.98Z" fill="#808080"/><path d="M1857.57 1235.57 2076.61 1298.64C2076.28 1298.96 2075.8 1299.28 2075.16 1299.6 2001.99 1278.74 1928.98 1257.72 1856.12 1236.54 1856.44 1236.22 1856.93 1235.9 1857.57 1235.57Z" fill="#808080"/><path d="M1843.61 1244.72C1916.78 1265.9 1989.95 1286.92 2063.13 1307.78 2062.48 1308.11 2061.84 1308.43 2061.2 1308.75L1842.16 1245.68C1842.48 1245.36 1842.97 1245.04 1843.61 1244.72Z" fill="#808080"/><path d="M1380.98 790.279 1600.98 849.01C1587.98 940.476 1559.1 1028.57 1518.18 1105.11 1481.11 1173.96 1434.42 1234.13 1380.5 1279.38L1160.98 1220.17C1214.42 1174.92 1261.11 1115.22 1298.18 1046.38 1339.1 969.36 1367.98 881.745 1380.98 790.279Z" fill="#FFFFFF"/><path d="M1577.87 889.448C1515.29 872.759 1452.71 856.071 1390.13 839.382 1390.13 840.345 1389.97 841.308 1389.65 842.271 1452.23 858.959 1514.81 875.808 1577.39 892.818 1577.39 891.534 1577.55 890.411 1577.87 889.448Z" fill="#808080"/><path d="M1565.36 943.365C1502.78 926.355 1440.19 909.506 1377.61 892.818 1377.29 893.78 1376.97 894.904 1376.65 896.187 1439.23 912.876 1501.81 929.565 1564.4 946.253 1564.72 945.29 1565.04 944.327 1565.36 943.365Z" fill="#808080"/><path d="M1557.17 970.804C1486.89 952.03 1373.28 921.22 1369.43 920.257 1369.11 921.22 1368.79 922.183 1368.47 923.146 1431.05 939.834 1493.63 956.683 1556.21 973.693 1556.53 972.73 1556.85 971.767 1557.17 970.804Z" fill="#808080"/><path d="M1548.51 997.281C1485.93 980.593 1423.35 963.904 1360.76 947.216 1360.44 948.179 1360.12 949.141 1359.8 950.104 1422.38 966.793 1484.8 983.481 1547.07 1000.17 1547.71 999.207 1548.19 998.244 1548.51 997.281Z" fill="#808080"/><path d="M1538.4 1023.76C1475.82 1007.07 1413.24 990.221 1350.65 973.211 1350.33 974.174 1350.01 975.137 1349.69 976.1 1412.27 993.109 1474.86 1009.96 1537.44 1026.65 1537.76 1025.68 1538.08 1024.72 1538.4 1023.76Z" fill="#808080"/><path d="M1527.81 1049.27C1465.23 1032.58 1402.65 1015.9 1340.06 999.207 1339.74 1000.17 1339.42 1001.13 1339.1 1002.1 1401.68 1018.78 1464.1 1035.47 1526.36 1052.16 1527.01 1051.2 1527.49 1050.24 1527.81 1049.27Z" fill="#808080"/><path d="M1516.26 1074.79C1453.67 1057.78 1391.09 1040.93 1328.51 1024.24 1328.19 1025.2 1327.71 1026.17 1327.07 1027.13 1389.65 1043.82 1452.23 1060.51 1514.81 1077.19 1515.45 1076.23 1515.93 1075.43 1516.26 1074.79Z" fill="#808080"/><path d="M1503.74 1098.86C1441.16 1082.17 1378.58 1065.48 1315.99 1048.79 1315.67 1049.43 1315.35 1050.07 1315.03 1050.72 1315.03 1051.04 1315.03 1051.2 1315.03 1051.2 1377.29 1068.21 1439.71 1085.06 1502.29 1101.75 1502.62 1101.42 1502.78 1101.26 1502.78 1101.26 1503.1 1100.62 1503.42 1099.82 1503.74 1098.86Z" fill="#808080"/><path d="M1490.74 1122.93C1428.16 1105.92 1365.58 1089.07 1303 1072.38 1302.67 1073.34 1302.19 1074.14 1301.55 1074.79 1364.13 1091.8 1426.72 1108.65 1489.3 1125.33 1489.62 1124.37 1490.1 1123.57 1490.74 1122.93Z" fill="#808080"/><path d="M1476.78 1145.55C1414.2 1128.86 1351.62 1112.18 1289.03 1095.49 1288.71 1096.13 1288.23 1096.93 1287.59 1097.89 1350.17 1114.58 1412.75 1131.27 1475.34 1147.96 1475.66 1147.32 1476.14 1146.52 1476.78 1145.55Z" fill="#808080"/><path d="M1462.34 1167.7C1399.76 1151.01 1337.17 1134.16 1274.59 1117.15 1273.95 1118.11 1273.31 1118.92 1272.67 1119.56 1335.25 1136.57 1397.83 1153.42 1460.41 1170.1 1461.06 1169.14 1461.7 1168.34 1462.34 1167.7Z" fill="#808080"/><path d="M1446.93 1188.88C1384.35 1172.19 1321.77 1155.34 1259.19 1138.33 1258.55 1139.29 1257.9 1140.1 1257.26 1140.74L1445.01 1191.29C1445.65 1190.32 1446.29 1189.52 1446.93 1188.88Z" fill="#808080"/><path d="M1430.57 1209.1C1367.98 1192.41 1305.4 1175.56 1242.82 1158.55 1242.5 1159.51 1242.02 1160.32 1241.38 1160.96 1303.96 1177.65 1366.38 1194.49 1428.64 1211.5 1429.28 1210.54 1429.92 1209.74 1430.57 1209.1Z" fill="#808080"/><path d="M1413.72 1228.35C1343.91 1209.58 1229.82 1179.25 1226.45 1178.29 1225.81 1178.93 1225.17 1179.57 1224.53 1180.21 1287.11 1196.9 1349.69 1213.59 1412.27 1230.28 1412.92 1229.64 1413.4 1229 1413.72 1228.35Z" fill="#808080"/><path d="M1868.64 677.632 1806.06 796.056 2176.74 653.08Z" fill="#D4D4D4"/><path d="M1886.93 726.253 1806.06 796.056 2176.74 653.08Z" fill="#A5A5A5"/><path d="M1886.93 726.253 1806.06 796.056 2176.74 653.08Z" fill="#ACACAC" fill-opacity="0.6"/><path d="M1868.64 677.632 2176.74 653.08 1886.93 726.253 1917.26 807.61 2233.54 643.452 1837.83 596.275Z" fill="#F7F7F7"/><path d="M1317.92 1392.51C1318.88 1390.59 1318.88 1388.18 1317.92 1386.25 1295.77 1380.96 1282.78 1367.96 1277.48 1345.81 1275.56 1345.33 1273.15 1345.33 1271.22 1345.81 1265.93 1367.96 1252.93 1380.96 1230.79 1386.25 1229.82 1388.18 1229.82 1390.59 1230.79 1392.51 1252.93 1398.29 1265.93 1410.8 1271.22 1432.95 1273.15 1433.91 1275.56 1433.91 1277.48 1432.95 1282.78 1410.8 1295.77 1398.29 1317.92 1392.51Z" fill="#FFD04F"/><path d="M1629.87 694.962C1630.83 693.037 1630.83 691.111 1629.87 688.704 1607.72 683.409 1595.21 670.411 1589.43 648.266 1587.5 647.785 1585.1 647.785 1583.17 648.266 1577.87 670.411 1564.88 683.409 1542.73 688.704 1541.77 691.111 1541.77 693.037 1542.73 694.962 1564.88 700.739 1577.87 713.255 1583.17 735.4 1585.1 736.363 1587.5 736.363 1589.43 735.4 1595.21 713.255 1607.72 700.739 1629.87 694.962Z" fill="#FFFF62"/><path d="M3356.65 605.422C3357.13 603.496 3357.13 601.089 3356.65 599.164 3334.5 593.868 3321.51 580.87 3316.21 558.726 3313.8 557.763 3311.88 557.763 3309.95 558.726 3304.18 580.87 3291.66 593.868 3269.51 599.164 3268.55 601.089 3268.55 603.496 3269.51 605.422 3291.66 610.717 3304.18 623.715 3309.95 645.859 3311.88 646.822 3313.8 646.822 3316.21 645.859 3321.51 623.715 3334.5 610.717 3356.65 605.422Z" fill="#FFFF62"/><path d="M3368.2 1303.45C3368.68 1302.49 3368.68 1301.04 3368.2 1299.6 3354.24 1296.23 3346.54 1288.53 3343.17 1274.57 3341.72 1274.09 3340.28 1274.09 3338.84 1274.57 3335.47 1288.53 3327.76 1296.23 3313.8 1299.6 3313.32 1301.04 3313.32 1302.49 3313.8 1303.45 3327.76 1306.82 3335.47 1315.01 3338.84 1328.97 3340.28 1329.45 3341.72 1329.45 3343.17 1328.97 3346.54 1315.01 3354.24 1306.82 3368.2 1303.45Z" fill="#FF7892"/><path d="M2869.47 952.511C2858.4 953.474 2849.73 959.732 2845.4 968.879 2840.11 960.695 2830 955.4 2819.41 955.881 2803.52 957.325 2791.97 970.804 2792.93 986.691 2793.41 992.949 2794.85 1010.76 2834.33 1032.9L2850.7 1041.57 2865.14 1030.5C2901.72 1003.06 2900.28 985.728 2899.8 978.988 2898.84 963.102 2884.88 951.548 2869.47 952.511Z" fill="#4271AD"/><path d="M1724.7 1037.72C1716.04 1043.98 1711.7 1054.09 1712.67 1064.2 1703.52 1059.86 1692.45 1060.34 1683.3 1066.12 1670.78 1075.27 1667.42 1093.08 1676.08 1106.08 1679.93 1111.37 1690.04 1125.82 1735.29 1124.85L1753.59 1124.37 1760.81 1107.04C1778.14 1065.16 1768.03 1050.72 1764.66 1045.42 1755.51 1032.42 1737.7 1029.05 1724.7 1037.72Z" fill="#FF7892"/></g></svg>